<svg width="92" height="90" xmlns="http://www.w3.org/2000/svg"><g fill="none" fill-rule="evenodd"><path d="M1.45 86.39c-.1 1.1.64 2.09 1.93 2.09 1.23 0 1.87-.9 1.87-1.86 0-1.3-1.05-1.68-2.07-2.03C2.07 84.22.4 83.63.4 81.6c0-1.68 1.15-3 3.09-3a2.82 2.82 0 0 1 2.94 2.9H4.98c.02-.95-.65-1.6-1.54-1.6-1.02 0-1.6.69-1.6 1.59 0 1.23 1.09 1.62 2.08 1.93 1.27.41 2.78.96 2.78 2.97 0 1.95-1.25 3.4-3.44 3.4-2.22 0-3.26-1.63-3.26-3.4h1.45z" fill="#FFF"/><path d="M19.83 86.86c1.41 0 2.6-1.18 2.6-2.76 0-1.58-1.19-2.73-2.6-2.73-1.4 0-2.6 1.15-2.6 2.73s1.2 2.76 2.6 2.76m0-8.52c3.95 0 5.84 3.1 5.84 5.76 0 2.66-1.9 5.78-5.84 5.78A5.67 5.67 0 0 1 14 84.1c0-2.65 1.9-5.76 5.83-5.76" fill="#FF3EDA"/><path d="M34.42 80.16h-1.66v-1.3h1.66v-.46c0-.74.13-1.37.46-1.91.3-.47.73-.88 1.21-1.15.63-.36 1.31-.5 2.13-.5h.3v1.32h-.3c-.43 0-2.36.03-2.36 2.24v.45h3.48v-3.77h1.44v3.77h2.48v1.3h-2.48v9.38h-1.44v-9.37h-3.48v9.37h-1.44v-9.37zM50.91 89.53h1.45V75.08H50.9zM62.04 84.24a4.24 4.24 0 0 0 8.47.02 4.24 4.24 0 1 0-8.47-.02zm9.84 5.3H70.5v-2h-.04a4.78 4.78 0 0 1-4.16 2.24 5.55 5.55 0 0 1-5.72-5.66 5.48 5.48 0 0 1 5.68-5.52c.92 0 2.91.13 4.2 2.1h.04v-1.85h1.37v10.68zM81.9 84.26a4.18 4.18 0 0 0 4.17 4.22c2.32 0 4.27-1.8 4.27-4.24a4.2 4.2 0 0 0-4.23-4.33 4.22 4.22 0 0 0-4.22 4.35zm.07-9.18v5.6H82a4.72 4.72 0 0 1 4.1-2.08c3.92 0 5.68 3.02 5.68 5.64a5.51 5.51 0 0 1-5.72 5.54 4.74 4.74 0 0 1-4.14-2.08h-.04v1.83h-1.37V75.08h1.45zM45.9 46.33a14.43 14.43 0 0 1-11.38-23.25l.8.62A13.42 13.42 0 0 0 45.9 45.33a13.42 13.42 0 1 0-1.67-26.7l-.13-1.01a14.43 14.43 0 0 1 16.2 14.3c0 7.95-6.46 14.41-14.4 14.41M46.95 13.6c-.25-.02-.49-.03-.74-.03l.02-.75.76.03-.04.75zm-2.2 0l-.05-.75.76-.03.02.75c-.25 0-.5.02-.74.03zm3.66.14a18.1 18.1 0 0 0-.73-.09l.07-.74.76.08-.1.75zm-5.13.01l-.1-.74.76-.1.07.75a17 17 0 0 0-.73.1zm6.58.24l-.72-.14.13-.74.75.15-.16.73zm-8.02.03l-.17-.74.75-.15.14.74-.72.15zm9.44.35l-.71-.2.2-.73.73.21-.22.72zm-10.86.03l-.23-.72.74-.21.2.72-.71.2zm12.25.46c-.23-.1-.46-.18-.7-.26l.26-.7c.24.08.48.16.71.26l-.27.7zm-13.63.03l-.29-.7.72-.27.25.71-.68.26zm14.97.56l-.66-.3.3-.7.7.33-.34.67zm-16.31.04l-.34-.67.7-.32.3.68-.66.31zm17.6.67c-.2-.13-.42-.25-.63-.37l.35-.66c.23.13.45.25.67.39l-.39.64zm-18.88.04l-.4-.64.67-.38.36.65c-.21.12-.43.24-.63.37zm20.11.76l-.6-.41.4-.63.64.43-.44.61zm-21.34.05l-.44-.6c.21-.16.42-.3.63-.44l.42.62-.6.42zm22.5.85l-.56-.46.46-.59.59.48-.48.57zm-23.66.05l-.48-.57.6-.48.45.59-.57.46zm24.75.94a17.9 17.9 0 0 0-.53-.5l.5-.56.56.53-.53.53zm-25.83.06l-.53-.53.56-.53.5.55a17 17 0 0 0-.53.5zm26.84 1.02l-.5-.55.55-.51c.18.18.35.37.51.57l-.56.49zm-27.84.05l-.57-.48.51-.57.55.5-.49.55zm28.75 1.1l-.44-.59.58-.47.47.61-.6.44zm-29.66.06l-.6-.44.46-.61.58.46-.44.59zm30.48 1.15l-.4-.62.63-.41.41.64-.64.4zm-31.3.07l-.64-.39.42-.64.62.41a17 17 0 0 0-.4.62zm32.02 1.21c-.1-.22-.22-.43-.34-.65l.65-.36.36.67-.67.34zm-32.73.08l-.67-.34c.11-.23.23-.46.36-.68l.65.37-.34.65zm33.35 1.25l-.3-.67.68-.32.31.7-.7.29zm-33.96.09l-.7-.29.3-.7.69.31-.3.68zm34.47 1.29l-.24-.7.7-.25.25.72-.71.23zm-34.97.1l-.72-.24.25-.72.7.25-.23.7zm35.36 1.31l-.18-.7.72-.2.19.73-.73.17zm-35.75.1l-.73-.17.18-.74.73.2c-.07.23-.13.47-.18.7zm36.03 1.35l-.13-.73.74-.14c.05.25.1.5.13.75l-.74.12zm-36.3.1l-.74-.12.12-.75.74.14-.12.72zM64.2 30.6a18.1 18.1 0 0 0-.07-.74l.75-.08.07.76-.75.06zm-36.62.1l-.75-.06.07-.76.75.08-.07.73zM65 32.06h-.75v-.15l-.01-.59.75-.02v.76zm-38.2.1v-.25-.51l.75.02v.73l-.75.01zm38.12 1.43l-.74-.07.05-.73.75.04-.06.76zm-38.05.1l-.05-.76.75-.04.05.73-.75.07zm37.86 1.42l-.74-.13c.04-.24.08-.48.1-.72l.75.09-.1.76zm-37.65.1c-.05-.26-.09-.5-.12-.76l.74-.1.11.73-.73.12zm37.34 1.4l-.73-.19.16-.71.74.15-.17.75zm-37.02.09l-.18-.74.74-.16.16.71-.72.19zm36.58 1.37l-.7-.24.21-.7.72.21-.23.73zm-36.14.1a21.6 21.6 0 0 1-.23-.73l.71-.22.23.7-.71.24zm35.59 1.33l-.69-.3c.1-.22.2-.45.28-.68l.7.27c-.1.24-.19.48-.3.71zm-35.03.09l-.3-.7.7-.28.28.67-.68.3zm.67 1.37l-.35-.68.67-.33.34.65-.66.36zm.77 1.31l-.4-.65.65-.38.38.62-.63.41zm.89 1.25l-.46-.62.62-.43.43.6-.6.45zm.97 1.17l-.5-.57.58-.48.48.55-.56.5zm1.07 1.1l-.54-.54.53-.52.53.51-.52.55zm1.15 1c-.2-.16-.4-.32-.58-.49l.49-.56.56.47-.47.58zm1.23.92l-.62-.45.44-.6.6.43-.42.62zm1.3.8a20.2 20.2 0 0 1-.66-.39l.4-.63.63.38-.37.65zm1.36.71c-.23-.1-.46-.22-.69-.34l.35-.66.66.32-.32.68zm1.41.6l-.7-.29.28-.69.69.27-.27.7zm12.76.2l-.24-.7.7-.26.26.7c-.24.1-.48.18-.72.26zm-11.3.27l-.73-.22.23-.72.7.22-.2.72zm9.83.16l-.18-.73a19 19 0 0 0 .71-.19l.2.72-.73.2zm-8.34.2c-.25-.05-.5-.1-.75-.17l.18-.73.71.16-.14.74zm6.84.1l-.12-.73.72-.14.15.74a19 19 0 0 1-.75.14zm-5.33.13l-.76-.1.12-.74.73.1-.1.74zm3.81.06l-.06-.74.73-.08.1.75-.77.07zm-2.29.06a21.4 21.4 0 0 1-.76-.04l.06-.75.73.04-.03.75zm.77.01v-.75c.24 0 .49 0 .73-.02l.03.75-.76.02z" fill="#FFF"/><path d="M45.87 58.3a26.4 26.4 0 0 1-19.86-9l2.37-2.08a23.25 23.25 0 0 0 40.72-15.3A23.26 23.26 0 0 0 45.87 8.68c-12.2 0-22.4 9.53-23.19 21.7l-3.14-.21A26.44 26.44 0 0 1 45.87 5.53a26.42 26.42 0 0 1 26.38 26.39A26.42 26.42 0 0 1 45.87 58.3" fill="#FF3EDA"/><path d="M45.9 63.84a31.96 31.96 0 0 1-31.93-31.92A31.96 31.96 0 0 1 56.08 1.66l-.36 1.3-.04-.01a30.58 30.58 0 1 0-9.79 59.54 30.6 30.6 0 0 0 27.42-44.1l1.21-.6a32.03 32.03 0 0 1 3.3 14.13 31.96 31.96 0 0 1-31.93 31.92" fill="#FFF"/></g></svg>