<?xml version="1.0" encoding="UTF-8"?>
<svg width="22px" height="15px" viewBox="0 0 22 15" version="1.1" xmlns="http://www.w3.org/2000/svg" xmlns:xlink="http://www.w3.org/1999/xlink">
	<path d="M12.25,17.1905263 L18.1896552,11.0983158 C18.6034483,10.6738947 18.6034483,9.99305263 18.1896552,9.56863158 C17.7758621,9.14421053 17.112069,9.14421053 16.6982759,9.56863158 L12.5603448,13.8128421 L12.5603448,-2.41242105 C12.5603448,-3.01368421 12.0862069,-3.5 11.5,-3.5 C10.9137931,-3.5 10.4396552,-3.01368421 10.4396552,-2.41242105 L10.4396552,13.804 L6.30172414,9.55978947 C5.88793103,9.13536842 5.22413793,9.13536842 4.81034483,9.55978947 C4.39655172,9.98421053 4.39655172,10.6650526 4.81034483,11.0894737 L10.75,17.1816842 C10.9568966,17.3938947 11.2241379,17.5 11.5,17.5 C11.7758621,17.5 12.0431034,17.4027368 12.25,17.1905263 Z" id="Shape" transform="translate(11.500000, 7.000000) rotate(-270.000000) translate(-11.500000, -7.000000) "></path>
</svg>