<svg viewBox="0 0 52 52" xmlns="http://www.w3.org/2000/svg"><g stroke-width="2" fill="none" fill-rule="evenodd"><path d="M26 19V5" stroke="#C888FF"/><path d="M15 4h9M15 4a2 2 0 1 1-4 0 2 2 0 0 1 4 0zM28 4h9M37 4a2 2 0 1 0 4 0 2 2 0 0 0-4 0z" stroke="#885AFA"/><path stroke="#C888FF" d="M24 5V2h4v3"/><path d="M27 18.5a1 1 0 1 1-2 0 1 1 0 0 1 2 0" stroke="#885AFA"/><path d="M21 35v6a5 5 0 0 1-5 5M31 35v6a5 5 0 0 0 5 5" stroke="#C888FF" stroke-linecap="round" stroke-linejoin="round"/><path d="M19 32h14" stroke="#885AFA" stroke-linecap="round"/><path d="M36 32h14M3 32h14" stroke="#885AFA" stroke-linecap="round" stroke-dasharray="1,3"/><path d="M24 6h4" stroke="#C888FF"/><path d="M44 4h5v10.83h-4A3.83 3.83 0 0 0 41.17 11H30M8 4H3v10.83h4A3.83 3.83 0 0 1 10.83 11H22M6 49h40" stroke="#885AFA" stroke-linecap="round"/><path d="M28 5c0 2.08.37 3.63 1.1 5.54l3.1 8.25c1.72 4.6.6 6.92-2.78 10.21M24 5c0 2.08-.34 3.63-1.06 5.54L19.8 18.8c-1.74 4.6-.62 6.92 2.8 10.21" stroke="#C888FF" stroke-linecap="round" stroke-linejoin="round"/></g></svg>