<svg xmlns="http://www.w3.org/2000/svg" xmlns:xlink="http://www.w3.org/1999/xlink" width="44" height="44">
    <path d="M2.7 19.06a15.9 15.9 0 0 0 4.05 7.12v8.7a1.12 1.12 0 1 0 2.25 0v-6.94c.17.1.34.21.52.3 1.22.64 2.57 1.01 3.98 1.01 1.42 0 2.76-.37 3.98-1 .18-.1.35-.22.52-.33v6.95a1.12 1.12 0 1 0 2.25 0v-8.7c.66-.65 1.27-1.36 1.8-2.14.1-.14.17-.29.26-.43l.69-.25a8.73 8.73 0 0 0 2.76-1.66c.36-.34.67-.72.89-1.15.22-.43.35-.92.35-1.42v-4.5c0-2.3-.14-4.33-.54-6.14-.3-1.36-.73-2.58-1.38-3.66a8.83 8.83 0 0 0-4.35-3.67C18.8.36 16.43 0 13.5 0c-2.61 0-4.77.29-6.57.9A9.63 9.63 0 0 0 3.5 2.89 9.87 9.87 0 0 0 .7 7.8C.18 9.78 0 12.04 0 14.63c0 .14.03.27.08.4a3.38 3.38 0 0 0 2.62 4.03zm13.74 7.19c-.94.48-1.92.75-2.94.75-1.01 0-2-.27-2.94-.75a10.56 10.56 0 0 1-3.75-3.5 13.7 13.7 0 0 1-2.1-4.99 1.13 1.13 0 0 0-1.22-.9l-.13.01a1.13 1.13 0 0 1-1.1-1.12c0-.62.5-1.12 1.12-1.13.85 0 1.66-.26 2.35-.7a6.65 6.65 0 0 0 2.4-2.93c.36-.8.61-1.7.75-2.65 1.43.44 3.02.66 4.62.66s3.19-.21 4.62-.66c.2 1.44.68 2.74 1.39 3.8a6.02 6.02 0 0 0 1.76 1.78c.7.44 1.5.7 2.36.7a1.13 1.13 0 0 1 .02 2.25l-.14-.01c-.57-.06-1.1.33-1.21.9-.26 1.34-.78 2.7-1.47 3.94l-.86.23a24.3 24.3 0 0 1-5.34.57 1.12 1.12 0 1 0 0 2.25c1.47 0 2.88-.12 4.2-.32a9.41 9.41 0 0 1-2.39 1.82zm8.2-6.73c-.1.22-.35.5-.74.8.15-.42.28-.84.39-1.26.16-.03.3-.09.46-.14v.2c0 .12-.02.24-.1.4zM3.86 5.98a6.53 6.53 0 0 1 3.28-2.75c1.53-.63 3.62-.98 6.37-.98 2.45 0 4.37.28 5.84.78 1.1.38 1.96.89 2.64 1.5a7.64 7.64 0 0 1 2.15 3.86c.31 1.18.49 2.58.57 4.18-.34-.12-.7-.2-1.07-.2-.4 0-.77-.11-1.15-.35a4.45 4.45 0 0 1-1.56-1.96 8.13 8.13 0 0 1-.67-3.3v-.03c0-.08-.03-.15-.05-.22-.02-.08-.02-.15-.05-.22l-.01-.02-.1-.13c-.04-.07-.09-.14-.15-.2-.05-.05-.12-.08-.18-.12-.06-.04-.11-.08-.18-.11-.08-.03-.16-.04-.24-.05-.06-.01-.1-.04-.16-.04l-.03.01c-.07 0-.14.03-.21.04-.08.02-.16.03-.23.06h-.02a12.23 12.23 0 0 1-5.13 1.02c-1.9 0-3.8-.36-5.14-1.01h-.02c-.07-.04-.15-.05-.22-.07-.08-.01-.15-.04-.22-.04h-.03c-.06 0-.1.02-.16.03-.08.01-.16.02-.24.05-.07.02-.13.07-.2.1l-.16.12c-.07.06-.11.13-.16.2l-.1.13v.02c-.03.07-.04.15-.06.22-.01.08-.04.15-.04.22v.03a7.6 7.6 0 0 1-1.13 4.14c-.34.5-.72.88-1.1 1.13-.39.24-.76.35-1.15.35-.38 0-.74.07-1.07.19.06-1.34.2-2.56.43-3.6a9.75 9.75 0 0 1 1.11-2.98z"/>
</svg>