<svg xmlns="http://www.w3.org/2000/svg" width="50" height="50">
<g stroke="none">
  <path stroke="none" d="M34.6 10.64c-8.54 0-15.4-2.06-15.4-5.32C19.2 2.06 26.06 0 34.6 0S50 2.06 50 5.32c0 3.26-6.86 5.32-15.4 5.32zm0-2c3.78 0 7.31-.45 9.9-1.22 2.28-.69 3.5-1.55 3.5-2.1s-1.22-1.41-3.5-2.1A36.11 36.11 0 0 0 34.6 2c-3.78 0-7.31.45-9.9 1.22-2.28.69-3.5 1.55-3.5 2.1s1.22 1.41 3.5 2.1c2.59.77 6.12 1.22 9.9 1.22z"/>
  <path stroke="none" d="M19.2 11.64a1 1 0 0 1 2 0c0 .44 1.22 1.24 3.5 1.88a38.6 38.6 0 0 0 9.9 1.14c3.77 0 7.3-.42 9.9-1.14 2.28-.64 3.5-1.44 3.5-1.88a1 1 0 0 1 2 0c0 3.1-6.87 5.02-15.4 5.02-8.53 0-15.4-1.92-15.4-5.02zm0 6.31a1 1 0 1 1 2 0c0 .44 1.22 1.24 3.5 1.88a38.6 38.6 0 0 0 9.9 1.15c3.77 0 7.3-.43 9.9-1.15 2.28-.64 3.5-1.44 3.5-1.88a1 1 0 1 1 2 0c0 3.1-6.87 5.03-15.4 5.03-8.53 0-15.4-1.93-15.4-5.03zm0 6.31a1 1 0 0 1 2 0c0 .44 1.22 1.24 3.5 1.88a38.6 38.6 0 0 0 9.9 1.15c3.77 0 7.3-.42 9.9-1.15 2.28-.64 3.5-1.44 3.5-1.88a1 1 0 0 1 2 0c0 3.1-6.87 5.03-15.4 5.03-8.53 0-15.4-1.92-15.4-5.03zm10.5 11.1a1 1 0 0 1 .2-2c1.49.16 3.05.24 4.7.24 3.77 0 7.3-.42 9.9-1.15 2.28-.63 3.5-1.44 3.5-1.87a1 1 0 0 1 2 0c0 3.1-6.87 5.02-15.4 5.02-1.71 0-3.35-.08-4.9-.24zm-8.5-7a1 1 0 1 1-2 0V5.8a1 1 0 0 1 2 0v22.57z"/>
  <path stroke="none" d="M48 4.84a1 1 0 0 1 2 0v31.49c0 3.1-6.87 5.03-15.4 5.03a47.4 47.4 0 0 1-4.9-.24 1 1 0 1 1 .2-2c1.49.16 3.05.24 4.7.24 3.77 0 7.3-.42 9.9-1.15 2.28-.64 3.5-1.44 3.5-1.88V4.84zM15.4 37.52C6.86 37.52 0 35.46 0 32.2c0-3.26 6.86-5.32 15.4-5.32s15.4 2.06 15.4 5.32c0 3.26-6.86 5.32-15.4 5.32zm0-2c3.78 0 7.31-.45 9.9-1.22 2.28-.69 3.5-1.55 3.5-2.1s-1.22-1.41-3.5-2.1a36.11 36.11 0 0 0-9.9-1.22c-3.78 0-7.31.45-9.9 1.22-2.28.69-3.5 1.55-3.5 2.1s1.22 1.41 3.5 2.1c2.59.77 6.12 1.22 9.9 1.22z"/>
  <path stroke="none" d="M0 38.44a1 1 0 0 1 2 0c0 .38 1.21 1.14 3.46 1.74 2.59.7 6.13 1.1 9.94 1.1 3.8 0 7.35-.4 9.94-1.1 2.25-.6 3.46-1.36 3.46-1.74a1 1 0 0 1 2 0c0 3.02-6.8 4.84-15.4 4.84-8.6 0-15.4-1.82-15.4-4.84z"/>
  <path stroke="none" d="M28.8 31.72a1 1 0 0 1 2 0v13.1C30.8 48 23.91 50 15.4 50 6.89 50 0 48 0 44.82V32.05a1 1 0 0 1 2 0v12.77c0 .5 1.22 1.33 3.5 2 2.6.74 6.14 1.18 9.9 1.18 3.76 0 7.3-.44 9.9-1.19 2.28-.66 3.5-1.5 3.5-1.99v-13.1z"/>
</g>
  </svg>