<?xml version="1.0" encoding="UTF-8"?>
<svg width="52px" height="52px" viewBox="0 0 52 52" version="1.1" xmlns="http://www.w3.org/2000/svg" xmlns:xlink="http://www.w3.org/1999/xlink">
    <!-- Generator: sketchtool 52.4 (67378) - http://www.bohemiancoding.com/sketch -->
    <title>340ACDD7-9756-4094-B25D-97867173C967</title>
    <desc>Created with sketchtool.</desc>
    <g id="Symbols" stroke="none" stroke-width="1" fill="none" fill-rule="evenodd">
        <g id="icon/design" stroke-width="2">
            <path d="M16,36 L3,36 L3,39 C3,40.104 3.896,41 5,41 L21,41" id="Stroke-34" stroke="#885AFA" stroke-linecap="round" stroke-linejoin="round"></path>
            <polyline id="Stroke-1" stroke="#FF1DB0" stroke-linecap="round" stroke-linejoin="round" points="37 32 37 22.655 41 12 45 22.655 45 32"></polyline>
            <path d="M49,33 L49,6 C49,4.896 48.104,4 47,4 L44,4" id="Stroke-2" stroke="#885AFA" stroke-linecap="round" stroke-linejoin="round"></path>
            <path d="M36,36 L49,36 L49,39 C49,40.104 48.104,41 47,41 L34,41" id="Stroke-4" stroke="#885AFA" stroke-linecap="round" stroke-linejoin="round"></path>
            <path d="M8,4 L5,4 C3.896,4 3,4.896 3,6 L3,36" id="Stroke-6" stroke="#885AFA" stroke-linecap="round" stroke-linejoin="round"></path>
            <path d="M26,19 L26,5" id="Stroke-8" stroke="#FF1DB0" stroke-linecap="round" stroke-linejoin="round"></path>
            <path d="M27,18.5 C27,19.0526667 26.5526667,19.5 26,19.5 C25.4473333,19.5 25,19.0526667 25,18.5 C25,17.9473333 25.4473333,17.5 26,17.5 C26.5526667,17.5 27,17.9473333 27,18.5" id="Fill-16" stroke="#885AFA"></path>
            <path d="M28,5 C28,7.075 28.371,8.629 29.091,10.544 L32.193,18.79 C33.925,23.396 32.809,28.714 29.418,32" id="Stroke-10" stroke="#FF1DB0" stroke-linecap="round" stroke-linejoin="round"></path>
            <path d="M24,5 C24,7.075 23.662,8.629 22.937,10.544 L19.813,18.79 C18.068,23.396 19.193,28.714 22.607,32" id="Stroke-12" stroke="#FF1DB0" stroke-linecap="round" stroke-linejoin="round"></path>
            <path d="M15,4 L24,4" id="Stroke-14" stroke="#885AFA" stroke-linecap="round" stroke-linejoin="round"></path>
            <path d="M15,4 C15,5.104 14.104,6 13,6 C11.896,6 11,5.104 11,4 C11,2.896 11.896,2 13,2 C14.104,2 15,2.896 15,4 Z" id="Stroke-16" stroke="#885AFA" stroke-linecap="round" stroke-linejoin="round"></path>
            <path d="M28,4 L37,4" id="Stroke-18" stroke="#885AFA" stroke-linecap="round" stroke-linejoin="round"></path>
            <path d="M37,4 C37,5.104 37.896,6 39,6 C40.104,6 41,5.104 41,4 C41,2.896 40.104,2 39,2 C37.896,2 37,2.896 37,4 Z" id="Stroke-20" stroke="#885AFA" stroke-linecap="round" stroke-linejoin="round"></path>
            <polyline id="Stroke-22" stroke="#FF1DB0" stroke-linecap="round" stroke-linejoin="round" points="24 5 24 2 28 2 28 5"></polyline>
            <path d="M21,36.625 L21,48" id="Stroke-26" stroke="#FF1DB0" stroke-linecap="round" stroke-linejoin="round"></path>
            <path d="M31,36.0005 L31,48.0005" id="Stroke-28" stroke="#FF1DB0" stroke-linecap="round" stroke-linejoin="round"></path>
            <path d="M19,32 L33,32" id="Stroke-30" stroke="#FF1DB0" stroke-linecap="round" stroke-linejoin="round"></path>
            <path d="M19,36 L33,36" id="Stroke-32" stroke="#885AFA" stroke-linecap="round" stroke-linejoin="round"></path>
            <path d="M6,48 L46,48" id="Stroke-36" stroke="#885AFA" stroke-linecap="round" stroke-linejoin="round"></path>
            <path d="M37,22.6553 L45,22.6553" id="Stroke-38" stroke="#FF1DB0" stroke-linecap="round" stroke-linejoin="round"></path>
            <polyline id="Stroke-40" stroke="#FF1DB0" stroke-linecap="round" stroke-linejoin="round" points="7 32 7 10 15 10 15 32"></polyline>
            <path d="M10,16 L15,16" id="Stroke-42" stroke="#FF1DB0" stroke-linecap="round" stroke-linejoin="round"></path>
            <path d="M12,20 L15,20" id="Stroke-44" stroke="#FF1DB0" stroke-linecap="round" stroke-linejoin="round"></path>
            <path d="M12,24 L15,24" id="Stroke-46" stroke="#FF1DB0" stroke-linecap="round" stroke-linejoin="round"></path>
            <path d="M12,28 L15,28" id="Stroke-48" stroke="#FF1DB0" stroke-linecap="round" stroke-linejoin="round"></path>
            <path d="M10,32 L15,32" id="Stroke-50" stroke="#FF1DB0" stroke-linecap="round" stroke-linejoin="round"></path>
            <path d="M24,6 L28,6" id="Stroke-52" stroke="#FF1DB0" stroke-linecap="round" stroke-linejoin="round"></path>
        </g>
    </g>
</svg>