<svg xmlns="http://www.w3.org/2000/svg" xmlns:xlink="http://www.w3.org/1999/xlink" width="44" height="44">
    <path d="M31 6h-6.75c.49-.35.9-.73 1.2-1.15.35-.51.55-1.1.55-1.68 0-.8-.38-1.53-.92-2.06C24.38.4 23.38 0 22.3 0c-.98 0-2.02.33-3.03.98-.61.4-1.1.95-1.53 1.54A16.34 16.34 0 0 0 16 5.77c-.16-.4-.39-.9-.67-1.45-.3-.58-.66-1.21-1.09-1.8A5.6 5.6 0 0 0 9.68 0a3.9 3.9 0 0 0-2.77 1.1A2.9 2.9 0 0 0 6 3.17c0 .58.2 1.16.55 1.67.3.43.7.8 1.2 1.16H1a1 1 0 0 0-1 1v6a1 1 0 0 0 1 1h1v13a1 1 0 0 0 1 1h26a1 1 0 0 0 1-1V14h1a1 1 0 0 0 1-1V7a1 1 0 0 0-1-1zm-12.46-.96c.26-.5.57-1 .89-1.43A3.6 3.6 0 0 1 22.3 2c.59 0 1.03.2 1.36.53.26.26.32.46.32.64 0 .13-.03.3-.2.54-.16.24-.45.53-.91.83-.3.2-.89.43-1.55.6-1 .27-2.18.45-3.12.55l.33-.65zM8.32 2.53C8.65 2.2 9.1 2 9.68 2c.53 0 1.2.18 1.94.66.3.2.67.57 1 1.04.45.6.85 1.35 1.16 2a28.1 28.1 0 0 1-1.53-.22 16.6 16.6 0 0 1-1.83-.4 5.17 5.17 0 0 1-1.3-.53c-.47-.3-.76-.6-.92-.84a.98.98 0 0 1-.2-.54c0-.18.06-.38.32-.64zM15 8v4H2V8h13zM4 14h11v12H4V14zm24 12H17V14h11v12zm2-14H17V8h13v4z"/>

</svg>