<?xml version="1.0" encoding="UTF-8"?>
<svg width="52px" height="52px" viewBox="0 0 52 52" version="1.1" xmlns="http://www.w3.org/2000/svg" xmlns:xlink="http://www.w3.org/1999/xlink">
    <!-- Generator: sketchtool 52.4 (67378) - http://www.bohemiancoding.com/sketch -->
    <title>2F052F2D-F25B-4379-8DEF-EF52317E18BA</title>
    <desc>Created with sketchtool.</desc>
    <g id="Symbols" stroke="none" stroke-width="1" fill="none" fill-rule="evenodd">
        <g id="icon/html">
            <path d="M2,33 L2,5 C2,3.896 2.896,3 4,3 L46,3 C47.104,3 48,3.896 48,5 L48,17" id="Stroke-1" stroke="#885AFA" stroke-width="2"></path>
            <polygon id="Stroke-5" stroke="#885AFA" stroke-width="2" stroke-linecap="round" stroke-linejoin="round" points="7 13 11 13 11 9 7 9"></polygon>
            <polygon id="Stroke-5-Copy-5" stroke="#885AFA" stroke-width="2" stroke-linecap="round" stroke-linejoin="round" points="7 25 11 25 11 21 7 21"></polygon>
            <polygon id="Stroke-5-Copy-2" stroke="#885AFA" stroke-width="2" stroke-linecap="round" stroke-linejoin="round" points="23 13 27 13 27 9 23 9"></polygon>
            <polygon id="Stroke-5-Copy-6" stroke="#885AFA" stroke-width="2" stroke-linecap="round" stroke-linejoin="round" points="23 25 27 25 27 21 23 21"></polygon>
            <polygon id="Stroke-5-Copy" stroke="#885AFA" stroke-width="2" stroke-linecap="round" stroke-linejoin="round" points="15 13 19 13 19 9 15 9"></polygon>
            <polygon id="Stroke-5-Copy-7" stroke="#885AFA" stroke-width="2" stroke-linecap="round" stroke-linejoin="round" points="15 25 19 25 19 21 15 21"></polygon>
            <polygon id="Stroke-5-Copy-3" stroke="#885AFA" stroke-width="2" stroke-linecap="round" stroke-linejoin="round" points="31 13 35 13 35 9 31 9"></polygon>
            <polygon id="Stroke-5-Copy-4" stroke="#885AFA" stroke-width="2" stroke-linecap="round" stroke-linejoin="round" points="39 13 43 13 43 9 39 9"></polygon>
            <path d="M7,16 L11,16" id="Stroke-20" stroke="#885AFA" stroke-width="2" stroke-linecap="round" stroke-linejoin="round"></path>
            <path d="M7,28 L11,28" id="Stroke-20-Copy-5" stroke="#885AFA" stroke-width="2" stroke-linecap="round" stroke-linejoin="round"></path>
            <path d="M23,16 L27,16" id="Stroke-20-Copy-2" stroke="#885AFA" stroke-width="2" stroke-linecap="round" stroke-linejoin="round"></path>
            <path d="M23,28 L27,28" id="Stroke-20-Copy-6" stroke="#885AFA" stroke-width="2" stroke-linecap="round" stroke-linejoin="round"></path>
            <path d="M15,16 L19,16" id="Stroke-20-Copy" stroke="#885AFA" stroke-width="2" stroke-linecap="round" stroke-linejoin="round"></path>
            <path d="M15,28 L19,28" id="Stroke-20-Copy-7" stroke="#885AFA" stroke-width="2" stroke-linecap="round" stroke-linejoin="round"></path>
            <path d="M31,16 L35,16" id="Stroke-20-Copy-3" stroke="#885AFA" stroke-width="2" stroke-linecap="round" stroke-linejoin="round"></path>
            <path d="M39,16 L43,16" id="Stroke-20-Copy-4" stroke="#885AFA" stroke-width="2" stroke-linecap="round" stroke-linejoin="round"></path>
            <path d="M29,38 L4,38 C2.896,38 2,37.104 2,36 L2,33 L29,33" id="Stroke-3" stroke="#885AFA" stroke-width="2"></path>
            <polyline id="Stroke-5" stroke="#885AFA" stroke-width="2" points="20 38 20 39 19 44 19 45"></polyline>
            <path d="M16,45 L29,45" id="Stroke-7" stroke="#885AFA" stroke-width="2"></path>
            <path d="M31,21 C31,19.896 31.896,19 33,19 L48,19 C49.104,19 50,19.896 50,21 L50,47 C50,48.104 49.104,49 48,49 L33,49 C31.896,49 31,48.104 31,47 L31,21 Z" id="Stroke-9" stroke="#FF1DB0" stroke-width="2"></path>
            <path d="M41.5,45.5 C41.5,45.7763333 41.2763333,46 41,46 C40.7236667,46 40.5,45.7763333 40.5,45.5 C40.5,45.2236667 40.7236667,45 41,45 C41.2763333,45 41.5,45.2236667 41.5,45.5" id="Fill-16" stroke="#885AFA"></path>
            <path d="M36.5,20 L36.5,21 C36.5,21.5522847 36.9477153,22 37.5,22 L43.5,22 C44.0522847,22 44.5,21.5522847 44.5,21 L44.5,20" id="Stroke-7" stroke="#FF1DB0" stroke-width="2"></path>
            <polygon id="Stroke-5" stroke="#885AFA" stroke-width="2" stroke-linecap="round" stroke-linejoin="round" points="35 29 39 29 39 25 35 25"></polygon>
            <polygon id="Stroke-5-Copy-9" stroke="#885AFA" stroke-width="2" stroke-linecap="round" stroke-linejoin="round" points="35 39 39 39 39 35 35 35"></polygon>
            <polygon id="Stroke-5-Copy-8" stroke="#885AFA" stroke-width="2" stroke-linecap="round" stroke-linejoin="round" points="42 29 46 29 46 25 42 25"></polygon>
            <polygon id="Stroke-5-Copy-10" stroke="#885AFA" stroke-width="2" stroke-linecap="round" stroke-linejoin="round" points="42 39 46 39 46 35 42 35"></polygon>
            <path d="M35,32 L39,32" id="Stroke-20" stroke="#885AFA" stroke-width="2" stroke-linecap="round" stroke-linejoin="round"></path>
            <path d="M35,42 L39,42" id="Stroke-20-Copy-9" stroke="#885AFA" stroke-width="2" stroke-linecap="round" stroke-linejoin="round"></path>
            <path d="M42,32 L46,32" id="Stroke-20-Copy-8" stroke="#885AFA" stroke-width="2" stroke-linecap="round" stroke-linejoin="round"></path>
            <path d="M42,42 L46,42" id="Stroke-20-Copy-10" stroke="#885AFA" stroke-width="2" stroke-linecap="round" stroke-linejoin="round"></path>
        </g>
    </g>
</svg>