<?xml version="1.0" encoding="utf-8"?>
<!-- Generator: Adobe Illustrator 21.1.0, SVG Export Plug-In . SVG Version: 6.00 Build 0)  -->
<svg version="1.1" id="Слой_1" xmlns="http://www.w3.org/2000/svg" xmlns:xlink="http://www.w3.org/1999/xlink" x="0px" y="0px"
	 viewBox="0 0 52 52" style="enable-background:new 0 0 52 52;" xml:space="preserve">
<style type="text/css">
	.st0{fill:none;stroke:#885AFA;stroke-width:2;}
	.st1{fill:none;stroke:#C888FF;stroke-width:2;stroke-linecap:round;}
	.st2{fill:none;stroke:#885AFA;stroke-width:2;stroke-linecap:round;}
	.st3{fill:none;stroke:#C888FF;stroke-width:2;stroke-miterlimit:10;}
</style>
<title>669D8595-4FA4-41CE-B29A-A1CC6DAE90AD</title>
<desc>Created with sketchtool.</desc>
<g id="Symbols">
	<g id="icon_x2F_design_x2F_mobile-linear">
		<path id="Stroke-7" class="st0" d="M14,41h24"/>
		<path id="Stroke-1" class="st1" d="M38,12h-2.3c-0.4,0-0.8,0.3-0.9,0.7l-0.5,1.4c-0.1,0.3-0.3,0.5-0.6,0.6l-1.4,0.6
			c-0.3,0.1-0.6,0.1-0.8,0l-1.4-0.7c-0.4-0.2-0.8-0.1-1.1,0.2l-1.2,1.2c-0.3,0.3-0.4,0.8-0.2,1.1l0.7,1.4c0.1,0.3,0.1,0.6,0,0.8
			l-0.6,1.4c-0.1,0.3-0.3,0.5-0.6,0.6l-1.4,0.5c-0.4,0.1-0.7,0.5-0.7,0.9v1.6c0,0.4,0.3,0.8,0.7,0.9l1.4,0.5
			c0.3,0.1,0.5,0.3,0.6,0.6l0.6,1.4c0.1,0.3,0.1,0.6,0,0.8l-0.7,1.4c-0.2,0.4-0.1,0.8,0.2,1.1l1.2,1.2c0.3,0.3,0.8,0.4,1.1,0.2
			l1.4-0.7c0.3-0.1,0.5-0.1,0.8,0l1.4,0.6c0.3,0.1,0.5,0.3,0.6,0.6L35,35"/>
		<path id="Stroke-3" class="st2" d="M22.7,5l0.7,1.8c0.1,0.3,0.3,0.5,0.6,0.6l1.3,0.5C25.7,8,26,8.4,26,8.8v1.6
			c0,0.4-0.3,0.8-0.7,0.9L24,11.8c-0.3,0.1-0.5,0.3-0.6,0.6l-0.6,1.4c-0.1,0.3-0.1,0.5,0,0.8l0.6,1.4c0.2,0.4,0.1,0.8-0.2,1.1
			l-1.1,1.1c-0.3,0.3-0.8,0.4-1.2,0.2l-1.3-0.6c-0.3-0.1-0.6-0.1-0.8,0l-1.3,0.6c-0.3,0.1-0.5,0.3-0.6,0.6l-0.5,1.4
			c-0.1,0.4-0.5,0.7-0.9,0.7H14"/>
		<path id="Stroke-5" class="st2" d="M34.7,21.6c0.9-0.7,2.3-0.8,3.3-0.1v3c-1,0.7-2.5,0.6-3.4-0.2C33.8,23.5,33.8,22.3,34.7,21.6z"
			/>
		<path id="Stroke-7_1_" class="st1" d="M14,7.6c0.9-0.8,2.4-0.7,3.3,0.1c0.9,0.8,0.9,2.1-0.1,2.8c-0.9,0.7-2.3,0.7-3.3,0V7.6z"/>
		<path id="Fill-11" class="st3" d="M26.5,44.5c0,0.3-0.2,0.5-0.5,0.5s-0.5-0.2-0.5-0.5S25.7,44,26,44S26.5,44.2,26.5,44.5"/>
		<path id="Stroke-9" class="st0" d="M14,7.2C14,5.4,15.4,4,17.2,4h17.7C36.6,4,38,5.4,38,7.2v37.6c0,1.8-1.4,3.2-3.2,3.2H17.2
			c-1.7,0-3.2-1.4-3.2-3.2V7.2z"/>
	</g>
</g>
</svg>
