<svg xmlns="http://www.w3.org/2000/svg" viewBox="0 0 512 512">
  <path d="M363.27 0H148.73C66.72 0 0 66.72 0 148.73v214.54C0 445.28 66.72 512 148.73 512h214.54C445.28 512 512 445.28 512 363.27V148.73C512 66.72 445.28 0 363.27 0zM472 363.27C472 423.23 423.23 472 363.27 472H148.73C88.78 472 40 423.23 40 363.27V148.73C40 88.78 88.78 40 148.73 40h214.54C423.23 40 472 88.78 472 148.73v214.54z"/>
  <path d="M256 118c-76.1 0-138 61.9-138 138s61.9 138 138 138 138-61.9 138-138-61.9-138-138-138zm0 236c-54.04 0-98-43.96-98-98s43.96-98 98-98 98 43.96 98 98-43.96 98-98 98z"/>
  <circle cx="396" cy="116" r="20"/>
</svg>
