<svg xmlns="http://www.w3.org/2000/svg" enable-background="new 0 0 377.9 759.2" viewBox="0 0 377.9 759.2">
  <path fill="#fff" d="M1.9 224.8c-.6.2-1.3.6-1.7 1.2-.1.1-.1.5-.1.6v51.7c0 .1.1.7.1.9.3.9.9 1.1 1.7 1.5H3v-55.9H1.9zm0-70c-.6.2-1.3.6-1.7 1.2-.1.1-.1.5-.1.6v51.7c0 .1.1.7.1.9.3.9.9 1.1 1.7 1.5H3v-55.9H1.9zm0-53.6c-1 0-1.9.9-1.9 2.1v25.3c0 1.1.8 2.1 1.9 2.1H3v-29.4H1.9zM376.1 173c.6.2 1.3.6 1.7 1.2.1.1.1.5.1.6v84.6c0 .1-.1.7-.1.9-.3.8-.9 1.1-1.7 1.5H375v-88.9h1.1z"/>
  <defs>
    <filter id="a" filterUnits="userSpaceOnUse">
      <feColorMatrix values="1 0 0 0 0 0 1 0 0 0 0 0 1 0 0 0 0 0 1 0"/>
    </filter>
  </defs>
  <path d="M310.5 0h-243C22.8 0 2.4 21.2 2.4 65.1v629.1c0 43.9 20.5 65.1 65.1 65.1h243c43.2 0 65.1-22.6 65.1-65.1V65.1c0-43.9-20.5-65.1-65.1-65.1zm44.9 698.6c0 12-3.6 21.7-10.3 28.4-6.7 6.7-16.4 10.3-28.4 10.3H61.8c-12 0-21.7-3.6-28.4-10.3-6.7-6.7-10.3-16.4-10.3-28.4V58.9c0-12 3.6-21.7 10.3-28.4 6.7-6.7 16.4-10.3 28.4-10.3h28.6c3.5 0 5.4 1 6.3 2.7.5.8.7 1.7.8 2.7.1 1 .1 2 .1 3 0 8 6.1 18.1 20.2 18.1H261c7.1 0 12.1-2.5 15.4-6.1 3.3-3.6 4.8-8.2 4.8-12.3v-.1c0-1.8 0-3.9.9-5.4 1-1.6 2.8-2.6 6.3-2.6h28.3c12 0 21.7 3.6 28.4 10.3 6.7 6.7 10.3 16.4 10.3 28.4v639.7z" class="st0"/>
  <defs>
    <filter id="b" width="331.8" height="718.4" x="23.4" y="18.1" filterUnits="userSpaceOnUse">
      <feColorMatrix values="1 0 0 0 0 0 1 0 0 0 0 0 1 0 0 0 0 0 1 0"/>
    </filter>
  </defs>
  <mask id="c" width="331.8" height="718.4" x="23.4" y="18.1" maskUnits="userSpaceOnUse">
    <path fill="#fff" stroke="#fff" stroke-width=".88" d="M281.2 28.3c0 4.1-1.5 8.7-4.8 12.3-3.3 3.6-8.3 6.1-15.4 6.1H117.8c-14.1 0-20.2-10.1-20.2-18.1 0-1 0-2-.1-3s-.3-1.9-.8-2.7c-1-1.7-2.8-2.7-6.3-2.7H61.8c-12 0-21.7 3.6-28.4 10.3-6.7 6.7-10.3 16.4-10.3 28.4v639.8c0 12 3.6 21.7 10.3 28.4 6.7 6.7 16.4 10.3 28.4 10.3h254.8c12 0 21.7-3.6 28.4-10.3 6.7-6.7 10.3-16.4 10.3-28.4V58.9c0-12-3.6-21.7-10.3-28.4-6.7-6.7-16.4-10.3-28.4-10.3h-28.3c-3.5 0-5.4 1-6.3 2.6-.8 1.5-.8 3.5-.8 5.5z" filter="url(#b)"/>
  </mask>
  <g mask="url(#c)">
    <path fill="none" d="M23.4 18.1h331.8v718.4H23.4z"/>
  </g>
  <path fill="#f8f8f8" d="M229 34.1c2.9 0 5.3-2.4 5.3-5.3s-2.4-5.3-5.3-5.3-5.3 2.4-5.3 5.3c0 3 2.4 5.3 5.3 5.3z"/>
  <path fill="none" stroke="#e1e1e1" stroke-width="1.12" d="M229 34.1c2.9 0 5.3-2.4 5.3-5.3s-2.4-5.3-5.3-5.3-5.3 2.4-5.3 5.3c0 3 2.4 5.3 5.3 5.3z"/>
  <path fill="#f8f8f8" d="M168.4 25.9h40.5a3 3 0 0 1 3 3 3 3 0 0 1-3 3h-40.5a3 3 0 0 1-3-3 3 3 0 0 1 3-3z"/>
  <path fill="none" stroke="#e1e1e1" stroke-width="1.12" d="M168.4 25.9h40.5a3 3 0 0 1 3 3 3 3 0 0 1-3 3h-40.5a3 3 0 0 1-3-3 3 3 0 0 1 3-3z"/>
</svg>