<svg width="381px" height="762px" viewBox="0 0 381 762" version="1.1" xmlns="http://www.w3.org/2000/svg" xmlns:xlink="http://www.w3.org/1999/xlink">
    <defs>
        <rect id="path-1" x="166" y="26" width="47" height="6" rx="3"></rect>
    </defs>
    <g id="Symbols" stroke="none" stroke-width="1" fill="none" fill-rule="evenodd">
        <g id="iPhone-XS-Copy-3">
            <g id="Device">
                <g id="Body" transform="translate(3.000000, 0.000000)">
                    <path d="M65.4104183,2.27373675e-13 L309.589582,2.27373675e-13 C354.434314,2.27373675e-13 375,21.2333599 375,65.3227308 L375,696.677269 C375,739.26964 352.972382,762 309.589582,762 L65.4104183,762 C20.5656864,762 0,740.76664 0,696.677269 L0,65.3227308 C0,21.2333599 20.5656864,2.27373675e-13 65.4104183,2.27373675e-13 Z M57.9422222,19 C33.6587418,19 19,33.5558405 19,57.6688559 L19,704.331144 C19,728.444159 33.6587418,743 57.9422222,743 L317.057778,743 C341.341258,743 356,728.444159 356,704.331144 L356,57.6688559 C356,33.5558405 341.341258,19 317.057778,19 L57.9422222,19 Z" id="Combined-Shape" fill="#EFF1F3"></path>
                    <path d="M66.0615627,1 L308.938437,1 C353.543997,1 374,22.1776293 374,66.1512801 L374,695.84872 C374,738.3293 352.089862,761 308.938437,761 L66.0615627,761 C21.4560027,761 1,739.822371 1,695.84872 L1,66.1512801 C1,22.1776293 21.4560027,1 66.0615627,1 Z M57.9422222,19 C33.6587418,19 19,33.5558405 19,57.6688559 L19,704.331144 C19,728.444159 33.6587418,743 57.9422222,743 L317.057778,743 C341.341258,743 356,728.444159 356,704.331144 L356,57.6688559 C356,33.5558405 341.341258,19 317.057778,19 L57.9422222,19 Z" id="Combined-Shape" fill="#F1F3F6"></path>
                    <path d="M66.7127072,2 L308.287293,2 C352.653681,2 373,23.1218987 373,66.9798293 L373,695.020171 C373,737.38896 351.207343,760 308.287293,760 L66.7127072,760 C22.3463191,760 2,738.878101 2,695.020171 L2,66.9798293 C2,23.1218987 22.3463191,2 66.7127072,2 Z M57.9422222,19 C33.6587418,19 19,33.5558405 19,57.6688559 L19,704.331144 C19,728.444159 33.6587418,743 57.9422222,743 L317.057778,743 C341.341258,743 356,728.444159 356,704.331144 L356,57.6688559 C356,33.5558405 341.341258,19 317.057778,19 L57.9422222,19 Z" id="Combined-Shape" fill="#F3F5F7"></path>
                    <path d="M67.3638516,3 L307.636148,3 C351.763365,3 372,24.0661681 372,67.8083786 L372,694.191621 C372,736.44862 350.324824,759 307.636148,759 L67.3638516,759 C23.2366354,759 3,737.933832 3,694.191621 L3,67.8083786 C3,24.0661681 23.2366354,3 67.3638516,3 Z M57.9422222,19 C33.6587418,19 19,33.5558405 19,57.6688559 L19,704.331144 C19,728.444159 33.6587418,743 57.9422222,743 L317.057778,743 C341.341258,743 356,728.444159 356,704.331144 L356,57.6688559 C356,33.5558405 341.341258,19 317.057778,19 L57.9422222,19 Z" id="Combined-Shape" fill="#F6F7F8"></path>
                    <path d="M68.0149961,4 L306.985004,4 C350.873048,4 371,25.0104375 371,68.6369279 L371,693.363072 C371,735.508279 349.442304,758 306.985004,758 L68.0149961,758 C24.1269517,758 4,736.989563 4,693.363072 L4,68.6369279 C4,25.0104375 24.1269517,4 68.0149961,4 Z M57.9422222,19 C33.6587418,19 19,33.5558405 19,57.6688559 L19,704.331144 C19,728.444159 33.6587418,743 57.9422222,743 L317.057778,743 C341.341258,743 356,728.444159 356,704.331144 L356,57.6688559 C356,33.5558405 341.341258,19 317.057778,19 L57.9422222,19 Z" id="Combined-Shape" fill="#F8FAFA"></path>
                    <path d="M68.6661405,5 L306.33386,5 C349.982732,5 370,25.9547069 370,69.4654771 L370,692.534523 C370,734.567939 348.559785,757 306.33386,757 L68.6661405,757 C25.0172681,757 5,736.045293 5,692.534523 L5,69.4654771 C5,25.9547069 25.0172681,5 68.6661405,5 Z M57.9422222,19 C33.6587418,19 19,33.5558405 19,57.6688559 L19,704.331144 C19,728.444159 33.6587418,743 57.9422222,743 L317.057778,743 C341.341258,743 356,728.444159 356,704.331144 L356,57.6688559 C356,33.5558405 341.341258,19 317.057778,19 L57.9422222,19 Z" id="Combined-Shape" fill="#FBFBFC"></path>
                    <path d="M69.4917127,6 L306.508287,6 C350.037574,6 370,26.9268416 370,70.3797517 L370,692.620248 C370,734.597769 348.618525,757 306.508287,757 L69.4917127,757 C25.9624263,757 6,736.073158 6,692.620248 L6,70.3797517 C6,26.9268416 25.9624263,6 69.4917127,6 Z M57.9422222,19 C33.6587418,19 19,33.5558405 19,57.6688559 L19,704.331144 C19,728.444159 33.6587418,743 57.9422222,743 L317.057778,743 C341.341258,743 356,728.444159 356,704.331144 L356,57.6688559 C356,33.5558405 341.341258,19 317.057778,19 L57.9422222,19 Z" id="Combined-Shape" fill="#FBFCFD"></path>
                    <path d="M69.4917127,6 L306.508287,6 C350.037574,6 370,26.9268416 370,70.3797517 L370,692.620248 C370,734.597769 348.618525,757 306.508287,757 L69.4917127,757 C25.9624263,757 6,736.073158 6,692.620248 L6,70.3797517 C6,26.9268416 25.9624263,6 69.4917127,6 Z M57.9422222,19 C33.6587418,19 19,33.5558405 19,57.6688559 L19,704.331144 C19,728.444159 33.6587418,743 57.9422222,743 L317.057778,743 C341.341258,743 356,728.444159 356,704.331144 L356,57.6688559 C356,33.5558405 341.341258,19 317.057778,19 L57.9422222,19 Z" id="Combined-Shape" fill="#FCFDFE"></path>
                    <path d="M70.1428571,7 L305.857143,7 C349.147257,7 369,27.871111 369,71.208301 L369,691.791699 C369,733.657429 347.736006,756 305.857143,756 L70.1428571,756 C26.8527426,756 7,735.128889 7,691.791699 L7,71.208301 C7,27.871111 26.8527426,7 70.1428571,7 Z M57.9422222,19 C33.6587418,19 19,33.5558405 19,57.6688559 L19,704.331144 C19,728.444159 33.6587418,743 57.9422222,743 L317.057778,743 C341.341258,743 356,728.444159 356,704.331144 L356,57.6688559 C356,33.5558405 341.341258,19 317.057778,19 L57.9422222,19 Z" id="Combined-Shape" fill="#FDFDFD"></path>
                    <path d="M70.7940016,8 L305.205998,8 C348.256941,8 368,28.8153804 368,72.0368503 L368,690.96315 C368,732.717088 346.853487,755 305.205998,755 L70.7940016,755 C27.7430589,755 8,734.18462 8,690.96315 L8,72.0368503 C8,28.8153804 27.7430589,8 70.7940016,8 Z M57.9422222,19 C33.6587418,19 19,33.5558405 19,57.6688559 L19,704.331144 C19,728.444159 33.6587418,743 57.9422222,743 L317.057778,743 C341.341258,743 356,728.444159 356,704.331144 L356,57.6688559 C356,33.5558405 341.341258,19 317.057778,19 L57.9422222,19 Z" id="Combined-Shape" fill="#FEFFFF"></path>
                    <path d="M71.445146,9 L304.554854,9 C347.366625,9 367,29.7596498 367,72.8653995 L367,690.1346 C367,731.776748 345.970967,754 304.554854,754 L71.445146,754 C28.6333753,754 9,733.24035 9,690.1346 L9,72.8653995 C9,29.7596498 28.6333753,9 71.445146,9 Z M280.296,28.6910432 C280.296,37.2085597 274.019006,47.6228417 259.576,47.6228417 L115.72,47.6228417 C101.276994,47.6228417 95,37.2085597 95,28.9868525 C95,24.8884184 94.9999989,21 88.1920074,21 L59.48,21 C35.4847508,21 21,35.4754215 21,59.4552158 L21,702.544784 C21,726.524579 35.4847508,741 59.48,741 L315.52,741 C339.515249,741 354,726.524579 354,702.544784 L354,59.4552158 C354,35.4754215 339.515249,21 315.52,21 L287.104,21 C280.296,21 280.296,24.8884197 280.296,28.6910432 Z" id="Combined-Shape" fill="#FFFFFF"></path>
                </g>
                <path d="M1.90390745,226 C1.28488241,226.164708 0.54257925,226.586491 0.146217661,227.185607 C0.064576939,227.30901 0,227.699438 0,227.812315 C0,233.477141 0,250.731288 0,279.574753 C0,279.695247 0.0908942712,280.303968 0.146548415,280.451588 C0.467295279,281.302358 1.02459863,281.508172 1.90390745,282 L2.99185456,282 C2.99185456,280.449753 3.0101818,227.515419 2.99185456,226 L1.90390745,226 Z" id="Bttn" fill="#F8FAFA" fill-rule="nonzero"></path>
                <path d="M1.90390745,156 C1.28488241,156.164708 0.54257925,156.586491 0.146217661,157.185607 C0.064576939,157.30901 0,157.699438 0,157.812315 C0,163.477141 0,180.731288 0,209.574753 C0,209.695247 0.0908942712,210.303968 0.146548415,210.451588 C0.467295279,211.302358 1.02459863,211.508172 1.90390745,212 L2.99185456,212 C2.99185456,210.449753 3.0101818,157.515419 2.99185456,156 L1.90390745,156 Z" id="Bttn" fill="#F8FAFA" fill-rule="nonzero"></path>
                <path d="M1.90390745,102 C0.8524084,102 0,102.940202 0,104.1 L0,129.9 C0,131.059798 0.8524084,132 1.90390745,132 L2.99185456,132 C2.99185456,130.42207 3.0101818,103.54248 2.99185456,102 L1.90390745,102 Z" id="Bttn" fill="#F8FAFA" fill-rule="nonzero"></path>
                <path d="M379.903907,174 C379.284882,174.164688 378.542579,174.586422 378.146218,175.185467 C378.064577,175.308855 378,175.699237 378,175.812101 C378,181.476257 378,231.734985 378,260.57504 C378,260.69552 378.090894,261.304168 378.146548,261.451771 C378.467295,262.30244 379.024599,262.50823 379.903907,263 L380.991855,263 C380.991855,261.449937 381.010182,175.51524 380.991855,174 L379.903907,174 Z" id="Bttn" fill="#F8FAFA" fill-rule="nonzero" transform="translate(379.500000, 218.500000) scale(-1, 1) translate(-379.500000, -218.500000) "></path>
                <circle id="Sensor" stroke="#EEEEEE" fill="#F8F8F8" cx="230.5" cy="29.5" r="5.5"></circle>
                <mask id="mask-2" fill="white">
                    <use xlink:href="#path-1"></use>
                </mask>
                <use id="Sensor" stroke="#EEEEEE" fill="#F8F8F8" xlink:href="#path-1"></use>
            </g>
        </g>
    </g>
</svg>