<svg class="logo__text" xmlns="http://www.w3.org/2000/svg" viewBox="0 0 264 45">
  <g fill="none" fill-rule="evenodd">
    <path class="logo__text-1" d="M4.155 34.152c-.282 3.144 1.85 6.005 5.557 6.005 3.536 0 5.388-2.58 5.388-5.332 0-3.76-3.03-4.826-5.951-5.837-3.198-1.067-8.026-2.751-8.026-8.588 0-4.828 3.312-8.645 8.87-8.645 5.051 0 8.531 3.649 8.477 8.364h-4.155c.054-2.751-1.852-4.603-4.435-4.603-2.92 0-4.602 1.964-4.602 4.547 0 3.537 3.144 4.658 6.006 5.557 3.648 1.18 7.971 2.751 7.971 8.532 0 5.615-3.592 9.768-9.88 9.768-6.4 0-9.375-4.66-9.375-9.768h4.155z"/>
    <path class="logo__text-2" d="M57.025 34.96c4.041 0 7.465-3.367 7.465-7.915 0-4.547-3.424-7.86-7.465-7.86-4.043 0-7.467 3.313-7.467 7.86 0 4.548 3.424 7.916 7.467 7.916m0-24.476c11.338 0 16.782 8.927 16.782 16.56 0 7.635-5.444 16.616-16.782 16.616-11.34 0-16.784-8.98-16.784-16.616 0-7.633 5.445-16.56 16.784-16.56" transform="translate(0 .54)"/>
    <path class="logo__text-3" d="M98.944 16.245h-4.77v-3.76h4.77v-1.292c0-2.132.394-3.93 1.347-5.5a9.837 9.837 0 0 1 3.48-3.313c1.797-1.01 3.761-1.403 6.12-1.403h.841v3.76h-.84c-1.234 0-6.793.112-6.793 6.456v1.292h9.992V1.65h4.153v10.835h7.13v3.76h-7.13V43.19h-4.153V16.245h-9.992V43.19h-4.155V16.245zM146.366 43.19h4.155V1.65h-4.155zM178.359 27.977c0 7.017 5.724 12.181 12.294 12.181 6.734 0 12.069-5.388 12.069-12.125 0-6.96-5.22-12.517-12.183-12.517-6.68 0-12.18 5.333-12.18 12.461zM206.65 43.19h-3.929v-5.725h-.112c-1.742 2.637-5.276 6.456-11.957 6.456-9.205 0-16.447-6.736-16.447-16.28 0-7.299 5.332-15.887 16.333-15.887 2.64 0 8.364.394 12.07 6.063h.113v-5.332h3.929V43.19zM235.436 28.034c0 6.736 5.335 12.124 12.012 12.124 6.68 0 12.293-5.164 12.293-12.18 0-7.129-5.276-12.461-12.18-12.461-6.905 0-12.125 5.5-12.125 12.517zm.224-26.384V17.76h.112c2.752-4.21 7.187-6.007 11.789-6.007 11.283 0 16.335 8.7 16.335 16.224 0 9.092-7.072 15.94-16.448 15.94-5.05 0-9.149-1.964-11.898-6.004h-.114v5.276h-3.929V1.65h4.153z"/>
  </g>
</svg>