<?xml version="1.0" encoding="UTF-8"?>
<svg width="176px" height="30px" viewBox="0 0 176 30" version="1.1" xmlns="http://www.w3.org/2000/svg" xmlns:xlink="http://www.w3.org/1999/xlink">
    <!-- Generator: sketchtool 52.4 (67378) - http://www.bohemiancoding.com/sketch -->
    <title>4976F2E7-FE6E-4CE4-B029-9996A32D9985</title>
    <desc>Created with sketchtool.</desc>
    <g id="Softlab" stroke="none" stroke-width="1" fill="none" fill-rule="evenodd">
        <g id="Главная" transform="translate(-200.000000, -55.000000)">
            <g id="logo-softlab-white" transform="translate(200.000000, 55.000000)">
                <g id="logo-text">
                    <path d="M2.7700625,22.7681267 C2.58175,24.8640017 4.0034375,26.7715643 6.4745,26.7715643 C8.832,26.7715643 10.0668125,25.0508767 10.0668125,23.2166267 C10.0668125,20.7096267 8.047125,19.9995017 6.0993125,19.3253143 C3.9675,18.6137517 0.7489375,17.4910643 0.7489375,13.5997517 C0.7489375,10.3811893 2.9569375,7.83681427 6.661375,7.83681427 C10.0294375,7.83681427 12.3495625,10.2690643 12.313625,13.4128767 L9.54356247,13.4128767 C9.5795,11.5786267 8.30875,10.3438143 6.586625,10.3438143 C4.64025,10.3438143 3.519,11.6533767 3.519,13.3755017 C3.519,15.7330017 5.614875,16.4805017 7.52243747,17.0799393 C9.95468747,17.8662517 12.836875,18.9141893 12.836875,22.7681267 C12.836875,26.5113767 10.442,29.2800017 6.25025,29.2800017 C1.98375,29.2800017 0,26.1735643 0,22.7681267 L2.7700625,22.7681267 Z" id="Fill-1" fill="#FFFFFF"></path>
                    <path d="M38.0168437,23.6665643 C40.7107187,23.6665643 42.9934687,21.4211893 42.9934687,18.3895017 C42.9934687,15.3578143 40.7107187,13.1498143 38.0168437,13.1498143 C35.3215313,13.1498143 33.0387813,15.3578143 33.0387813,18.3895017 C33.0387813,21.4211893 35.3215313,23.6665643 38.0168437,23.6665643 M38.0168437,7.34950173 C45.5752187,7.34950173 49.2049063,13.3007517 49.2049063,18.3895017 C49.2049063,23.4796893 45.5752187,29.4668767 38.0168437,29.4668767 C30.4570313,29.4668767 26.8273437,23.4796893 26.8273437,18.3895017 C26.8273437,13.3007517 30.4570313,7.34950173 38.0168437,7.34950173" id="Fill-3" fill="#FF1DB0"></path>
                    <path d="M65.9625625,10.8301205 L62.7828125,10.8301205 L62.7828125,8.32312053 L65.9625625,8.32312053 L65.9625625,7.462058 C65.9625625,6.0403705 66.225625,4.8414955 66.861,3.7949955 C67.4230627,2.896558 68.2453127,2.1102455 69.1811247,1.5869955 C70.3785627,0.912808 71.6881247,0.651183 73.26075,0.651183 L73.8213747,0.651183 L73.8213747,3.158183 L73.26075,3.158183 C72.4385,3.158183 68.7326247,3.232933 68.7326247,7.462058 L68.7326247,8.32312053 L75.394,8.32312053 L75.394,1.099683 L78.1626247,1.099683 L78.1626247,8.32312053 L82.9164373,8.32312053 L82.9164373,10.8301205 L78.1626247,10.8301205 L78.1626247,28.7931205 L75.394,28.7931205 L75.394,10.8301205 L68.7326247,10.8301205 L68.7326247,28.7931205 L65.9625625,28.7931205 L65.9625625,10.8301205 Z" id="Fill-5" fill="#FFFFFF"></path>
                    <polygon id="Fill-7" fill="#FFFFFF" points="97.5775 28.792833 100.347563 28.792833 100.347563 1.0993955 97.5775 1.0993955"></polygon>
                    <path d="M118.905687,18.651558 C118.905687,23.329183 122.72225,26.7719955 127.102313,26.7719955 C131.591625,26.7719955 135.148,23.179683 135.148,18.688933 C135.148,14.048683 131.667813,10.3442455 127.026125,10.3442455 C122.57275,10.3442455 118.905687,13.899183 118.905687,18.651558 Z M137.767125,28.7931205 L135.148,28.7931205 L135.148,24.976558 L135.07325,24.976558 C133.91175,26.7346205 131.555687,29.280433 127.102313,29.280433 C120.965625,29.280433 116.137063,24.789683 116.137063,18.427308 C116.137063,13.5613705 119.692,7.835808 127.026125,7.835808 C128.785625,7.835808 132.602187,8.09887047 135.07325,11.878058 L135.148,11.878058 L135.148,8.32312047 L137.767125,8.32312047 L137.767125,28.7931205 Z" id="Fill-9" fill="#FFFFFF"></path>
                    <path d="M156.957319,18.6890767 C156.957319,23.1798267 160.513694,26.7721393 164.965631,26.7721393 C169.419006,26.7721393 173.160819,23.3293267 173.160819,18.6517017 C173.160819,13.8993267 169.643256,10.3443893 165.040381,10.3443893 C160.437506,10.3443893 156.957319,14.0114517 156.957319,18.6890767 Z M157.106819,1.09982675 L157.106819,11.8408267 L157.181569,11.8408267 C159.015819,9.03338927 161.972756,7.83595173 165.040381,7.83595173 C172.562819,7.83595173 175.930881,13.6362643 175.930881,18.6517017 C175.930881,24.7136393 171.215881,29.2791393 164.965631,29.2791393 C161.599006,29.2791393 158.866319,27.9695767 157.033506,25.2757017 L156.957319,25.2757017 L156.957319,28.7932643 L154.338194,28.7932643 L154.338194,1.09982675 L157.106819,1.09982675 Z" id="Fill-10" fill="#FFFFFF"></path>
                </g>
            </g>
        </g>
    </g>
</svg>