<svg viewBox="0 0 52 52" xmlns="http://www.w3.org/2000/svg"><g stroke-width="2" fill="none" fill-rule="evenodd"><path d="M14 40h24" stroke="#885AFA"/><path d="M38 12h-2.31a1 1 0 0 0-.94.66l-.51 1.43a1 1 0 0 1-.56.6l-1.4.57a1 1 0 0 1-.82-.02l-1.37-.65a1 1 0 0 0-1.13.2l-1.17 1.16a1 1 0 0 0-.2 1.14l.65 1.36a1 1 0 0 1 .03.82l-.59 1.4a1 1 0 0 1-.59.56l-1.42.5a1 1 0 0 0-.67.95v1.64c0 .43.27.8.67.94l1.42.51c.27.1.49.3.6.56l.58 1.4a1 1 0 0 1-.03.82l-.65 1.36a1 1 0 0 0 .2 1.14l1.17 1.16a1 1 0 0 0 1.13.2l1.37-.65a1 1 0 0 1 .81-.02l1.4.58a1 1 0 0 1 .57.59l.74 2.09" stroke="#C888FF" stroke-linecap="round"/><path d="M22.69 5l.72 1.8a1 1 0 0 0 .59.56l1.34.49a1 1 0 0 1 .66.94v1.63a1 1 0 0 1-.66.94l-1.34.49a1 1 0 0 0-.59.56l-.56 1.4a1 1 0 0 0 .02.79l.63 1.37a1 1 0 0 1-.19 1.11l-1.1 1.13a1 1 0 0 1-1.15.2l-1.27-.61a1 1 0 0 0-.83-.02l-1.31.56a1 1 0 0 0-.56.6l-.48 1.39a1 1 0 0 1-.95.67H14M35.54 21.58a1.7 1.7 0 0 1 2.46-.1v3.04a1.7 1.7 0 0 1-2.56-.22c-.62-.79-.58-1.98.1-2.72z" stroke="#885AFA" stroke-linecap="round"/><path d="M14 7.55a1.64 1.64 0 0 1 2.51.07c.68.8.65 2.07-.06 2.83-.69.73-1.76.73-2.45 0v-2.9z" stroke="#C888FF" stroke-linecap="round"/><path d="M27 44a1 1 0 1 1-2 0 1 1 0 0 1 2 0" stroke="#885AFA"/><path d="M14 7.2C14 5.43 15.41 4 17.16 4h17.68A3.18 3.18 0 0 1 38 7.2v37.6c0 1.77-1.41 3.2-3.16 3.2H17.16A3.18 3.18 0 0 1 14 44.8V7.2z" stroke="#885AFA"/></g></svg>