<svg viewBox="0 0 52 52" version="1.1" xmlns="http://www.w3.org/2000/svg" xmlns:xlink="http://www.w3.org/1999/xlink">
    <g id="Symbols" stroke="none" stroke-width="1" fill="none" fill-rule="evenodd" stroke-linecap="round" stroke-linejoin="round">
        <g id="icon/design/motion-linear" stroke-width="2">
            <path d="M40,43 L27.624,48.689 C27.018,48.96 26.319,49.021 25.703,48.774 C24.501,48.294 23.652,47.118 23.652,45.745 C23.652,43.944 25.112,42.484 26.913,42.484 L6.261,33.789 C4.46,33.789 3,35.249 3,37.05 C3,38.34 3.75,39.456 4.838,39.984 L25.735,48.779" id="Stroke-1" stroke="#C888FF"></path>
            <path d="M14.521,36.8188 L20.167,34.3288" id="Stroke-3" stroke="#C888FF"></path>
            <polygon id="Stroke-5" stroke="#885AFA" points="49 39.25 40 43 31 39.25 31 10.75 40 7 49 10.75"></polygon>
            <polyline id="Stroke-7" stroke="#885AFA" points="49 10.75 40 14.5 31 10.75"></polyline>
            <path d="M40,39 L40,18" id="Stroke-7" stroke="#C888FF"></path>
            <polyline id="Stroke-9" stroke="#885AFA" points="27.9375 37.5625 20.0005 34.2495 20.0005 16.7505 27.8755 13.3755"></polyline>
            <path d="M27.875,19.5 L20,16.75" id="Stroke-11" stroke="#885AFA"></path>
        </g>
    </g>
</svg>