<?xml version="1.0" encoding="UTF-8"?>
<svg width="11px" height="17px" viewBox="0 0 11 17" version="1.1" xmlns="http://www.w3.org/2000/svg" xmlns:xlink="http://www.w3.org/1999/xlink">
	<path d="M5.51929167,0.852564103 C3.36985577,0.852564103 1.62185577,2.6005641 1.62185577,4.75 C1.62185577,6.8994359 3.36985577,8.6474359 5.51929167,8.6474359 C7.66872756,8.6474359 9.41672756,6.8994359 9.41672756,4.75 C9.41672756,2.6005641 7.66872756,0.852564103 5.51929167,0.852564103 Z M5.51929167,6.69871795 C4.44457372,6.69871795 3.57057372,5.82471795 3.57057372,4.75 C3.57057372,3.67528205 4.44457372,2.80128205 5.51929167,2.80128205 C6.59400962,2.80128205 7.46800962,3.67528205 7.46800962,4.75 C7.46800962,5.82471795 6.59400962,6.69871795 5.51929167,6.69871795 Z"></path>
	<path d="M10.6872917,8.53928205 C10.3063173,8.15830769 9.69052244,8.15830769 9.30954808,8.53928205 C7.22052244,10.6283077 3.82000962,10.6283077 1.73000962,8.53928205 C1.34903526,8.15830769 0.733240385,8.15830769 0.352266026,8.53928205 C-0.0287083333,8.92025641 -0.0287083333,9.53605128 0.352266026,9.918 C1.56436859,11.1301026 3.10093269,11.8209231 4.68524038,12.0011795 L1.90734295,14.7790769 C1.52636859,15.1600513 1.52636859,15.7758462 1.90734295,16.1568205 C2.28831731,16.5377949 2.90411218,16.5377949 3.28508654,16.1568205 L5.51929167,13.9226154 L7.75349679,16.1568205 C7.94349679,16.3468205 8.19293269,16.4423077 8.44236859,16.4423077 C8.69180449,16.4423077 8.94124038,16.3468205 9.13124038,16.1568205 C9.51221474,15.7758462 9.51221474,15.1600513 9.13124038,14.7790769 L6.35334295,12.0011795 C7.93765064,11.8209231 9.47421474,11.1301026 10.6863173,9.918 C11.0672917,9.53702564 11.0672917,8.92025641 10.6872917,8.53928205 Z"></path>
</svg>