<?xml version="1.0" encoding="UTF-8"?>
<svg width="52px" height="52px" viewBox="0 0 52 52" version="1.1" xmlns="http://www.w3.org/2000/svg" xmlns:xlink="http://www.w3.org/1999/xlink">
    <!-- Generator: sketchtool 52.4 (67378) - http://www.bohemiancoding.com/sketch -->
    <title>D230C955-B95A-478C-997A-F7B55B8AE4A1</title>
    <desc>Created with sketchtool.</desc>
    <g id="Symbols" stroke="none" stroke-width="1" fill="none" fill-rule="evenodd" stroke-linejoin="round">
        <g id="icon/programming" stroke-width="2">
            <polyline id="Stroke-1" stroke="#885AFA" stroke-linecap="round" points="18.3076923 45.2411058 2.92307692 45.2411058 2.92307692 31.7795673"></polyline>
            <path d="M23.1153846,46.6834135 L25.0384615,46.6834135" id="Stroke-3" stroke="#885AFA"></path>
            <path d="M26.9615385,46.6834135 L28.8846154,46.6834135" id="Stroke-4" stroke="#885AFA"></path>
            <path d="M31.7692308,46.6834135 L38.5,46.6834135" id="Stroke-5" stroke="#FF1DB0" stroke-linecap="round"></path>
            <path d="M40.4230769,46.6834135 L42.3461538,46.6834135" id="Stroke-6" stroke="#885AFA"></path>
            <path d="M44.2692308,46.6834135 L46.1923077,46.6834135" id="Stroke-7" stroke="#885AFA"></path>
            <path d="M23.1153846,41.8757212 L25.0384615,41.8757212" id="Stroke-8" stroke="#885AFA"></path>
            <path d="M26.9615385,41.8757212 L28.8846154,41.8757212" id="Stroke-9" stroke="#885AFA"></path>
            <path d="M31.7692308,41.8757212 L33.6923077,41.8757212" id="Stroke-10" stroke="#885AFA"></path>
            <path d="M35.6153846,41.8757212 L37.5384615,41.8757212" id="Stroke-11" stroke="#885AFA"></path>
            <path d="M40.4230769,41.8757212 L42.3461538,41.8757212" id="Stroke-12" stroke="#885AFA"></path>
            <path d="M44.2692308,41.8757212 L46.1923077,41.8757212" id="Stroke-13" stroke="#885AFA"></path>
            <path d="M27.025641,37.5487981 L48.8205128,37.5487981 C50.0235897,37.5487981 51,38.5539263 51,39.7923878 L51,48.7667468 C51,50.0052083 50.0235897,51.0103365 48.8205128,51.0103365 L20.4871795,51.0103365 C19.2841026,51.0103365 18.3076923,50.0052083 18.3076923,48.7667468 L18.3076923,39.7923878 C18.3076923,38.5539263 19.2841026,37.5487981 20.4871795,37.5487981 L24.8461538,37.5487981" id="Stroke-14" stroke="#885AFA"></path>
            <path d="M40.1518738,38.5103365 L40.1518738,24.7740728 C40.1518738,23.2564904 41.3657791,22.0268201 42.8639053,22.0268201 C44.3620316,22.0268201 45.5759369,23.2564904 45.5759369,24.7740728 L45.5759369,32.4663805 C45.5759369,33.9839629 46.7898422,35.2136332 48.2879684,35.2136332 C49.7860947,35.2136332 51,33.9839629 51,32.4663805 L51,7.74110577 L29.8461538,7.74110577" id="Stroke-16" stroke="#885AFA"></path>
            <polygon id="Stroke-18" stroke="#FF1DB0" points="13.9058333 4.57924679 15.1742949 1.01033654 19.5180128 1.01033654 20.7864744 4.57924679 23.9489103 5.88802885 27.3685256 4.26213141 30.4405128 7.33302885 28.8146154 10.753734 30.1233974 13.9150801 33.6923077 15.1835417 33.6923077 19.5283494 30.1233974 20.7968109 28.8146154 23.9581571 30.4405128 27.3788622 27.3685256 30.4497596 23.9489103 28.8238622 20.7864744 30.1326442 19.5180128 33.7026442 15.1742949 33.7026442 13.9058333 30.1326442 10.7444872 28.8238622 7.32378205 30.4497596 4.25288462 27.3788622 5.87878205 23.9581571 4.57 20.7968109 1 19.5283494 1 15.1835417 4.57 13.9150801 5.87878205 10.753734 4.25288462 7.33302885 7.32378205 4.26213141 10.7444872 5.88802885"></polygon>
            <path d="M17.3461538,13.5103365 C19.4702564,13.5103365 21.1923077,15.2323878 21.1923077,17.3564904 C21.1923077,19.4805929 19.4702564,21.2026442 17.3461538,21.2026442 C15.2220513,21.2026442 13.5,19.4805929 13.5,17.3564904 C13.5,15.2323878 15.2220513,13.5103365 17.3461538,13.5103365 Z" id="Stroke-20" stroke="#885AFA"></path>
            <path d="M35.6153846,12.0680288 L51,12.0680288" id="Stroke-22" stroke="#885AFA" stroke-linecap="round"></path>
        </g>
    </g>
</svg>