<?xml version="1.0" encoding="UTF-8"?>
<svg width="52px" height="52px" viewBox="0 0 52 52" version="1.1" xmlns="http://www.w3.org/2000/svg" xmlns:xlink="http://www.w3.org/1999/xlink">
    <!-- Generator: sketchtool 52.4 (67378) - http://www.bohemiancoding.com/sketch -->
    <title>C311BE1F-0A05-44F9-AC1D-25C3EF630FC8</title>
    <desc>Created with sketchtool.</desc>
    <g id="Symbols" stroke="none" stroke-width="1" fill="none" fill-rule="evenodd" stroke-linecap="round" stroke-linejoin="round">
        <g id="icon/prototype" stroke-width="2">
            <g id="Group-33" transform="translate(2.000000, 1.000000)">
                <polyline id="Stroke-1" stroke="#885AFA" points="43.5961538 46 43.5961538 3 4.59615385 3"></polyline>
                <polyline id="Stroke-1-Copy" stroke="#885AFA" points="47.5961538 43 47.5961538 0 8.59615385 0"></polyline>
                <polygon id="Stroke-1" stroke="#885AFA" points="0.596153846 49 39.5961538 49 39.5961538 6 0.596153846 6"></polygon>
                <polygon id="Stroke-5" stroke="#885AFA" points="15 16 19 16 19 12 15 12"></polygon>
                <polygon id="Stroke-5-Copy-3" stroke="#885AFA" points="15 28 19 28 19 24 15 24"></polygon>
                <polygon id="Stroke-5-Copy-6" stroke="#885AFA" points="15 40 19 40 19 36 15 36"></polygon>
                <polygon id="Stroke-5-Copy" stroke="#885AFA" points="22.9987793 16 26.9987793 16 26.9987793 12 22.9987793 12"></polygon>
                <polygon id="Stroke-5-Copy-4" stroke="#885AFA" points="23 28 27 28 27 24 23 24"></polygon>
                <polygon id="Stroke-5-Copy-7" stroke="#885AFA" points="23 40 27 40 27 36 23 36"></polygon>
                <polygon id="Stroke-5-Copy-2" stroke="#885AFA" points="30.9975586 16 34.9975586 16 34.9975586 12 30.9975586 12"></polygon>
                <polygon id="Stroke-5-Copy-5" stroke="#885AFA" points="31 28 35 28 35 24 31 24"></polygon>
                <polygon id="Stroke-5-Copy-8" stroke="#885AFA" points="31 40 35 40 35 36 31 36"></polygon>
                <path d="M15,19 L19,19" id="Stroke-20" stroke="#FF1DB0"></path>
                <path d="M15,31.060791 L19,31.060791" id="Stroke-20-Copy-3" stroke="#FF1DB0"></path>
                <path d="M15,43.1772461 L19,43.1772461" id="Stroke-20-Copy-6" stroke="#FF1DB0"></path>
                <path d="M22.9987793,19 L26.9987793,19" id="Stroke-20-Copy" stroke="#FF1DB0"></path>
                <path d="M22.9987793,31.060791 L26.9987793,31.060791" id="Stroke-20-Copy-4" stroke="#FF1DB0"></path>
                <path d="M22.9987793,43.1772461 L26.9987793,43.1772461" id="Stroke-20-Copy-7" stroke="#FF1DB0"></path>
                <path d="M30.9975586,19 L34.9975586,19" id="Stroke-20-Copy-2" stroke="#FF1DB0"></path>
                <path d="M30.9975586,31.060791 L34.9975586,31.060791" id="Stroke-20-Copy-5" stroke="#FF1DB0"></path>
                <path d="M30.9975586,43.1772461 L34.9975586,43.1772461" id="Stroke-20-Copy-8" stroke="#FF1DB0"></path>
                <path d="M5,12 L9,12" id="Stroke-23" stroke="#FF1DB0"></path>
                <path d="M5,24 L8,24" id="Stroke-23-Copy" stroke="#FF1DB0"></path>
                <path d="M5,36 L9,36" id="Stroke-23-Copy-2" stroke="#FF1DB0"></path>
                <path d="M5,15 L9,15" id="Stroke-24" stroke="#FF1DB0"></path>
                <path d="M5,27 L7,27" id="Stroke-24-Copy" stroke="#FF1DB0"></path>
                <path d="M5,39 L8,39" id="Stroke-24-Copy-2" stroke="#FF1DB0"></path>
                <path d="M5,18 L8,18" id="Stroke-25" stroke="#FF1DB0"></path>
                <path d="M5,30 L6,30" id="Stroke-25-Copy" stroke="#FF1DB0"></path>
                <path d="M5,42 L9,42" id="Stroke-25-Copy-2" stroke="#FF1DB0"></path>
            </g>
        </g>
    </g>
</svg>