<svg width="18px" height="27px" viewBox="0 0 18 27" version="1.1" xmlns="http://www.w3.org/2000/svg" xmlns:xlink="http://www.w3.org/1999/xlink">
<path d="M8.96259574,0 C4.0253617,0 0.00880851064,4.02440758 0.00880851064,8.97065403 L0.00880851064,17.954872 C0.00880851064,22.9009905 4.0253617,26.9250142 8.96259574,26.9250142 C13.8998298,26.9250142 17.916383,22.9011185 17.916383,17.954872 L17.916383,8.97065403 C17.916383,4.02440758 13.8997021,0 8.96259574,0 Z M16.9215319,17.954872 C16.9215319,22.3512654 13.3511489,25.9278057 8.96259574,25.9278057 C4.57404255,25.9278057 1.00365957,22.3512654 1.00365957,17.954872 L1.00365957,8.97065403 C1.00365957,4.57426066 4.57404255,0.997208531 8.96259574,0.997208531 C13.3511489,0.997208531 16.9215319,4.5741327 16.9215319,8.97065403 L16.9215319,17.954872 Z"></path>
<path d="M11.2166446,8.9736146 C11.0395408,8.78800571 10.7447806,8.78800571 10.5614843,8.9736146 C10.3843804,9.15295292 10.3843804,9.45143209 10.5614843,9.63035237 L13.883523,12.9943045 L2.92124929,12.9943045 C2.66570784,12.9947225 2.46259574,13.2003973 2.46259574,13.4591628 C2.46259574,13.7179284 2.66570784,13.9302917 2.92124929,13.9302917 L13.883523,13.9302917 L10.5614843,17.2879732 C10.3843804,17.4735821 10.3843804,17.7724793 10.5614843,17.9513996 C10.7447806,18.1370085 11.0399536,18.1370085 11.2166446,17.9513996 L15.3251235,13.791085 C15.5084198,13.6117467 15.5084198,13.3132675 15.3251235,13.1343472 L11.2166446,8.9736146 Z" transform="translate(8.962596, 13.462507) rotate(-270.000000) translate(-8.962596, -13.462507) "></path>
</svg>