<svg version="1.1" id="Слой_1" xmlns="http://www.w3.org/2000/svg" xmlns:xlink="http://www.w3.org/1999/xlink" x="0px" y="0px"
	 viewBox="0 0 44 44" style="enable-background:new 0 0 44 44;" xml:space="preserve">
	<path id="a" class="st1" d="M37.7,22.9c-0.2-0.5-0.4-0.9-0.7-1.3c-0.1-0.1-0.4-0.5-0.5-1c-0.2-0.5-0.3-1-0.3-1.6
		c0-1.9-1.5-3.4-3.4-3.4h-6.3l0.3-1c0.4-1.4,0.7-3.3,0.7-4.9c0-0.8-0.1-1.6-0.4-2.3c-0.4-1.2-1.3-2.2-2.4-2.9C24.2,4.2,23.6,4,23,4
		h0c-1.8,0-3.2,1.5-3.1,3.2v0.3l0,0.2c0,0.5,0,1.7-0.5,3.8c-0.1,0.3-0.3,0.9-0.7,1.5c-0.8,1.2-1.7,2.3-2.7,3.4l-0.2,0.2l-0.1,0.1
		c-0.4,0.4-0.7,0.8-0.9,1.3H8.1C7.5,17.9,7,18.4,7,19c0,0,0,0,0,0v16.8C7,36.5,7.5,37,8.1,37h6.7c0.6,0,1.1-0.5,1.1-1.1
		c0,0,0,0,0,0v-2.3c0.7,0.8,1.5,1.5,2.4,1.9l2.1,1.1c1.9,0.9,4.2,1.4,6.2,1.5c0.7,0,1.3-0.1,1.9-0.2l3.4-0.9c0,0,0.1,0,0.1,0l0.1,0
		l1.1-0.6c0.3-0.2,0.6-0.4,0.8-0.6c0.7-0.8,1.2-1.8,1.5-2.8l0-0.1c0.3-1.1,0.8-3.1,1.2-4.2l0.8-2.5C38,25,38,23.9,37.7,22.9z
		 M9.2,20.1h4.5v14.6H9.2V20.1z M35.5,25.3l-0.8,2.5c-0.4,1.2-1,3.1-1.3,4.4l0,0.1c-0.2,0.7-0.5,1.3-0.9,1.9l-0.1,0.1l0,0l-1,0.5
		L28,35.6c-0.3,0.1-0.8,0.2-1.4,0.1c-1.6,0-3.8-0.5-5.2-1.2l-2.1-1.1c-1-0.5-1.8-1.4-2.4-2.3c-0.6-0.9-1-2-1-3.2v-5.2v-1.9
		c0.1-1,0.6-2,1.2-2.7c0,0,0.9-0.9,1.9-2.1c0.5-0.6,1-1.3,1.4-2c0.4-0.7,0.8-1.4,1-2.1c0.4-1.5,0.6-3.1,0.6-4.7V7.2
		c0-0.5,0.4-1,1-1c0.1,0,0.4,0,0.7,0.3c0.4,0.2,0.9,0.7,1.3,1.7c0.1,0.3,0.2,0.9,0.2,1.5c0,1.3-0.3,3-0.7,4.4
		c-0.2,0.8-0.4,1.5-0.7,2.3c0,0.1,0,0.1,0,0.2c0,0.1,0,0.1,0,0.2l0,0c0,0.1,0,0.2,0,0.2c0,0.1,0,0.1,0,0.2c0,0.1,0.1,0.1,0.1,0.2
		c0,0.1,0.1,0.1,0.1,0.2c0,0.1,0.1,0.1,0.2,0.1c0.1,0,0.1,0.1,0.2,0.1l0,0c0.1,0,0.1,0,0.2,0c0.1,0,0.1,0,0.2,0h7.9
		c0.3,0,0.6,0.1,0.8,0.3c0.2,0.2,0.3,0.5,0.3,0.8c0,0.8,0.2,1.5,0.4,2.3c0.2,0.7,0.5,1.4,1,1.9c0,0,0.1,0.1,0.2,0.4
		C35.7,24.1,35.7,24.7,35.5,25.3L35.5,25.3z"/>
</svg>
