<?xml version="1.0" encoding="UTF-8"?>
<svg width="52px" height="52px" viewBox="0 0 52 52" version="1.1" xmlns="http://www.w3.org/2000/svg" xmlns:xlink="http://www.w3.org/1999/xlink">
    <!-- Generator: sketchtool 52.4 (67378) - http://www.bohemiancoding.com/sketch -->
    <title>363A4EDA-4444-4771-9BD4-D133755719FF</title>
    <desc>Created with sketchtool.</desc>
    <g id="Symbols" stroke="none" stroke-width="1" fill="none" fill-rule="evenodd" stroke-linecap="round" stroke-linejoin="round">
        <g id="icon/tz" stroke-width="2">
            <polyline id="Stroke-21" stroke="#FF1DB0" points="29.1869065 6.48263696 32.9979935 7.50437609 35.8527326 4.55359348 39.64645 6.74318043 38.51845 10.6911804 41.3088196 13.48155 45.2568196 12.35355 47.4464065 16.1462457 44.4956239 19.0009848 45.517363 22.8130935 49.5001022 23.8103109 49.5001022 28.1894848 45.517363 29.1867022 44.4956239 32.9988109 47.4464065 35.85355 45.2568196 39.6462457 41.3088196 38.5182457 38.51845 41.3086152 39.64645 45.2566152 35.8527326 47.4462022 32.9979935 44.4964413 29.1869065 45.5181804"></polyline>
            <path d="M29.1869065,37.0305935 C35.2785152,35.834137 39.24695,29.9264413 38.0504935,23.8348326 C37.01445,18.5636804 32.3941457,14.7617891 27.0218413,14.7607674 C26.6764935,14.7607674 26.3362543,14.7791587 26.0001022,14.8118543" id="Stroke-22" stroke="#885AFA"></path>
            <path d="M26,29.9467739 C26.333087,30.0387304 26.6763913,30.0857304 27.0217391,30.0867522 C29.2787609,30.0867522 31.1086957,28.2568174 31.1086957,25.9997957 C31.1086957,24.6408826 30.4333261,23.3708609 29.3063478,22.610687" id="Stroke-23" stroke="#FF1DB0"></path>
            <path d="M5.56521739,16.8043478 L2.5,16.8043478" id="Stroke-5" stroke="#FF1DB0"></path>
            <path d="M5.56521739,12.7173913 L2.5,12.7173913" id="Stroke-6" stroke="#FF1DB0"></path>
            <path d="M2.5,6.58695652 L10.673913,6.58695652" id="Stroke-7" stroke="#885AFA"></path>
            <path d="M13.7391304,16.8043478 L10.673913,16.8043478" id="Stroke-10" stroke="#FF1DB0"></path>
            <path d="M13.7391304,12.7173913 L10.673913,12.7173913" id="Stroke-11" stroke="#FF1DB0"></path>
            <path d="M10.673913,6.58695652 L18.8478261,6.58695652" id="Stroke-12" stroke="#885AFA"></path>
            <path d="M14.7608696,29.1086957 L14.7608696,31.1521739" id="Stroke-13" stroke="#885AFA"></path>
            <path d="M14.7608696,34.1956522 L14.7608696,36.2391304" id="Stroke-14" stroke="#885AFA"></path>
            <path d="M14.7608696,39.2826087 L14.7608696,41.326087" id="Stroke-15" stroke="#FF1DB0"></path>
            <path d="M6.58695652,29.1086957 L6.58695652,31.1521739" id="Stroke-16" stroke="#FF1DB0"></path>
            <path d="M6.58695652,34.1956522 L6.58695652,36.2391304" id="Stroke-17" stroke="#FF1DB0"></path>
            <path d="M6.58695652,39.2826087 L6.58695652,41.326087" id="Stroke-18" stroke="#885AFA"></path>
            <path d="M21.9130435,16.8043478 L18.8478261,16.8043478" id="Stroke-24" stroke="#FF1DB0"></path>
            <path d="M21.9130435,12.7173913 L18.8478261,12.7173913" id="Stroke-25" stroke="#FF1DB0"></path>
            <polygon id="Stroke-1" stroke="#885AFA" points="2.5 49.5 10.673913 49.5 10.673913 20.8913043 2.5 20.8913043"></polygon>
            <polygon id="Stroke-3" stroke="#885AFA" points="10.673913 49.5 18.8478261 49.5 18.8478261 20.8913043 10.673913 20.8913043"></polygon>
            <polygon id="Stroke-4" stroke="#885AFA" points="2.5 20.8913043 10.673913 20.8913043 10.673913 2.5 2.5 2.5"></polygon>
            <polygon id="Stroke-8" stroke="#885AFA" points="10.673913 20.8913043 18.8478261 20.8913043 18.8478261 2.5 10.673913 2.5"></polygon>
            <polygon id="Stroke-19" stroke="#885AFA" points="18.8478261 49.5 26 49.5 26 2.5 18.8478261 2.5"></polygon>
        </g>
    </g>
</svg>