<svg viewBox="0 0 52 52" xmlns="http://www.w3.org/2000/svg"><g fill="none" fill-rule="evenodd"><path d="M3 33V5c0-1.1.9-2 2-2h42a2 2 0 0 1 2 2v12M27 38H5a2 2 0 0 1-2-2v-3h24M21 38v1l-1 5v1M17 45h11" stroke="#885AFA" stroke-width="2"/><path d="M30 21c0-1.1.9-2 2-2h15a2 2 0 0 1 2 2v26a2 2 0 0 1-2 2H32a2 2 0 0 1-2-2V21z" stroke="#C888FF" stroke-width="2"/><path d="M40.5 45.5a.5.5 0 1 1-1 0 .5.5 0 0 1 1 0" stroke="#885AFA"/><path d="M35.5 20v1a1 1 0 0 0 1 1h6a1 1 0 0 0 1-1v-1" stroke="#C888FF" stroke-width="2"/></g></svg>