<?xml version="1.0" encoding="UTF-8"?>
<svg width="18px" height="11px" viewBox="0 0 18 11" version="1.1" xmlns="http://www.w3.org/2000/svg" xmlns:xlink="http://www.w3.org/1999/xlink">
	<path d="M16.9608511,9.23950755 C16.940204,9.19271317 16.9209561,9.1538977 16.9030764,9.12279955 C16.6072377,8.56247687 16.0418977,7.87472043 15.2073987,7.05933403 L15.1897677,7.04066206 L15.1809367,7.03150592 L15.1720124,7.02212089 L15.163057,7.02212089 C14.7843188,6.64243565 14.5444823,6.38714302 14.4440451,6.25643921 C14.2602731,6.00745778 14.2191032,5.7554352 14.3195404,5.50007717 C14.3904994,5.30714436 14.6570466,4.89969641 15.11856,4.27717742 C15.3613194,3.94726231 15.5535804,3.68284625 15.6955606,3.48363494 C16.7195532,2.05200805 17.1634978,1.13717949 17.0273013,0.738789579 L16.9744086,0.64569132 C16.9388669,0.589642702 16.8471363,0.538368354 16.6993414,0.491606672 C16.5512043,0.44494309 16.3618663,0.437225778 16.1309852,0.468323932 L13.574222,0.486897803 C13.5328034,0.471463178 13.4736605,0.472901999 13.3966068,0.491606672 C13.3196465,0.510311345 13.2811508,0.519696382 13.2811508,0.519696382 L13.2366537,0.543077223 L13.2013296,0.571166933 C13.1717271,0.589740804 13.1391705,0.622408581 13.1036289,0.669104862 C13.0682737,0.715637641 13.0387023,0.770247438 13.01507,0.832476447 C12.7367067,1.58560114 12.4202208,2.28581646 12.0650216,2.93308971 C11.8460188,3.31905344 11.6448957,3.65354662 11.461217,3.93676546 C11.277787,4.21988619 11.1238974,4.42848253 10.9997036,4.56219478 C10.8753232,4.69603784 10.7630699,4.8032627 10.6622596,4.88426178 C10.5616048,4.96529357 10.4847688,4.99953097 10.4315651,4.98700668 C10.378237,4.9744824 10.3280184,4.96205622 10.280474,4.94963004 C10.1976678,4.89358142 10.1310621,4.81735661 10.0808435,4.7208902 C10.0304072,4.62442379 9.9964514,4.50300692 9.9786961,4.35673768 C9.96103409,4.21037035 9.95058614,4.08447351 9.94760101,3.97862207 C9.94483354,3.87290142 9.94610844,3.72336214 9.9521098,3.53042932 C9.95826662,3.33739841 9.96103409,3.2067927 9.96103409,3.1383179 C9.96103409,2.90176265 9.9654185,2.6450312 9.97421841,2.36805816 C9.9831738,2.09108512 9.99041895,1.87163221 9.9964825,1.70996105 C10.0025149,1.54812639 10.0053135,1.37690669 10.0053135,1.19640006 C10.0053135,1.01589342 9.99486555,0.874333058 9.97421841,0.771588158 C9.95382003,0.66897406 9.92250726,0.569368407 9.88124407,0.472803897 C9.83973212,0.376337489 9.7789723,0.301715 9.69924448,0.248740227 C9.61936118,0.195830855 9.52004344,0.153843442 9.40185098,0.122647186 C9.08813256,0.0479919968 8.68865386,0.00760690738 8.20322832,0.00132841574 C7.10243083,-0.0110977656 6.39511069,0.0636555254 6.08142336,0.225490187 C5.95713627,0.293866885 5.8446653,0.387292149 5.74410376,0.505471674 C5.63754087,0.642453973 5.62267742,0.717207264 5.69960668,0.729502644 C6.05477487,0.78545316 6.30620981,0.919296214 6.45419137,1.130901 L6.50751946,1.24303094 C6.54900032,1.32393192 6.59041899,1.46716001 6.63186875,1.67251901 C6.67325632,1.877878 6.69996701,2.10504822 6.71172096,2.35389885 C6.7412613,2.80833739 6.7412613,3.19734226 6.71172096,3.52094619 C6.68208733,3.84468091 6.65410174,4.09670349 6.62739106,4.27721012 C6.60068037,4.45771676 6.56075427,4.60398599 6.50751946,4.71598513 C6.45419137,4.82801696 6.41871187,4.89649176 6.40092547,4.92134413 C6.38317017,4.94619649 6.36836891,4.96186002 6.35661496,4.96800771 C6.27968569,4.99900776 6.19967801,5.01480209 6.11687177,5.01480209 C6.03394115,5.01480209 5.93337961,4.97117965 5.81503168,4.88400018 C5.69671484,4.79682071 5.57392031,4.67707156 5.44664808,4.52455653 C5.31937585,4.37200881 5.17584089,4.1588344 5.015981,3.8850006 C4.85624549,3.6111668 4.69050863,3.28753018 4.5188637,2.91409073 L4.3768524,2.64326538 C4.2880759,2.46903723 4.16680503,2.21534693 4.0129154,1.88242337 C3.85893249,1.54936901 3.72282925,1.22720391 3.60451241,0.915993466 C3.55721677,0.785289658 3.48616448,0.685782106 3.39147991,0.617307306 L3.34704502,0.589217596 C3.31750468,0.564365234 3.27008466,0.537975948 3.20503372,0.509853538 C3.13988949,0.481763828 3.07191561,0.461620334 3.00083222,0.449226853 L0.568293971,0.467800724 C0.319719775,0.467800724 0.151059975,0.527021288 0.0622523818,0.645298915 L0.0267106873,0.701249431 C0.00895538759,0.732412986 0,0.782183113 0,0.850690613 C0,0.919165412 0.0177552997,1.00320564 0.0532969942,1.10271319 C0.408402988,1.980394 0.794572983,2.82684586 1.21180698,3.64219956 C1.62904097,4.45755326 1.99160979,5.11434234 2.29929576,5.61197821 C2.60704393,6.10997377 2.92073125,6.57997773 3.24035774,7.02176118 C3.55998423,7.46370813 3.77155527,7.74692697 3.87507084,7.87135228 C3.97871079,7.9960065 4.06011776,8.08920286 4.11929172,8.15143187 L4.34127961,8.37546284 C4.48332201,8.52487132 4.69190791,8.70380833 4.96713061,8.91227387 C5.24241549,9.12087022 5.54717852,9.32622922 5.88157518,9.52867787 C6.21603403,9.73079952 6.60512697,9.89574073 7.04907165,10.0233053 C7.49295414,10.1510007 7.9249894,10.2022423 8.34523962,10.1775207 L9.366216,10.1775207 C9.57327824,10.158718 9.730153,10.0902432 9.83677809,9.97206364 L9.87210211,9.92526926 C9.89585877,9.88812152 9.91809176,9.83040518 9.93861452,9.75274154 C9.95938605,9.67494711 9.96970962,9.58923916 9.96970962,9.49601009 C9.96364608,9.22842209 9.98301832,8.98725607 10.0272977,8.77254474 C10.0715461,8.5578988 10.1219823,8.39606414 10.1783888,8.28707345 C10.2347642,8.17818086 10.2983848,8.08629252 10.3691883,8.01180083 C10.4401473,7.93714564 10.490708,7.89192088 10.5203727,7.87635546 C10.5498508,7.86069193 10.5733898,7.85006427 10.5911451,7.84368768 C10.7331875,7.79391755 10.9003547,7.84211806 11.0928956,7.98851809 C11.2852809,8.13478733 11.4657258,8.31539206 11.63451,8.530038 C11.8032008,8.74488013 12.0058787,8.98591535 12.2425746,9.25350336 C12.4794259,9.52118946 12.6865192,9.72017187 12.86401,9.85107188 L13.0415008,9.96310371 C13.1600354,10.037857 13.313925,10.1063318 13.5033563,10.1685608 C13.6924456,10.2307571 13.8581203,10.2463225 14.0003803,10.2152244 L16.2730276,10.1779458 C16.497814,10.1779458 16.6727239,10.1388034 16.7967934,10.0611397 C16.9211116,9.98334531 16.9949624,9.89763736 17.0187813,9.8044083 C17.0425379,9.71108113 17.0438128,9.60519699 17.0232901,9.48682126 C17.0022387,9.36873984 16.9814983,9.28617113 16.9608511,9.23950755 Z"></path>
</svg>