<svg width="168px" height="81px" viewBox="0 0 168 81" version="1.1" xmlns="http://www.w3.org/2000/svg" xmlns:xlink="http://www.w3.org/1999/xlink">
    <g id="Softlab" stroke="none" stroke-width="1" fill="none" fill-rule="evenodd">
        <g id="Главная" transform="translate(-1183.000000, -1526.000000)" fill="#464D53">
            <g id="студия" transform="translate(200.000000, 1236.000000)">
                <g id="winner" transform="translate(974.000000, 287.000000)">
                    <path d="M142.091782,73.528 C141.897782,74.866 141.385782,78.017 143.979782,81.735 C145.336782,79.635 146.991782,77.284 146.593782,74.046 C146.130782,70.272 145.466782,71.118 145.055782,66.443 C143.948782,67.593 142.467782,70.914 142.091782,73.528 M142.982782,82.382 C146.160782,85.564 150.325782,84.755 151.670782,84.443 C154.299782,83.835 158.868782,81.663 160.191782,80.179 C155.224782,80.432 156.192782,79.206 152.579782,78.78 C152.337782,78.752 152.089782,78.738 151.837782,78.738 C148.867782,78.738 145.320782,80.637 142.982782,82.382 M149.719782,67.81 C149.869782,69.143 150.175782,72.294 153.100782,75.177 C153.712782,72.81 154.504782,70.126 153.449782,67.127 C152.219782,63.636 151.878782,64.619 150.486782,60.25 C149.860782,61.639 149.428782,65.208 149.719782,67.81 M162.939782,70.502 C162.314782,70.389 161.625782,70.275 160.314782,70.42 C157.457782,70.735 154.031782,73.274 152.041782,75.49 C155.405782,77.674 159.219782,76.224 160.382782,75.666 C162.658782,74.578 166.437782,71.692 167.399782,70.091 C164.710782,70.851 163.898782,70.677 162.939782,70.502 M155.087782,60.19 C155.446782,61.423 156.247782,64.347 159.601782,66.489 C159.833782,64.122 160.195782,61.421 158.674782,58.793 C156.904782,55.733 156.722782,56.733 154.652782,52.876 C154.252782,54.317 154.386782,57.784 155.087782,60.19 M165.636782,60.295 C163.033782,61.246 160.418782,64.527 159.037782,67.088 C162.658782,68.401 165.868782,66.065 166.837782,65.271 C168.730782,63.719 171.642782,60.114 172.195782,58.375 C168.312782,60.577 168.668782,59.19 165.636782,60.295 M158.246782,51.096 C158.872782,52.245 160.310782,54.979 164.077782,56.313 C163.777782,53.889 163.529782,51.094 161.452782,48.829 C159.035782,46.191 159.078782,47.238 156.188782,43.873 C156.116782,45.415 157.022782,48.855 158.246782,51.096 M168.580782,48.859 C166.191782,50.408 164.256782,54.303 163.397782,57.192 C167.248782,57.685 169.960782,54.606 170.762782,53.586 C172.329782,51.594 174.493782,47.305 174.695782,45.429 C171.287782,48.53 171.362782,47.056 168.580782,48.859 M159.211782,41.449 C159.989782,42.429 161.786782,44.771 165.528782,45.375 C164.845782,43.127 164.149782,40.521 161.831782,38.737 C159.132782,36.659 159.348782,37.644 156.087782,34.959 C156.276782,36.435 157.696782,39.539 159.211782,41.449 M168.251782,37.504 C166.341782,39.523 165.367782,43.653 165.186782,46.581 C168.911782,46.154 170.793782,42.614 171.324782,41.464 C172.365782,39.217 173.470782,34.662 173.253782,32.844 C170.723782,36.564 170.475782,35.154 168.251782,37.504 M158.698782,32.311 C159.563782,33.052 161.578782,34.83 164.964782,34.756 C163.942782,32.881 162.842782,30.689 160.478782,29.487 C157.727782,28.088 158.101782,28.924 154.742782,27.08 C155.186782,28.354 157.012782,30.868 158.698782,32.311 M165.996782,26.991 C164.651782,29.184 164.457782,33.114 164.762782,35.807 C167.939782,34.716 169.018782,31.149 169.300782,30.004 C169.851782,27.771 170.092782,23.43 169.615782,21.819 C167.999782,25.673 167.560782,24.441 165.996782,26.991 M155.952782,24.421 C156.827782,24.931 158.877782,26.167 161.926782,25.349 C160.763782,23.8 159.487782,21.97 157.196782,21.357 C154.532782,20.642 154.978782,21.35 151.705782,20.349 C152.272782,21.457 154.243782,23.431 155.952782,24.421 M161.445782,17.648 C160.536782,19.989 161.182782,23.65 162.072782,26.051 C165.095782,24.279 165.435782,20.739 165.479782,19.619 C165.563782,17.431 164.879782,13.381 164.044782,12.019 C163.216782,15.951 162.502782,14.925 161.445782,17.648 M151.937782,17.667 C152.779782,18.067 154.748782,19.047 157.506782,18.048 C156.331782,16.71 155.035782,15.122 152.884782,14.737 C151.746782,14.534 151.219782,14.55 150.695782,14.566 C150.064782,14.586 149.436782,14.606 147.753782,14.242 C148.348782,15.22 150.296782,16.887 151.937782,17.667 M155.837782,10.447 C155.462782,12.774 156.716782,15.998 157.953782,18.02 C160.321782,15.79 159.968782,12.478 159.799782,11.442 C159.470782,9.422 158.110782,5.849 157.114782,4.767 C157.103782,8.536 156.275782,7.739 155.837782,10.447 M148.114782,9.147 C149.304782,11.147 152.291782,12.599 154.506782,13.173 C154.881782,9.764 152.518782,7.577 151.735782,6.938 C150.208782,5.688 146.918782,4.058 145.482782,4 C147.862782,6.794 146.732782,6.821 148.114782,9.147 M153.502782,12.892 C155.571782,15.482 157.492782,18.406 159.273782,21.682 C169.750782,40.963 164.173782,68.165 146.059782,79.08 C145.897782,79.178 135.642782,85.424 133.691782,88.068 C132.843782,89.216 133.974782,90.48 134.474782,89.815 C136.263782,87.432 139.130782,85.278 140.450782,84.171 C142.658782,82.319 146.107782,80.424 146.107782,80.424 C165.022782,69.377 171.428782,43.265 160.419782,21.634 C158.647782,18.151 156.525782,14.996 154.135782,12.187 C153.927782,12.425 153.715782,12.658 153.502782,12.892" id="Combined-Shape" transform="translate(154.040790, 46.999591) rotate(-345.000000) translate(-154.040790, -46.999591) "></path>
                    <path d="M19.6791262,73.528 C19.4851262,74.866 18.9731262,78.017 21.5671262,81.735 C22.9241262,79.635 24.5791262,77.284 24.1811262,74.046 C23.7181262,70.272 23.0541262,71.118 22.6431262,66.443 C21.5361262,67.593 20.0551262,70.914 19.6791262,73.528 M20.5701262,82.382 C23.7481262,85.564 27.9131262,84.755 29.2581262,84.443 C31.8871262,83.835 36.4561262,81.663 37.7791262,80.179 C32.8121262,80.432 33.7801262,79.206 30.1671262,78.78 C29.9251262,78.752 29.6771262,78.738 29.4251262,78.738 C26.4551262,78.738 22.9081262,80.637 20.5701262,82.382 M27.3071262,67.81 C27.4571262,69.143 27.7631262,72.294 30.6881262,75.177 C31.3001262,72.81 32.0921262,70.126 31.0371262,67.127 C29.8071262,63.636 29.4661262,64.619 28.0741262,60.25 C27.4481262,61.639 27.0161262,65.208 27.3071262,67.81 M40.5271262,70.502 C39.9021262,70.389 39.2131262,70.275 37.9021262,70.42 C35.0451262,70.735 31.6191262,73.274 29.6291262,75.49 C32.9931262,77.674 36.8071262,76.224 37.9701262,75.666 C40.2461262,74.578 44.0251262,71.692 44.9871262,70.091 C42.2981262,70.851 41.4861262,70.677 40.5271262,70.502 M32.6751262,60.19 C33.0341262,61.423 33.8351262,64.347 37.1891262,66.489 C37.4211262,64.122 37.7831262,61.421 36.2621262,58.793 C34.4921262,55.733 34.3101262,56.733 32.2401262,52.876 C31.8401262,54.317 31.9741262,57.784 32.6751262,60.19 M43.2241262,60.295 C40.6211262,61.246 38.0061262,64.527 36.6251262,67.088 C40.2461262,68.401 43.4561262,66.065 44.4251262,65.271 C46.3181262,63.719 49.2301262,60.114 49.7831262,58.375 C45.9001262,60.577 46.2561262,59.19 43.2241262,60.295 M35.8341262,51.096 C36.4601262,52.245 37.8981262,54.979 41.6651262,56.313 C41.3651262,53.889 41.1171262,51.094 39.0401262,48.829 C36.6231262,46.191 36.6661262,47.238 33.7761262,43.873 C33.7041262,45.415 34.6101262,48.855 35.8341262,51.096 M46.1681262,48.859 C43.7791262,50.408 41.8441262,54.303 40.9851262,57.192 C44.8361262,57.685 47.5481262,54.606 48.3501262,53.586 C49.9171262,51.594 52.0811262,47.305 52.2831262,45.429 C48.8751262,48.53 48.9501262,47.056 46.1681262,48.859 M36.7991262,41.449 C37.5771262,42.429 39.3741262,44.771 43.1161262,45.375 C42.4331262,43.127 41.7371262,40.521 39.4191262,38.737 C36.7201262,36.659 36.9361262,37.644 33.6751262,34.959 C33.8641262,36.435 35.2841262,39.539 36.7991262,41.449 M45.8391262,37.504 C43.9291262,39.523 42.9551262,43.653 42.7741262,46.581 C46.4991262,46.154 48.3811262,42.614 48.9121262,41.464 C49.9531262,39.217 51.0581262,34.662 50.8411262,32.844 C48.3111262,36.564 48.0631262,35.154 45.8391262,37.504 M36.2861262,32.311 C37.1511262,33.052 39.1661262,34.83 42.5521262,34.756 C41.5301262,32.881 40.4301262,30.689 38.0661262,29.487 C35.3151262,28.088 35.6891262,28.924 32.3301262,27.08 C32.7741262,28.354 34.6001262,30.868 36.2861262,32.311 M43.5841262,26.991 C42.2391262,29.184 42.0451262,33.114 42.3501262,35.807 C45.5271262,34.716 46.6061262,31.149 46.8881262,30.004 C47.4391262,27.771 47.6801262,23.43 47.2031262,21.819 C45.5871262,25.673 45.1481262,24.441 43.5841262,26.991 M33.5401262,24.421 C34.4151262,24.931 36.4651262,26.167 39.5141262,25.349 C38.3511262,23.8 37.0751262,21.97 34.7841262,21.357 C32.1201262,20.642 32.5661262,21.35 29.2931262,20.349 C29.8601262,21.457 31.8311262,23.431 33.5401262,24.421 M39.0331262,17.648 C38.1241262,19.989 38.7701262,23.65 39.6601262,26.051 C42.6831262,24.279 43.0231262,20.739 43.0671262,19.619 C43.1511262,17.431 42.4671262,13.381 41.6321262,12.019 C40.8041262,15.951 40.0901262,14.925 39.0331262,17.648 M29.5251262,17.667 C30.3671262,18.067 32.3361262,19.047 35.0941262,18.048 C33.9191262,16.71 32.6231262,15.122 30.4721262,14.737 C29.3341262,14.534 28.8071262,14.55 28.2831262,14.566 C27.6521262,14.586 27.0241262,14.606 25.3411262,14.242 C25.9361262,15.22 27.8841262,16.887 29.5251262,17.667 M33.4251262,10.447 C33.0501262,12.774 34.3041262,15.998 35.5411262,18.02 C37.9091262,15.79 37.5561262,12.478 37.3871262,11.442 C37.0581262,9.422 35.6981262,5.849 34.7021262,4.767 C34.6911262,8.536 33.8631262,7.739 33.4251262,10.447 M25.7021262,9.147 C26.8921262,11.147 29.8791262,12.599 32.0941262,13.173 C32.4691262,9.764 30.1061262,7.577 29.3231262,6.938 C27.7961262,5.688 24.5061262,4.058 23.0701262,4 C25.4501262,6.794 24.3201262,6.821 25.7021262,9.147 M31.0901262,12.892 C33.1591262,15.482 35.0801262,18.406 36.8611262,21.682 C47.3381262,40.963 41.7611262,68.165 23.6471262,79.08 C23.4851262,79.178 13.2301262,85.424 11.2791262,88.068 C10.4311262,89.216 11.5621262,90.48 12.0621262,89.815 C13.8511262,87.432 16.7181262,85.278 18.0381262,84.171 C20.2461262,82.319 23.6951262,80.424 23.6951262,80.424 C42.6101262,69.377 49.0161262,43.265 38.0071262,21.634 C36.2351262,18.151 34.1131262,14.996 31.7231262,12.187 C31.5151262,12.425 31.3031262,12.658 31.0901262,12.892" id="Combined-Shape-Copy" transform="translate(31.628134, 46.999591) scale(-1, 1) rotate(-345.000000) translate(-31.628134, -46.999591) "></path>
                </g>
            </g>
        </g>
    </g>
</svg>