<svg xmlns="http://www.w3.org/2000/svg" width="48" height="50">
  <g fill="none" fill-rule="evenodd" stroke="inherit" stroke-linecap="round" stroke-linejoin="round" stroke-width="2" transform="translate(1 1)">
    <path d="M39.79 20.77A20.52 20.52 0 0 1 30.1 44.8a20.23 20.23 0 0 1-25.3-4.83 20.56 20.56 0 0 1-.29-25.93 20.23 20.23 0 0 1 25.2-5.38m-1.65-.8c-4.53 2.21-7.74 2.45-7.74 5.28s4.07 1.18 4.07 4.1c0 2.9-3.13 4.95-5.4 3.46-2.26-1.5-5.39-2.37-8.12 1.41-2.74 3.78-.94 8.19 1.01 8.1 1.96-.07 3.75-1.88 4.61.48.86 2.36 1.02 2.36 1.88 2.83.86.47.94 1.5.62 2.83-.3 1.34 1.41 5.43 2.74 5.43 1.33 0 2.58-.55 2.74-2.75.15-2.2 1.8-2.28 2.58-2.91.78-.63-.55-2.91.86-4.4 1.4-1.5 4.45-4.26 1.95-4.97-2.5-.7-2.35-1.18-2.74-2.28-.39-1.1-1.4-2.2.7-2.28 2.18 0 4.27-.87 5.8-2.44l.54-.55"/>
    <path d="M37.52 0a7.84 7.84 0 0 0-7.82 7.87c0 7.08 7.82 15.74 7.82 15.74s7.82-8.66 7.82-15.74a7.9 7.9 0 0 0-2.3-5.57A7.79 7.79 0 0 0 37.53 0z"/>
    <ellipse cx="37.52" cy="7.87" rx="1.56" ry="1.57"/>
  </g>
</svg>