<?xml version="1.0" encoding="UTF-8"?>
<svg width="211px" height="78px" viewBox="0 0 211 78" version="1.1" xmlns="http://www.w3.org/2000/svg" xmlns:xlink="http://www.w3.org/1999/xlink">
    <g stroke="none" stroke-width="1" fill="none" fill-rule="evenodd">
        <g transform="translate(-737.000000, -323.000000)" fill="#FFB200">
            <g  transform="translate(-118.562500, 100.000000)">
                <g id="banner" transform="translate(118.000000, 61.000000)">
                    <path d="M796.855469,238.625 L781.767578,238.625 L781.767578,207.814453 L753.496094,207.814453 L753.496094,238.625 L738.359375,238.625 L738.359375,167.238281 L753.496094,167.238281 L753.496094,195.216797 L781.767578,195.216797 L781.767578,167.238281 L796.855469,167.238281 L796.855469,238.625 Z M813.066406,169.923828 C813.066406,165.073543 815.768202,162.648438 821.171875,162.648438 C826.575548,162.648438 829.277344,165.073543 829.277344,169.923828 C829.277344,172.235038 828.601895,174.033522 827.250977,175.319336 C825.900058,176.60515 823.873711,177.248047 821.171875,177.248047 C815.768202,177.248047 813.066406,174.806665 813.066406,169.923828 Z M828.59375,238.625 L813.701172,238.625 L813.701172,184.035156 L828.59375,184.035156 L828.59375,238.625 Z M857.207031,238.625 L836.40625,184.035156 L851.982422,184.035156 L862.529297,215.138672 C863.701178,219.077494 864.433592,222.80467 864.726562,226.320312 L865.019531,226.320312 C865.182292,223.195297 865.914707,219.468121 867.216797,215.138672 L877.714844,184.035156 L893.291016,184.035156 L872.490234,238.625 L857.207031,238.625 Z M923.710938,193.605469 C920.55337,193.605469 918.079436,194.606435 916.289062,196.608398 C914.498689,198.610362 913.473309,201.450502 913.212891,205.128906 L934.111328,205.128906 C934.046224,201.450502 933.085947,198.610362 931.230469,196.608398 C929.374991,194.606435 926.868505,193.605469 923.710938,193.605469 Z M925.810547,239.601562 C917.02144,239.601562 910.15302,237.176457 905.205078,232.326172 C900.257137,227.475887 897.783203,220.607466 897.783203,211.720703 C897.783203,202.573522 900.069964,195.501653 904.643555,190.504883 C909.217145,185.508113 915.540324,183.009766 923.613281,183.009766 C931.328164,183.009766 937.333963,185.207009 941.630859,189.601562 C945.927756,193.996116 948.076172,200.067019 948.076172,207.814453 L948.076172,215.041016 L912.871094,215.041016 C913.033855,219.272808 914.287098,222.576811 916.630859,224.953125 C918.974621,227.329439 922.262349,228.517578 926.494141,228.517578 C929.781917,228.517578 932.89061,228.175785 935.820312,227.492188 C938.750015,226.80859 941.80988,225.718106 945,224.220703 L945,235.744141 C942.39582,237.04623 939.612645,238.014645 936.650391,238.649414 C933.688136,239.284183 930.074891,239.601562 925.810547,239.601562 Z" id="Hive"></path>
                </g>
            </g>
        </g>
    </g>
</svg>