<?xml version="1.0" encoding="UTF-8"?>
<svg width="78px" height="78px" viewBox="0 0 78 78" version="1.1" xmlns="http://www.w3.org/2000/svg" xmlns:xlink="http://www.w3.org/1999/xlink">
    <defs>
        <rect id="path-1" x="0" y="0" width="77" height="77" rx="12.376"></rect>
        <linearGradient x1="0%" y1="100%" x2="100%" y2="0%" id="linearGradient-3">
            <stop stop-color="#FF9700" offset="0%"></stop>
            <stop stop-color="#FFCD00" offset="100%"></stop>
        </linearGradient>
    </defs>
    <g id="Softlab" stroke="none" stroke-width="1" fill="none" fill-rule="evenodd">
        <g id="Кейс-Hive-App" transform="translate(-801.000000, -187.000000)">
            <g id="кейс" transform="translate(-118.562500, 100.000000)">
                <g id="banner" transform="translate(118.000000, 61.000000)">
                    <g id="App-Icon" transform="translate(802.375000, 26.625000)">
                        <mask id="mask-2" fill="white">
                            <use xlink:href="#path-1"></use>
                        </mask>
                        <use id="Mask" fill="#D8D8D8" fill-rule="nonzero" xlink:href="#path-1"></use>
                        <g mask="url(#mask-2)">
                            <g id="color-hive" fill="url(#linearGradient-3)">
                                <rect id="Rectangle" x="0" y="0" width="77.1621053" height="77.1621053"></rect>
                            </g>
                            <path d="M24.2923782,13.8886512 L10.0780465,38.5094728 L24.2923782,63.1296906 L52.7216454,63.1296906 L66.9362791,38.5094728 L52.7216454,13.8886512 L24.2923782,13.8886512 Z M33.5809753,48.3995942 C33.5809753,45.6791465 35.7865641,43.4738596 38.5073138,43.4738596 C41.2277615,43.4738596 43.4333503,45.6791465 43.4333503,48.3995942 C43.4333503,51.1203438 41.2277615,53.3256307 38.5073138,53.3256307 C35.7865641,53.3256307 33.5809753,51.1203438 33.5809753,48.3995942 Z" id="Fill-1" fill="#FFFFFF"></path>
                        </g>
                    </g>
                </g>
            </g>
        </g>
    </g>
</svg>