<?xml version="1.0" encoding="UTF-8"?>
<svg width="48px" height="46px" viewBox="0 0 48 46" version="1.1" xmlns="http://www.w3.org/2000/svg" xmlns:xlink="http://www.w3.org/1999/xlink">
<g fill="none" stroke="#C888FF">
	<path d="M44.4858,25.817 C44.1798,25.559 43.7218,25.599 43.4638,25.905 C43.2058,26.212 43.2458,26.669 43.5518,26.926 C45.5128,28.576 46.5488,30.437 46.5488,32.312 C46.5488,38.323 36.4598,43.213 24.0588,43.213 C11.6578,43.213 1.5688,38.323 1.5688,32.312 C1.5688,31.44 1.7988,30.574 2.2358,29.728 L3.2868,30.635 L4.0988,26.373 L-0.0002,27.799 L1.1178,28.764 C0.4668,29.909 0.1178,31.098 0.1178,32.312 C0.1178,39.238 10.6328,44.664 24.0578,44.665 L24.0588,44.665 L24.0598,44.665 C37.4838,44.664 47.9998,39.238 47.9998,32.312 C47.9998,29.996 46.7848,27.75 44.4858,25.817"></path>
</g>
<g fill="none" stroke="#885AFA">
	<path d="M8.6582,17.4048 L17.3422,21.2838 L23.3322,23.9588 L23.3322,39.5788 L8.6582,33.0228 L8.6582,17.4048 Z M17.9352,12.6118 L16.4232,15.9898 C16.3452,16.1648 16.3392,16.3648 16.4082,16.5448 C16.4762,16.7238 16.6142,16.8688 16.7902,16.9478 L23.7622,20.0618 C23.7742,20.0678 23.7872,20.0648 23.7992,20.0698 C23.8822,20.1018 23.9672,20.1238 24.0552,20.1248 L24.0582,20.1248 L24.0592,20.1248 L24.0622,20.1248 C24.1502,20.1238 24.2362,20.1018 24.3192,20.0698 C24.3312,20.0648 24.3442,20.0678 24.3552,20.0618 L31.3272,16.9478 C31.5032,16.8688 31.6412,16.7238 31.7102,16.5448 C31.7802,16.3648 31.7732,16.1648 31.6942,15.9898 L30.1822,12.6128 L38.4052,16.2858 L24.0582,22.6938 L9.7122,16.2858 L17.9352,12.6118 Z M23.3322,18.2808 L18.0442,15.9198 L23.3322,4.1108 L23.3322,18.2808 Z M24.7852,4.1108 L30.0742,15.9198 L24.7852,18.2808 L24.7852,4.1108 Z M39.4612,33.0228 L24.7842,39.5788 L24.7842,23.9588 L39.4612,17.4048 L39.4612,33.0228 Z M7.6372,34.1558 L23.7622,41.3598 C23.7742,41.3648 23.7862,41.3628 23.7982,41.3678 C23.8812,41.3998 23.9672,41.4228 24.0552,41.4228 L24.0582,41.4228 L24.0592,41.4228 L24.0612,41.4228 C24.1492,41.4228 24.2352,41.3998 24.3182,41.3678 C24.3302,41.3628 24.3432,41.3648 24.3542,41.3598 L40.4832,34.1558 C40.7432,34.0398 40.9132,33.7798 40.9132,33.4938 L40.9132,16.2858 C40.9132,16.2158 40.8992,16.1458 40.8802,16.0808 C40.8782,16.0778 40.8762,16.0748 40.8752,16.0718 C40.8582,16.0118 40.8312,15.9568 40.7992,15.9038 C40.7922,15.8918 40.7832,15.8818 40.7762,15.8708 C40.7462,15.8288 40.7132,15.7908 40.6762,15.7568 C40.6612,15.7438 40.6472,15.7318 40.6312,15.7198 C40.6152,15.7058 40.6002,15.6888 40.5812,15.6768 C40.5592,15.6628 40.5342,15.6548 40.5102,15.6418 C40.4992,15.6368 40.4912,15.6288 40.4802,15.6238 L29.2932,10.6268 L24.7212,0.4198 C24.7072,0.3838 24.6802,0.3598 24.6612,0.3288 C24.6422,0.2998 24.6252,0.2688 24.6022,0.2428 C24.5732,0.2088 24.5382,0.1818 24.5032,0.1548 C24.4732,0.1318 24.4462,0.1068 24.4132,0.0878 C24.3762,0.0668 24.3372,0.0548 24.2982,0.0418 C24.2672,0.0308 24.2412,0.0118 24.2092,0.0058 C24.2002,0.0038 24.1902,0.0068 24.1802,0.0058 C24.1402,-0.0022 24.1002,0.0008 24.0592,0.0008 C24.0182,0.0008 23.9772,-0.0022 23.9382,0.0058 C23.9282,0.0068 23.9182,0.0038 23.9082,0.0058 C23.8752,0.0128 23.8482,0.0318 23.8182,0.0428 C23.7802,0.0558 23.7412,0.0678 23.7062,0.0878 C23.6722,0.1068 23.6432,0.1318 23.6132,0.1558 C23.5782,0.1828 23.5452,0.2088 23.5162,0.2418 C23.4922,0.2688 23.4752,0.2998 23.4562,0.3298 C23.4362,0.3598 23.4112,0.3848 23.3962,0.4198 L18.8252,10.6258 L7.6372,15.6238 C7.6222,15.6298 7.6112,15.6408 7.5972,15.6478 C7.5782,15.6588 7.5562,15.6648 7.5382,15.6768 C7.5222,15.6878 7.5102,15.7018 7.4952,15.7138 C7.4742,15.7288 7.4542,15.7458 7.4352,15.7638 C7.4052,15.7918 7.3802,15.8228 7.3562,15.8548 C7.3412,15.8738 7.3262,15.8928 7.3132,15.9138 C7.2902,15.9518 7.2742,15.9908 7.2582,16.0318 C7.2512,16.0518 7.2412,16.0698 7.2352,16.0908 C7.2182,16.1538 7.2072,16.2188 7.2072,16.2858 L7.2072,33.4938 C7.2072,33.7798 7.3752,34.0398 7.6372,34.1558 Z"></path>
</g>
</svg>