<svg width="211" height="78" viewBox="0 0 211 78" xmlns="http://www.w3.org/2000/svg"><path d="M59.293 76.625H44.205v-30.81H15.934v30.81H.797V5.238h15.137v27.979h28.271V5.238h15.088v71.387zm16.21-68.701c0-4.85 2.703-7.276 8.106-7.276 5.404 0 8.106 2.426 8.106 7.276 0 2.311-.676 4.11-2.027 5.395-1.35 1.286-3.377 1.929-6.079 1.929-5.403 0-8.105-2.441-8.105-7.324zm15.528 68.701H76.14v-54.59h14.89v54.59zm28.614 0l-20.801-54.59h15.576l10.547 31.104c1.172 3.938 1.904 7.666 2.197 11.181h.293c.163-3.125.895-6.852 2.197-11.181l10.498-31.104h15.577l-20.801 54.59h-15.283zm66.503-45.02c-3.157 0-5.631 1.001-7.421 3.003-1.79 2.002-2.816 4.843-3.077 8.52h20.899c-.065-3.677-1.026-6.518-2.881-8.52-1.856-2.002-4.362-3.003-7.52-3.003zm2.1 45.997c-8.79 0-15.657-2.426-20.605-7.276s-7.422-11.719-7.422-20.605c0-9.147 2.286-16.22 6.86-21.216 4.574-4.997 10.897-7.495 18.97-7.495 7.715 0 13.72 2.197 18.017 6.592 4.297 4.394 6.446 10.465 6.446 18.212v7.227h-35.205c.162 4.232 1.416 7.536 3.76 9.912 2.343 2.376 5.63 3.565 9.863 3.565 3.287 0 6.396-.342 9.326-1.026 2.93-.683 5.99-1.774 9.18-3.271v11.523a34.97 34.97 0 0 1-8.35 2.905c-2.962.635-6.576.953-10.84.953z" fill="#FFB200" fill-rule="evenodd"/></svg>