<svg width="48" height="46" viewBox="0 0 48 46" xmlns="http://www.w3.org/2000/svg"><path d="M44.486 25.817a.726.726 0 0 0-.934 1.109c1.96 1.65 2.997 3.511 2.997 5.386 0 6.011-10.09 10.901-22.49 10.901-12.401 0-22.49-4.89-22.49-10.901 0-.872.23-1.738.667-2.584l1.05.907.813-4.262-4.1 1.426 1.119.965c-.651 1.145-1 2.334-1 3.548 0 6.926 10.515 12.352 23.94 12.353h.002C37.484 44.664 48 39.238 48 32.312c0-2.316-1.215-4.562-3.514-6.495" fill="none" stroke="#C888FF"/><path d="M8.658 17.405l8.684 3.879 5.99 2.675v15.62L8.658 33.023V17.405zm9.277-4.793l-1.512 3.378a.726.726 0 0 0 .367.958l6.972 3.114c.012.006.025.003.037.008a.735.735 0 0 0 .256.055h.007a.74.74 0 0 0 .257-.055c.012-.005.025-.002.036-.008l6.972-3.114a.731.731 0 0 0 .383-.403.717.717 0 0 0-.016-.555l-1.512-3.377 8.223 3.673-14.347 6.408-14.346-6.408 8.223-3.674zm5.397 5.669l-5.288-2.361 5.288-11.81v14.17zm1.453-14.17l5.29 11.809-5.29 2.36V4.11zm14.676 28.912l-14.677 6.556v-15.62l14.677-6.554v15.618zM7.637 34.156l16.125 7.204c.012.005.024.003.036.008a.718.718 0 0 0 .257.055h.006a.718.718 0 0 0 .257-.055c.012-.005.025-.003.036-.008l16.13-7.204a.727.727 0 0 0 .43-.662V16.286a.739.739 0 0 0-.115-.382c-.007-.012-.016-.022-.023-.033a.73.73 0 0 0-.145-.151c-.016-.014-.03-.031-.05-.043-.022-.014-.047-.022-.07-.035-.012-.005-.02-.013-.03-.018l-11.188-4.997L24.721.42c-.014-.036-.04-.06-.06-.091-.019-.03-.036-.06-.059-.086a.636.636 0 0 0-.099-.088c-.03-.023-.057-.048-.09-.067-.037-.021-.076-.033-.115-.046-.03-.011-.057-.03-.089-.036-.009-.002-.019 0-.029 0C24.14-.002 24.1 0 24.06 0c-.042 0-.083-.003-.122.005-.01 0-.02-.002-.03 0-.033.007-.06.026-.09.037-.038.013-.077.025-.112.045-.034.019-.063.044-.093.068a.663.663 0 0 0-.097.086c-.024.027-.04.058-.06.088-.02.03-.045.055-.06.09l-4.57 10.206-11.189 4.998c-.015.006-.026.017-.04.024-.019.01-.04.017-.059.029-.016.01-.028.025-.043.037a.568.568 0 0 0-.139.14.636.636 0 0 0-.043.06.744.744 0 0 0-.055.118c-.007.02-.017.038-.023.059a.747.747 0 0 0-.028.195v17.208c0 .286.168.546.43.662z" fill="none" stroke="#885AFA"/></svg>