<?xml version="1.0" encoding="utf-8"?><svg xmlns="http://www.w3.org/2000/svg" xmlns:xlink="http://www.w3.org/1999/xlink"><symbol viewBox="0 0 52 52" id="analitycs" xmlns="http://www.w3.org/2000/svg"><g stroke-width="2" fill="none" fill-rule="evenodd" stroke-linecap="round" stroke-linejoin="round"><path d="M40.844 33.031h7.812a1.563 1.563 0 0 0 0-3.125h-7.812M11.156 29.906h-7.03L2.562 31.47l1.562 1.562h7.031" stroke="#FF1DB0"/><path d="M50.219 47.094H30.688l-1.563.781h-6.25l-1.562-.781H1.78v2.343c0 .433.35.782.782.782h46.875c.43 0 .78-.35.78-.782v-2.343zM3.344 27.563v-8.594c0-.863.7-1.563 1.562-1.563h3.688M3.344 47.094V35.375" stroke="#885AFA"/><path stroke="#885AFA" d="M8.594 20.531H6.469v7.031M48.656 27.563v-8.594c0-.863-.7-1.563-1.562-1.563h-3.688M48.656 47.094V35.375M40.844 40.625V5.781H11.156v34.844"/><path stroke="#885AFA" d="M6.469 35.375v8.594H45.53v-8.594M45.531 27.563V20.53h-2.125"/><path stroke="#FF1DB0" d="M16.625 28.094h4.688v-4.688h-4.688zM16.625 36.906h4.688V32.22h-4.688zM16.625 19.281h4.688v-4.687h-4.688zM24.656 15.375h11.5"/><path d="M11.156 8.906h12.97M28.688 8.906h.562M31.813 8.906h.562M34.938 8.906h.562" stroke="#885AFA"/><path d="M24.656 18.5h11.5M24.656 24.188h11.5M24.656 27.313h11.5M24.656 33h11.5M24.656 36.125h11.5" stroke="#FF1DB0"/></g></symbol><symbol viewBox="0 0 119.664 40" id="app-store" xmlns="http://www.w3.org/2000/svg"><path d="M110.135 0H9.535c-.367 0-.73 0-1.095.002-.306.002-.61.008-.919.013A13.215 13.215 0 0 0 5.517.19a6.665 6.665 0 0 0-1.9.627 6.438 6.438 0 0 0-1.62 1.18A6.258 6.258 0 0 0 .82 3.617 6.601 6.601 0 0 0 .195 5.52a12.993 12.993 0 0 0-.179 2.002c-.01.307-.01.615-.015.921V31.56c.005.31.006.61.015.921a12.992 12.992 0 0 0 .18 2.002 6.588 6.588 0 0 0 .624 1.905A6.208 6.208 0 0 0 1.998 38a6.274 6.274 0 0 0 1.618 1.179 6.7 6.7 0 0 0 1.901.63 13.455 13.455 0 0 0 2.004.177c.31.007.613.011.919.011.366.002.728.002 1.095.002h100.6c.36 0 .724 0 1.084-.002.304 0 .617-.004.922-.01a13.279 13.279 0 0 0 2-.178 6.804 6.804 0 0 0 1.908-.63A6.277 6.277 0 0 0 117.666 38a6.395 6.395 0 0 0 1.182-1.614 6.604 6.604 0 0 0 .619-1.905 13.506 13.506 0 0 0 .185-2.002c.004-.31.004-.61.004-.921.008-.364.008-.725.008-1.094V9.536c0-.366 0-.73-.008-1.092 0-.306 0-.614-.004-.92a13.507 13.507 0 0 0-.185-2.003 6.618 6.618 0 0 0-.62-1.903 6.466 6.466 0 0 0-2.798-2.8 6.768 6.768 0 0 0-1.908-.627 13.044 13.044 0 0 0-2-.176c-.305-.005-.618-.011-.922-.013-.36-.002-.725-.002-1.084-.002z" fill="#a6a6a6"/><path d="M8.445 39.125c-.305 0-.602-.004-.904-.01a12.687 12.687 0 0 1-1.87-.164 5.884 5.884 0 0 1-1.656-.548 5.406 5.406 0 0 1-1.397-1.016 5.32 5.32 0 0 1-1.02-1.397 5.722 5.722 0 0 1-.544-1.657 12.414 12.414 0 0 1-.166-1.875c-.007-.21-.015-.913-.015-.913v-23.1s.009-.692.015-.895a12.37 12.37 0 0 1 .165-1.872 5.755 5.755 0 0 1 .544-1.662 5.373 5.373 0 0 1 1.015-1.398 5.565 5.565 0 0 1 1.402-1.023 5.823 5.823 0 0 1 1.653-.544A12.586 12.586 0 0 1 7.543.887l.902-.012h102.769l.913.013a12.385 12.385 0 0 1 1.858.162 5.938 5.938 0 0 1 1.671.548 5.594 5.594 0 0 1 2.415 2.42 5.763 5.763 0 0 1 .535 1.649 12.995 12.995 0 0 1 .174 1.887c.003.283.003.588.003.89.008.375.008.732.008 1.092v20.929c0 .363 0 .718-.008 1.075 0 .325 0 .623-.004.93a12.731 12.731 0 0 1-.17 1.853 5.739 5.739 0 0 1-.54 1.67 5.48 5.48 0 0 1-1.016 1.386 5.413 5.413 0 0 1-1.4 1.022 5.862 5.862 0 0 1-1.668.55 12.542 12.542 0 0 1-1.869.163c-.293.007-.6.011-.897.011l-1.084.002z"/><g fill="#fff"><path d="M24.769 20.3a4.949 4.949 0 0 1 2.356-4.151 5.066 5.066 0 0 0-3.99-2.158c-1.68-.176-3.308 1.005-4.164 1.005-.872 0-2.19-.988-3.608-.958a5.315 5.315 0 0 0-4.473 2.728c-1.934 3.348-.491 8.269 1.361 10.976.927 1.325 2.01 2.805 3.428 2.753 1.387-.058 1.905-.885 3.58-.885 1.658 0 2.144.885 3.59.852 1.489-.025 2.426-1.332 3.32-2.67a10.962 10.962 0 0 0 1.52-3.092 4.782 4.782 0 0 1-2.92-4.4zm-2.732-8.09a4.872 4.872 0 0 0 1.115-3.49 4.957 4.957 0 0 0-3.208 1.66 4.636 4.636 0 0 0-1.144 3.36 4.1 4.1 0 0 0 3.237-1.53zM42.302 27.14H37.57l-1.137 3.356h-2.005l4.484-12.418h2.083l4.483 12.418h-2.039zm-4.243-1.55h3.752l-1.85-5.446h-.051zm17.101.38c0 2.813-1.506 4.62-3.779 4.62a3.07 3.07 0 0 1-2.848-1.583h-.043v4.484h-1.86V21.442h1.8v1.506h.033a3.212 3.212 0 0 1 2.883-1.6c2.298 0 3.813 1.816 3.813 4.622zm-1.91 0c0-1.833-.948-3.038-2.393-3.038-1.42 0-2.375 1.23-2.375 3.038 0 1.824.955 3.046 2.375 3.046 1.445 0 2.393-1.197 2.393-3.046zm11.875 0c0 2.813-1.506 4.62-3.779 4.62a3.07 3.07 0 0 1-2.848-1.583h-.043v4.484h-1.859V21.442h1.799v1.506h.034a3.212 3.212 0 0 1 2.883-1.6c2.298 0 3.813 1.816 3.813 4.622zm-1.91 0c0-1.833-.948-3.038-2.393-3.038-1.42 0-2.375 1.23-2.375 3.038 0 1.824.955 3.046 2.375 3.046 1.445 0 2.392-1.197 2.392-3.046zm8.495 1.066c.138 1.232 1.334 2.04 2.97 2.04 1.566 0 2.693-.808 2.693-1.919 0-.964-.68-1.54-2.29-1.936l-1.609-.388c-2.28-.55-3.339-1.617-3.339-3.348 0-2.142 1.867-3.614 4.519-3.614 2.624 0 4.423 1.472 4.483 3.614h-1.876c-.112-1.239-1.136-1.987-2.634-1.987s-2.521.757-2.521 1.858c0 .878.654 1.395 2.255 1.79l1.368.336c2.548.603 3.606 1.626 3.606 3.443 0 2.323-1.85 3.778-4.793 3.778-2.754 0-4.614-1.42-4.734-3.667zM83.346 19.3v2.142h1.722v1.472h-1.722v4.991c0 .776.345 1.137 1.102 1.137a5.808 5.808 0 0 0 .611-.043v1.463a5.104 5.104 0 0 1-1.032.086c-1.833 0-2.548-.689-2.548-2.445v-5.189h-1.316v-1.472h1.316V19.3zm2.719 6.67c0-2.849 1.678-4.639 4.294-4.639 2.625 0 4.295 1.79 4.295 4.639 0 2.856-1.661 4.638-4.295 4.638-2.633 0-4.294-1.782-4.294-4.638zm6.695 0c0-1.954-.895-3.108-2.401-3.108s-2.4 1.162-2.4 3.108c0 1.962.894 3.106 2.4 3.106s2.401-1.144 2.401-3.106zm3.426-4.528h1.773v1.541h.043a2.16 2.16 0 0 1 2.177-1.635 2.866 2.866 0 0 1 .637.069v1.738a2.598 2.598 0 0 0-.835-.112 1.873 1.873 0 0 0-1.937 2.083v5.37h-1.858zm13.198 6.395c-.25 1.643-1.85 2.771-3.898 2.771-2.634 0-4.269-1.764-4.269-4.595 0-2.84 1.644-4.682 4.19-4.682 2.506 0 4.08 1.72 4.08 4.466v.637h-6.394v.112a2.358 2.358 0 0 0 2.436 2.564 2.048 2.048 0 0 0 2.09-1.273zm-6.282-2.702h4.526a2.177 2.177 0 0 0-2.22-2.298 2.292 2.292 0 0 0-2.306 2.298z"/></g><path d="M37.826 8.731a2.64 2.64 0 0 1 2.808 2.965c0 1.906-1.03 3.002-2.808 3.002h-2.155V8.73zm-1.228 5.123h1.125a1.876 1.876 0 0 0 1.967-2.146 1.881 1.881 0 0 0-1.967-2.134h-1.125zm5.082-1.41a2.133 2.133 0 1 1 4.248 0 2.134 2.134 0 1 1-4.247 0zm3.334 0c0-.976-.439-1.547-1.208-1.547-.773 0-1.207.571-1.207 1.547 0 .984.434 1.55 1.207 1.55.77 0 1.208-.57 1.208-1.55zm6.559 2.254h-.922l-.93-3.317h-.07l-.927 3.317h-.913l-1.242-4.503h.902l.806 3.436h.067l.926-3.436h.852l.926 3.436h.07l.803-3.436h.889zm2.281-4.503h.855v.715h.066a1.348 1.348 0 0 1 1.344-.802 1.465 1.465 0 0 1 1.559 1.675v2.915h-.889v-2.692c0-.724-.314-1.084-.972-1.084a1.033 1.033 0 0 0-1.075 1.141v2.635h-.888zm5.24-1.758h.888v6.26h-.888zm2.124 4.007a2.133 2.133 0 1 1 4.247 0 2.134 2.134 0 1 1-4.247 0zm3.333 0c0-.976-.439-1.547-1.208-1.547-.773 0-1.207.571-1.207 1.547 0 .984.434 1.55 1.207 1.55.77 0 1.208-.57 1.208-1.55zm1.849.98c0-.81.604-1.278 1.676-1.344l1.22-.07v-.389c0-.475-.315-.744-.922-.744-.497 0-.84.182-.939.5h-.86c.09-.773.818-1.27 1.84-1.27 1.128 0 1.765.563 1.765 1.514v3.077h-.855v-.633h-.07a1.515 1.515 0 0 1-1.353.707 1.36 1.36 0 0 1-1.501-1.348zm2.895-.384v-.377l-1.1.07c-.62.042-.9.253-.9.65 0 .405.351.64.834.64a1.062 1.062 0 0 0 1.166-.983zm2.053-.596c0-1.423.732-2.324 1.87-2.324a1.484 1.484 0 0 1 1.38.79h.067V8.437h.888v6.26h-.851v-.71h-.07a1.563 1.563 0 0 1-1.415.785c-1.145 0-1.869-.901-1.869-2.328zm.918 0c0 .955.45 1.53 1.203 1.53.75 0 1.212-.583 1.212-1.526 0-.938-.468-1.53-1.212-1.53-.748 0-1.203.58-1.203 1.526zm6.964 0a2.133 2.133 0 1 1 4.247 0 2.134 2.134 0 1 1-4.247 0zm3.333 0c0-.976-.438-1.547-1.208-1.547-.772 0-1.207.571-1.207 1.547 0 .984.435 1.55 1.207 1.55.77 0 1.208-.57 1.208-1.55zm2.107-2.249h.855v.715h.066a1.348 1.348 0 0 1 1.344-.802 1.465 1.465 0 0 1 1.559 1.675v2.915h-.889v-2.692c0-.724-.314-1.084-.972-1.084a1.033 1.033 0 0 0-1.075 1.141v2.635h-.889zm8.845-1.121v1.141h.976v.749h-.976v2.315c0 .472.194.679.637.679a2.967 2.967 0 0 0 .339-.021v.74a2.916 2.916 0 0 1-.484.046c-.988 0-1.381-.348-1.381-1.216v-2.543h-.715v-.749h.715V9.074zm2.19-.637h.88v2.481h.07a1.386 1.386 0 0 1 1.374-.806 1.483 1.483 0 0 1 1.55 1.679v2.907h-.889V12.01c0-.72-.335-1.084-.963-1.084a1.052 1.052 0 0 0-1.134 1.142v2.63h-.888zm9.056 5.045a1.828 1.828 0 0 1-1.95 1.303 2.045 2.045 0 0 1-2.081-2.325 2.077 2.077 0 0 1 2.076-2.352c1.253 0 2.009.856 2.009 2.27v.31h-3.18v.05a1.19 1.19 0 0 0 1.2 1.29 1.08 1.08 0 0 0 1.07-.546zm-3.126-1.451h2.275a1.086 1.086 0 0 0-1.109-1.167 1.152 1.152 0 0 0-1.166 1.167z" fill="#fff"/></symbol><symbol viewBox="0 0 21 11" id="attach" xmlns="http://www.w3.org/2000/svg"><path d="M6.813 6.625v-2h8v2h-8zm3-6v2h-4a3 3 0 0 0 0 6h4v2h-4a5 5 0 1 1 0-10h4zm2 2v-2h4a5 5 0 1 1 0 10h-4v-2h4a3 3 0 0 0 0-6h-4z"/></symbol><symbol viewBox="0 0 22 15" id="back" xmlns="http://www.w3.org/2000/svg"><path d="M1.31 7.75l6.092 5.94a1.098 1.098 0 0 0 1.53 0 1.033 1.033 0 0 0 0-1.492L4.686 8.06h16.225C21.514 8.06 22 7.586 22 7c0-.586-.486-1.06-1.088-1.06H4.696L8.94 1.802a1.033 1.033 0 0 0 0-1.492 1.098 1.098 0 0 0-1.53 0L1.319 6.25A1.037 1.037 0 0 0 1 7c0 .276.097.543.31.75z"/></symbol><symbol viewBox="0 0 52 52" id="branding" xmlns="http://www.w3.org/2000/svg"><g stroke-width="2" fill="none" fill-rule="evenodd"><path d="M26 19V5" stroke="#C888FF"/><path d="M15 4h9m-9 0a2 2 0 1 1-4 0 2 2 0 0 1 4 0zm13 0h9m0 0a2 2 0 1 0 4 0 2 2 0 0 0-4 0z" stroke="#885AFA"/><path stroke="#C888FF" d="M24 5V2h4v3"/><path d="M27 18.5a1 1 0 1 1-2 0 1 1 0 0 1 2 0" stroke="#885AFA"/><path d="M21 35v6a5 5 0 0 1-5 5m15-11v6a5 5 0 0 0 5 5" stroke="#C888FF" stroke-linecap="round" stroke-linejoin="round"/><path d="M19 32h14" stroke="#885AFA" stroke-linecap="round"/><path d="M36 32h14M3 32h14" stroke="#885AFA" stroke-linecap="round" stroke-dasharray="1,3"/><path d="M24 6h4" stroke="#C888FF"/><path d="M44 4h5v10.83h-4A3.83 3.83 0 0 0 41.17 11H30M8 4H3v10.83h4A3.83 3.83 0 0 1 10.83 11H22M6 49h40" stroke="#885AFA" stroke-linecap="round"/><path d="M28 5c0 2.08.37 3.63 1.1 5.54l3.1 8.25c1.72 4.6.6 6.92-2.78 10.21M24 5c0 2.08-.34 3.63-1.06 5.54L19.8 18.8c-1.74 4.6-.62 6.92 2.8 10.21" stroke="#C888FF" stroke-linecap="round" stroke-linejoin="round"/></g></symbol><symbol viewBox="0 0 44 44" id="callback" xmlns="http://www.w3.org/2000/svg"><path d="M2.7 19.06a15.9 15.9 0 0 0 4.05 7.12v8.7a1.12 1.12 0 1 0 2.25 0v-6.94c.17.1.34.21.52.3 1.22.64 2.57 1.01 3.98 1.01 1.42 0 2.76-.37 3.98-1 .18-.1.35-.22.52-.33v6.95a1.12 1.12 0 1 0 2.25 0v-8.7c.66-.65 1.27-1.36 1.8-2.14.1-.14.17-.29.26-.43l.69-.25a8.73 8.73 0 0 0 2.76-1.66c.36-.34.67-.72.89-1.15.22-.43.35-.92.35-1.42v-4.5c0-2.3-.14-4.33-.54-6.14-.3-1.36-.73-2.58-1.38-3.66a8.83 8.83 0 0 0-4.35-3.67C18.8.36 16.43 0 13.5 0c-2.61 0-4.77.29-6.57.9A9.63 9.63 0 0 0 3.5 2.89 9.87 9.87 0 0 0 .7 7.8C.18 9.78 0 12.04 0 14.63c0 .14.03.27.08.4a3.38 3.38 0 0 0 2.62 4.03zm13.74 7.19c-.94.48-1.92.75-2.94.75-1.01 0-2-.27-2.94-.75a10.56 10.56 0 0 1-3.75-3.5 13.7 13.7 0 0 1-2.1-4.99 1.13 1.13 0 0 0-1.22-.9l-.13.01a1.13 1.13 0 0 1-1.1-1.12c0-.62.5-1.12 1.12-1.13.85 0 1.66-.26 2.35-.7a6.65 6.65 0 0 0 2.4-2.93c.36-.8.61-1.7.75-2.65 1.43.44 3.02.66 4.62.66s3.19-.21 4.62-.66c.2 1.44.68 2.74 1.39 3.8a6.02 6.02 0 0 0 1.76 1.78c.7.44 1.5.7 2.36.7a1.13 1.13 0 0 1 .02 2.25l-.14-.01c-.57-.06-1.1.33-1.21.9-.26 1.34-.78 2.7-1.47 3.94l-.86.23a24.3 24.3 0 0 1-5.34.57 1.12 1.12 0 1 0 0 2.25c1.47 0 2.88-.12 4.2-.32a9.41 9.41 0 0 1-2.39 1.82zm8.2-6.73c-.1.22-.35.5-.74.8.15-.42.28-.84.39-1.26.16-.03.3-.09.46-.14v.2c0 .12-.02.24-.1.4zM3.86 5.98a6.53 6.53 0 0 1 3.28-2.75c1.53-.63 3.62-.98 6.37-.98 2.45 0 4.37.28 5.84.78 1.1.38 1.96.89 2.64 1.5a7.64 7.64 0 0 1 2.15 3.86c.31 1.18.49 2.58.57 4.18-.34-.12-.7-.2-1.07-.2-.4 0-.77-.11-1.15-.35a4.45 4.45 0 0 1-1.56-1.96 8.13 8.13 0 0 1-.67-3.3v-.03c0-.08-.03-.15-.05-.22-.02-.08-.02-.15-.05-.22l-.01-.02-.1-.13a.951.951 0 0 0-.15-.2c-.05-.05-.12-.08-.18-.12-.06-.04-.11-.08-.18-.11-.08-.03-.16-.04-.24-.05-.06-.01-.1-.04-.16-.04l-.03.01c-.07 0-.14.03-.21.04-.08.02-.16.03-.23.06h-.02a12.23 12.23 0 0 1-5.13 1.02c-1.9 0-3.8-.36-5.14-1.01h-.02c-.07-.04-.15-.05-.22-.07-.08-.01-.15-.04-.22-.04h-.03c-.06 0-.1.02-.16.03-.08.01-.16.02-.24.05-.07.02-.13.07-.2.1l-.16.12c-.07.06-.11.13-.16.2l-.1.13v.02c-.03.07-.04.15-.06.22-.01.08-.04.15-.04.22v.03a7.6 7.6 0 0 1-1.13 4.14c-.34.5-.72.88-1.1 1.13-.39.24-.76.35-1.15.35-.38 0-.74.07-1.07.19.06-1.34.2-2.56.43-3.6a9.75 9.75 0 0 1 1.11-2.98z"/></symbol><symbol viewBox="0 0 24 24" id="check" xmlns="http://www.w3.org/2000/svg"><path d="M21 7L9 19l-5.5-5.5 1.41-1.41L9 16.17 19.59 5.59 21 7z"/></symbol><symbol viewBox="0 0 24 24" id="chevron-down" xmlns="http://www.w3.org/2000/svg"><path d="M7.41 8.58L12 13.17l4.59-4.59L18 10l-6 6-6-6 1.41-1.42z"/></symbol><symbol viewBox="0 0 24 24" id="chevron-left" xmlns="http://www.w3.org/2000/svg"><path d="M15.41 16.58L10.83 12l4.58-4.59L14 6l-6 6 6 6 1.41-1.42z"/></symbol><symbol viewBox="0 0 24 24" id="chevron-right" xmlns="http://www.w3.org/2000/svg"><path d="M8.59 16.58L13.17 12 8.59 7.41 10 6l6 6-6 6-1.41-1.42z"/></symbol><symbol viewBox="0 0 24 24" id="chevron-up" xmlns="http://www.w3.org/2000/svg"><path d="M7.41 15.41L12 10.83l4.59 4.58L18 14l-6-6-6 6 1.41 1.41z"/></symbol><symbol viewBox="0 0 20 20" id="close" xmlns="http://www.w3.org/2000/svg"><g fill-rule="evenodd"><rect width="24" height="2" x="-2" y="9" rx="1" transform="scale(1 -1) rotate(45 34.142 0)"/><rect width="24" height="2" x="-2" y="9" rx="1" transform="rotate(45 10 10)"/></g></symbol><symbol viewBox="0 0 52 52" id="design" xmlns="http://www.w3.org/2000/svg"><g stroke-width="2" fill="none" fill-rule="evenodd"><path d="M16 36H3v3a2 2 0 0 0 2 2h16" stroke="#885AFA" stroke-linecap="round" stroke-linejoin="round"/><path stroke="#FF1DB0" stroke-linecap="round" stroke-linejoin="round" d="M37 32v-9.345L41 12l4 10.655V32"/><path d="M49 33V6a2 2 0 0 0-2-2h-3M36 36h13v3a2 2 0 0 1-2 2H34M8 4H5a2 2 0 0 0-2 2v30" stroke="#885AFA" stroke-linecap="round" stroke-linejoin="round"/><path d="M26 19V5" stroke="#FF1DB0" stroke-linecap="round" stroke-linejoin="round"/><path d="M27 18.5a1 1 0 1 1-1.999.001A1 1 0 0 1 27 18.5" stroke="#885AFA"/><path d="M28 5c0 2.075.371 3.629 1.091 5.544l3.102 8.246c1.732 4.606.616 9.924-2.775 13.21M24 5c0 2.075-.338 3.629-1.063 5.544l-3.124 8.246c-1.745 4.606-.62 9.924 2.794 13.21" stroke="#FF1DB0" stroke-linecap="round" stroke-linejoin="round"/><path d="M15 4h9M15 4a2 2 0 1 1-4.001-.001A2 2 0 0 1 15 4zM28 4h9M37 4a2 2 0 1 0 4.001-.001A2 2 0 0 0 37 4z" stroke="#885AFA" stroke-linecap="round" stroke-linejoin="round"/><path stroke="#FF1DB0" stroke-linecap="round" stroke-linejoin="round" d="M24 5V2h4v3M21 36.625V48M31 36v12M19 32h14"/><path d="M19 36h14M6 48h40" stroke="#885AFA" stroke-linecap="round" stroke-linejoin="round"/><path d="M37 22.655h8M7 32V10h8v22M10 16h5M12 20h3M12 24h3M12 28h3M10 32h5M24 6h4" stroke="#FF1DB0" stroke-linecap="round" stroke-linejoin="round"/></g></symbol><symbol viewBox="0 0 9 17" id="facebook" xmlns="http://www.w3.org/2000/svg"><path d="M4.762 16.34V8.516h2.766l.437-2.593H4.762v-1.3C4.762 3.946 5 3.3 6.04 3.3h2.08V.71H5.167c-2.482 0-3.16 1.526-3.16 3.642V5.92H.305v2.594h1.704v7.826h2.754z"/></symbol><symbol viewBox="0 0 44 44" id="gift" xmlns="http://www.w3.org/2000/svg"><path d="M31 6h-6.75c.49-.35.9-.73 1.2-1.15.35-.51.55-1.1.55-1.68 0-.8-.38-1.53-.92-2.06C24.38.4 23.38 0 22.3 0c-.98 0-2.02.33-3.03.98-.61.4-1.1.95-1.53 1.54A16.34 16.34 0 0 0 16 5.77c-.16-.4-.39-.9-.67-1.45-.3-.58-.66-1.21-1.09-1.8A5.6 5.6 0 0 0 9.68 0a3.9 3.9 0 0 0-2.77 1.1A2.9 2.9 0 0 0 6 3.17c0 .58.2 1.16.55 1.67.3.43.7.8 1.2 1.16H1a1 1 0 0 0-1 1v6a1 1 0 0 0 1 1h1v13a1 1 0 0 0 1 1h26a1 1 0 0 0 1-1V14h1a1 1 0 0 0 1-1V7a1 1 0 0 0-1-1zm-12.46-.96c.26-.5.57-1 .89-1.43A3.6 3.6 0 0 1 22.3 2c.59 0 1.03.2 1.36.53.26.26.32.46.32.64 0 .13-.03.3-.2.54-.16.24-.45.53-.91.83-.3.2-.89.43-1.55.6-1 .27-2.18.45-3.12.55l.33-.65zM8.32 2.53C8.65 2.2 9.1 2 9.68 2c.53 0 1.2.18 1.94.66.3.2.67.57 1 1.04.45.6.85 1.35 1.16 2a28.1 28.1 0 0 1-1.53-.22 16.6 16.6 0 0 1-1.83-.4 5.17 5.17 0 0 1-1.3-.53c-.47-.3-.76-.6-.92-.84a.98.98 0 0 1-.2-.54c0-.18.06-.38.32-.64zM15 8v4H2V8h13zM4 14h11v12H4V14zm24 12H17V14h11v12zm2-14H17V8h13v4z"/></symbol><symbol viewBox="0 0 135 40" id="google-play" xmlns="http://www.w3.org/2000/svg"><switch><g><path d="M0 0h135v40H0V0z" fill="none"/><path d="M5 0h125c2.8 0 5 2.2 5 5v30c0 2.8-2.2 5-5 5H5c-2.8 0-5-2.2-5-5V5c0-2.8 2.2-5 5-5z"/><path d="M130 .8c2.3 0 4.2 1.9 4.2 4.2v30c0 2.3-1.9 4.2-4.2 4.2H5C2.7 39.2.8 37.3.8 35V5C.8 2.7 2.7.8 5 .8h125m0-.8H5C2.2 0 0 2.2 0 5v30c0 2.8 2.2 5 5 5h125c2.8 0 5-2.2 5-5V5c0-2.8-2.2-5-5-5z" fill="#a6a6a6"/><path d="M47.4 10.2c0 .7-.2 1.5-.8 2-.6.6-1.4.9-2.2.9-1.7 0-3.1-1.4-3.1-3.2 0-.8.3-1.6.9-2.2.6-.6 1.4-.9 2.2-.9.4 0 .8.1 1.2.3.4.1.7.4.9.7l-.5.5c-.4-.5-1-.7-1.6-.7-1.3 0-2.3 1-2.3 2.3v.1c0 1.3 1 2.4 2.3 2.4.6 0 1.2-.2 1.7-.7.3-.3.5-.8.5-1.2h-2.2v-.7h2.9c.1.1.1.3.1.4zM52 7.7h-2.7v1.9h2.5v.7h-2.5v1.9H52v.8h-3.5V7H52v.7zm3.3 5.3h-.8V7.7h-1.7V7H57v.7h-1.7V13zm4.6 0V7h.8v6h-.8zm4.2 0h-.8V7.7h-1.7V7h4.1v.7H64l.1 5.3zm9.5-.8c-1.2 1.2-3.2 1.2-4.4 0C68 11 68 9 69.2 7.8c1.2-1.2 3.2-1.2 4.4 0 0 0 0 0 0 0 1.2 1.2 1.2 3.2 0 4.4zm-3.8-.5c.9.9 2.4.9 3.3 0 .9-1 .9-2.5 0-3.4-.9-.9-2.4-.9-3.3 0-.9 1-.9 2.4 0 3.4zm5.8 1.3V7h.9l2.9 4.7V7h.8v6h-.8l-3.1-4.9V13h-.7z" fill="#fff" stroke="#fff" stroke-width=".2" stroke-miterlimit="10"/><path d="M68.1 21.8c-2.3 0-4.2 1.9-4.2 4.3 0 2.3 1.9 4.2 4.3 4.2 2.3 0 4.2-1.9 4.2-4.2 0-2.3-1.8-4.2-4.1-4.3-.1-.1-.1-.1-.2 0zm0 6.8c-1.4.1-2.7-1-2.8-2.4-.1-1.4 1-2.7 2.4-2.8 1.4-.1 2.7 1 2.8 2.4v.2c.1 1.4-.9 2.5-2.4 2.6.1 0 .1 0 0 0zm-9.3-6.8c-2.3 0-4.2 1.9-4.2 4.3 0 2.3 1.9 4.2 4.3 4.2 2.3 0 4.2-1.9 4.2-4.2 0-2.3-1.8-4.2-4.1-4.3-.1-.1-.1-.1-.2 0zm0 6.8c-1.4.1-2.7-1-2.8-2.4-.1-1.4 1-2.7 2.4-2.8 1.4-.1 2.7 1 2.8 2.4v.2c.1 1.4-1 2.5-2.4 2.6.1 0 0 0 0 0zm-11.1-5.5v1.8H52c-.1.8-.4 1.6-1 2.3-.9.9-2.1 1.4-3.3 1.3-2.7 0-4.8-2.1-4.8-4.8s2.1-4.8 4.8-4.8c1.2 0 2.4.4 3.3 1.3l1.3-1.3c-1.2-1.2-2.8-1.9-4.5-1.9-3.6-.1-6.7 2.7-6.9 6.3-.1 3.6 2.7 6.7 6.3 6.9h.5c1.7.1 3.4-.6 4.6-1.8 1-1.2 1.6-2.7 1.6-4.2 0-.4 0-.8-.1-1.1h-6.1zm45.4 1.4c-.5-1.6-2-2.6-3.6-2.7-2.2 0-4 1.8-4 4v.3c0 2.3 1.8 4.2 4.1 4.2h.2c1.4 0 2.8-.7 3.5-1.9l-1.4-1c-.4.7-1.2 1.2-2.1 1.2-.9 0-1.7-.5-2.1-1.3l5.7-2.3-.3-.5zm-5.8 1.4c-.1-1.3.9-2.4 2.2-2.5.7 0 1.3.3 1.6.9l-3.8 1.6zM82.6 30h1.9V17.5h-1.9V30zm-3-7.3c-.6-.6-1.5-1-2.3-1-2.3.1-4.2 2.1-4 4.5.1 2.2 1.9 3.9 4 4 .9 0 1.7-.4 2.2-1h.1v.6c0 1.6-.9 2.5-2.3 2.5-1 0-1.8-.6-2.1-1.5l-1.6.7c.6 1.5 2.1 2.5 3.8 2.5 2.2 0 4-1.3 4-4.4V22h-1.7v.7zm-2.2 5.9c-1.4-.1-2.5-1.4-2.4-2.8.1-1.3 1.1-2.2 2.4-2.4 1.3.1 2.3 1.2 2.3 2.5v.1c.1 1.3-.9 2.5-2.2 2.6h-.1zm24.4-11.1h-4.5V30h1.9v-4.7h2.6c2.1.2 4-1.5 4.2-3.6.2-2.1-1.5-4-3.6-4.2h-.6zm0 6h-2.6v-4.3h2.7c1.2 0 2.1 1 2.1 2.1s-1 2.2-2.2 2.2zm11.5-1.8c-1.4-.1-2.7.7-3.3 1.9l1.7.7c.3-.6 1-1 1.7-.9 1-.1 1.9.6 2 1.6v.1c-.6-.3-1.3-.5-1.9-.5-1.8 0-3.6 1-3.6 2.8.1 1.6 1.4 2.8 3 2.8h.1c1 .1 1.9-.4 2.4-1.2h.1v1h1.8v-4.8c-.1-2.2-1.8-3.5-4-3.5zm-.2 6.8c-.6 0-1.5-.3-1.5-1.1 0-1 1.1-1.3 2-1.3.6 0 1.2.1 1.7.4-.1 1.2-1 2.1-2.2 2zm10.6-6.5l-2.1 5.4h-.1l-2.2-5.4h-2l3.3 7.6-1.9 4.2h1.9l5.1-11.8h-2zm-16.8 8h1.9V17.5h-1.9V30z" fill="#fff"/><linearGradient id="apa" gradientUnits="userSpaceOnUse" x1="21.802" y1="106.713" x2="5.022" y2="123.493" gradientTransform="translate(0 -98)"><stop offset="0" stop-color="#00a0ff"/><stop offset=".01" stop-color="#00a1ff"/><stop offset=".26" stop-color="#00beff"/><stop offset=".51" stop-color="#00d2ff"/><stop offset=".76" stop-color="#00dfff"/><stop offset="1" stop-color="#00e3ff"/></linearGradient><path d="M10.4 7.5c-.3.4-.5.9-.4 1.4V31c0 .5.1 1 .5 1.4l.1.1L23 20.1v-.3L10.4 7.5z" fill="url(#apa)"/><linearGradient id="apb" gradientUnits="userSpaceOnUse" x1="33.83" y1="118" x2="9.64" y2="118" gradientTransform="translate(0 -98)"><stop offset="0" stop-color="#ffe000"/><stop offset=".41" stop-color="#ffbd00"/><stop offset=".78" stop-color="orange"/><stop offset="1" stop-color="#ff9c00"/></linearGradient><path d="M27 24.3l-4.1-4.1v-.3l4.1-4.1h.1l4.9 2.8c1.4.8 1.4 2.1 0 2.9l-4.9 2.8H27z" fill="url(#apb)"/><linearGradient id="apc" gradientUnits="userSpaceOnUse" x1="24.828" y1="120.297" x2="2.067" y2="143.048" gradientTransform="translate(0 -98)"><stop offset="0" stop-color="#ff3a44"/><stop offset="1" stop-color="#c31162"/></linearGradient><path d="M27.1 24.2L22.9 20 10.4 32.5c.6.5 1.5.5 2.1.1l14.6-8.4" fill="url(#apc)"/><linearGradient id="apd" gradientUnits="userSpaceOnUse" x1="7.298" y1="98.183" x2="17.457" y2="108.343" gradientTransform="translate(0 -98)"><stop offset="0" stop-color="#32a071"/><stop offset=".07" stop-color="#2da771"/><stop offset=".48" stop-color="#15cf74"/><stop offset=".8" stop-color="#06e775"/><stop offset="1" stop-color="#00f076"/></linearGradient><path d="M27.1 15.8L12.5 7.5c-.6-.5-1.5-.5-2.1 0L22.9 20l4.2-4.2z" fill="url(#apd)"/><path d="M27 24.1l-14.5 8.3c-.6.4-1.4.4-2 0l-.1.1.1.1c.6.4 1.4.4 2 0l14.6-8.3-.1-.2z" opacity=".2"/><path d="M10.4 32.3c-.3-.4-.5-.9-.5-1.4v.2c0 .5.1 1 .5 1.4v-.2zm21.6-11l-5 2.8.1.1 4.9-2.8c.6-.3.9-.8 1-1.4-.1.6-.5 1-1 1.3z" opacity=".12"/><path d="M12.5 7.6L32 18.7c.5.3.9.7 1 1.3-.1-.6-.4-1.2-1-1.4L12.5 7.5c-1.4-.8-2.5-.1-2.5 1.4V9c0-1.5 1.1-2.2 2.5-1.4z" opacity=".25" fill="#fff"/></g></switch></symbol><symbol viewBox="0 0 52 52" id="html" xmlns="http://www.w3.org/2000/svg"><g fill="none" fill-rule="evenodd"><path d="M2 33V5a2 2 0 0 1 2-2h42a2 2 0 0 1 2 2v12" stroke="#885AFA" stroke-width="2"/><path stroke="#885AFA" stroke-width="2" stroke-linecap="round" stroke-linejoin="round" d="M7 13h4V9H7zM7 25h4v-4H7zM23 13h4V9h-4zM23 25h4v-4h-4zM15 13h4V9h-4zM15 25h4v-4h-4zM31 13h4V9h-4zM39 13h4V9h-4zM7 16h4M7 28h4M23 16h4M23 28h4M15 16h4M15 28h4M31 16h4M39 16h4"/><path d="M29 38H4a2 2 0 0 1-2-2v-3h27M20 38v1l-1 5v1M16 45h13" stroke="#885AFA" stroke-width="2"/><path d="M31 21a2 2 0 0 1 2-2h15a2 2 0 0 1 2 2v26a2 2 0 0 1-2 2H33a2 2 0 0 1-2-2V21z" stroke="#FF1DB0" stroke-width="2"/><path d="M41.5 45.5a.5.5 0 1 1-1 0 .5.5 0 0 1 1 0" stroke="#885AFA"/><path d="M36.5 20v1a1 1 0 0 0 1 1h6a1 1 0 0 0 1-1v-1" stroke="#FF1DB0" stroke-width="2"/><path stroke="#885AFA" stroke-width="2" stroke-linecap="round" stroke-linejoin="round" d="M35 29h4v-4h-4zM35 39h4v-4h-4zM42 29h4v-4h-4zM42 39h4v-4h-4zM35 32h4M35 42h4M42 32h4M42 42h4"/></g></symbol><symbol viewBox="0 0 381 762" id="iphone" xmlns="http://www.w3.org/2000/svg"><defs><rect id="ara" x="166" y="26" width="47" height="6" rx="3"/></defs><g fill="none" fill-rule="evenodd"><path d="M68.41 0h244.18C357.434 0 378 21.233 378 65.323v631.354C378 739.27 355.972 762 312.59 762H68.41C23.566 762 3 740.767 3 696.677V65.323C3 21.233 23.566 0 68.41 0zm-7.468 19C36.66 19 22 33.556 22 57.669V704.33C22 728.444 36.659 743 60.942 743h259.116C344.34 743 359 728.444 359 704.331V57.67C359 33.556 344.341 19 320.058 19H60.942z" fill="#EFF1F3"/><path d="M69.062 1h242.876C356.544 1 377 22.178 377 66.151V695.85c0 42.48-21.91 65.151-65.062 65.151H69.062C24.456 761 4 739.822 4 695.849V66.15C4 22.178 24.456 1 69.062 1zm-8.12 18C36.66 19 22 33.556 22 57.669V704.33C22 728.444 36.659 743 60.942 743h259.116C344.34 743 359 728.444 359 704.331V57.67C359 33.556 344.341 19 320.058 19H60.942z" fill="#F1F3F6"/><path d="M69.713 2h241.574C355.654 2 376 23.122 376 66.98v628.04c0 42.369-21.793 64.98-64.713 64.98H69.713C25.346 760 5 738.878 5 695.02V66.98C5 23.122 25.346 2 69.713 2zm-8.77 17C36.658 19 22 33.556 22 57.669V704.33C22 728.444 36.659 743 60.942 743h259.116C344.34 743 359 728.444 359 704.331V57.67C359 33.556 344.341 19 320.058 19H60.942z" fill="#F3F5F7"/><path d="M70.364 3h240.272C354.763 3 375 24.066 375 67.808v626.384C375 736.449 353.325 759 310.636 759H70.364C26.237 759 6 737.934 6 694.192V67.808C6 24.066 26.237 3 70.364 3zm-9.422 16C36.66 19 22 33.556 22 57.669V704.33C22 728.444 36.659 743 60.942 743h259.116C344.34 743 359 728.444 359 704.331V57.67C359 33.556 344.341 19 320.058 19H60.942z" fill="#F6F7F8"/><path d="M71.015 4h238.97C353.873 4 374 25.01 374 68.637v624.726C374 735.508 352.442 758 309.985 758H71.015C27.127 758 7 736.99 7 693.363V68.637C7 25.01 27.127 4 71.015 4zM60.942 19C36.66 19 22 33.556 22 57.669V704.33C22 728.444 36.659 743 60.942 743h259.116C344.34 743 359 728.444 359 704.331V57.67C359 33.556 344.341 19 320.058 19H60.942z" fill="#F8FAFA"/><path d="M71.666 5h237.668C352.983 5 373 25.955 373 69.465v623.07C373 734.568 351.56 757 309.334 757H71.666C28.017 757 8 736.045 8 692.535V69.465C8 25.955 28.017 5 71.666 5zM60.942 19C36.66 19 22 33.556 22 57.669V704.33C22 728.444 36.659 743 60.942 743h259.116C344.34 743 359 728.444 359 704.331V57.67C359 33.556 344.341 19 320.058 19H60.942z" fill="#FBFBFC"/><path d="M72.492 6h237.016C353.038 6 373 26.927 373 70.38v622.24c0 41.978-21.381 64.38-63.492 64.38H72.492C28.962 757 9 736.073 9 692.62V70.38C9 26.927 28.962 6 72.492 6zm-11.55 13C36.66 19 22 33.556 22 57.669V704.33C22 728.444 36.659 743 60.942 743h259.116C344.34 743 359 728.444 359 704.331V57.67C359 33.556 344.341 19 320.058 19H60.942z" fill="#FBFCFD"/><path d="M72.492 6h237.016C353.038 6 373 26.927 373 70.38v622.24c0 41.978-21.381 64.38-63.492 64.38H72.492C28.962 757 9 736.073 9 692.62V70.38C9 26.927 28.962 6 72.492 6zm-11.55 13C36.66 19 22 33.556 22 57.669V704.33C22 728.444 36.659 743 60.942 743h259.116C344.34 743 359 728.444 359 704.331V57.67C359 33.556 344.341 19 320.058 19H60.942z" fill="#FCFDFE"/><path d="M73.143 7h235.714C352.147 7 372 27.871 372 71.208v620.584C372 733.657 350.736 756 308.857 756H73.143C29.853 756 10 735.129 10 691.792V71.208C10 27.871 29.853 7 73.143 7zm-12.2 12C36.658 19 22 33.556 22 57.669V704.33C22 728.444 36.659 743 60.942 743h259.116C344.34 743 359 728.444 359 704.331V57.67C359 33.556 344.341 19 320.058 19H60.942z" fill="#FDFDFD"/><path d="M73.794 8h234.412C351.256 8 371 28.815 371 72.037v618.926C371 732.717 349.853 755 308.206 755H73.794C30.744 755 11 734.185 11 690.963V72.037C11 28.815 30.743 8 73.794 8zM60.942 19C36.66 19 22 33.556 22 57.669V704.33C22 728.444 36.659 743 60.942 743h259.116C344.34 743 359 728.444 359 704.331V57.67C359 33.556 344.341 19 320.058 19H60.942z" fill="#FEFFFF"/><path d="M74.445 9h233.11C350.367 9 370 29.76 370 72.865v617.27C370 731.777 348.971 754 307.555 754H74.445C31.633 754 12 733.24 12 690.135V72.865C12 29.76 31.633 9 74.445 9zm208.851 19.691c0 8.518-6.277 18.932-20.72 18.932H118.72C104.277 47.623 98 37.209 98 28.987 98 24.888 98 21 91.192 21H62.48C38.485 21 24 35.475 24 59.455v643.09C24 726.525 38.485 741 62.48 741h256.04c23.995 0 38.48-14.475 38.48-38.455V59.455C357 35.475 342.515 21 318.52 21h-28.416c-6.808 0-6.808 3.888-6.808 7.691z" fill="#FFF"/><path d="M1.904 226c-.62.165-1.361.586-1.758 1.186-.081.123-.146.513-.146.626v51.763c0 .12.09.729.147.877.32.85.878 1.056 1.757 1.548h1.088c0-1.55.018-54.485 0-56H1.904zm0-70c-.62.165-1.361.586-1.758 1.186-.081.123-.146.513-.146.626v51.763c0 .12.09.729.147.877.32.85.878 1.056 1.757 1.548h1.088c0-1.55.018-54.485 0-56H1.904zm0-54C.852 102 0 102.94 0 104.1v25.8c0 1.16.852 2.1 1.904 2.1h1.088c0-1.578.018-28.458 0-30H1.904zM379.096 174c.62.165 1.361.586 1.758 1.185.081.124.146.514.146.627v84.763c0 .12-.09.73-.147.877-.32.85-.878 1.056-1.757 1.548h-1.088c0-1.55-.018-87.485 0-89h1.088z" fill="#F8FAFA" fill-rule="nonzero"/><circle stroke="#EEE" fill="#F8F8F8" cx="230.5" cy="29.5" r="5.5"/><use stroke="#EEE" fill="#F8F8F8" xlink:href="#ara"/></g></symbol><symbol enable-background="new 0 0 377.9 759.2" viewBox="0 0 377.9 759.2" id="iphone-x" xmlns="http://www.w3.org/2000/svg"><path fill="#fff" d="M1.9 224.8c-.6.2-1.3.6-1.7 1.2-.1.1-.1.5-.1.6v51.7c0 .1.1.7.1.9.3.9.9 1.1 1.7 1.5H3v-55.9H1.9zm0-70c-.6.2-1.3.6-1.7 1.2-.1.1-.1.5-.1.6v51.7c0 .1.1.7.1.9.3.9.9 1.1 1.7 1.5H3v-55.9H1.9zm0-53.6c-1 0-1.9.9-1.9 2.1v25.3c0 1.1.8 2.1 1.9 2.1H3v-29.4H1.9zM376.1 173c.6.2 1.3.6 1.7 1.2.1.1.1.5.1.6v84.6c0 .1-.1.7-.1.9-.3.8-.9 1.1-1.7 1.5H375v-88.9h1.1z"/><path d="M310.5 0h-243C22.8 0 2.4 21.2 2.4 65.1v629.1c0 43.9 20.5 65.1 65.1 65.1h243c43.2 0 65.1-22.6 65.1-65.1V65.1c0-43.9-20.5-65.1-65.1-65.1zm44.9 698.6c0 12-3.6 21.7-10.3 28.4-6.7 6.7-16.4 10.3-28.4 10.3H61.8c-12 0-21.7-3.6-28.4-10.3-6.7-6.7-10.3-16.4-10.3-28.4V58.9c0-12 3.6-21.7 10.3-28.4 6.7-6.7 16.4-10.3 28.4-10.3h28.6c3.5 0 5.4 1 6.3 2.7.5.8.7 1.7.8 2.7.1 1 .1 2 .1 3 0 8 6.1 18.1 20.2 18.1H261c7.1 0 12.1-2.5 15.4-6.1 3.3-3.6 4.8-8.2 4.8-12.3v-.1c0-1.8 0-3.9.9-5.4 1-1.6 2.8-2.6 6.3-2.6h28.3c12 0 21.7 3.6 28.4 10.3 6.7 6.7 10.3 16.4 10.3 28.4v639.7z" class="asst0"/><defs><filter id="asa" width="331.8" height="718.4" x="23.4" y="18.1" filterUnits="userSpaceOnUse"><feColorMatrix values="1 0 0 0 0 0 1 0 0 0 0 0 1 0 0 0 0 0 1 0"/></filter></defs><mask id="asb" width="331.8" height="718.4" x="23.4" y="18.1" maskUnits="userSpaceOnUse"><path fill="#fff" stroke="#fff" stroke-width=".88" d="M281.2 28.3c0 4.1-1.5 8.7-4.8 12.3-3.3 3.6-8.3 6.1-15.4 6.1H117.8c-14.1 0-20.2-10.1-20.2-18.1 0-1 0-2-.1-3s-.3-1.9-.8-2.7c-1-1.7-2.8-2.7-6.3-2.7H61.8c-12 0-21.7 3.6-28.4 10.3-6.7 6.7-10.3 16.4-10.3 28.4v639.8c0 12 3.6 21.7 10.3 28.4 6.7 6.7 16.4 10.3 28.4 10.3h254.8c12 0 21.7-3.6 28.4-10.3 6.7-6.7 10.3-16.4 10.3-28.4V58.9c0-12-3.6-21.7-10.3-28.4-6.7-6.7-16.4-10.3-28.4-10.3h-28.3c-3.5 0-5.4 1-6.3 2.6-.8 1.5-.8 3.5-.8 5.5z" filter="url(#asa)"/></mask><g mask="url(#asb)"><path fill="none" d="M23.4 18.1h331.8v718.4H23.4z"/></g><path fill="#f8f8f8" d="M229 34.1c2.9 0 5.3-2.4 5.3-5.3s-2.4-5.3-5.3-5.3-5.3 2.4-5.3 5.3c0 3 2.4 5.3 5.3 5.3z"/><path fill="none" stroke="#e1e1e1" stroke-width="1.12" d="M229 34.1c2.9 0 5.3-2.4 5.3-5.3s-2.4-5.3-5.3-5.3-5.3 2.4-5.3 5.3c0 3 2.4 5.3 5.3 5.3z"/><path fill="#f8f8f8" d="M168.4 25.9h40.5a3 3 0 0 1 3 3 3 3 0 0 1-3 3h-40.5a3 3 0 0 1-3-3 3 3 0 0 1 3-3z"/><path fill="none" stroke="#e1e1e1" stroke-width="1.12" d="M168.4 25.9h40.5a3 3 0 0 1 3 3 3 3 0 0 1-3 3h-40.5a3 3 0 0 1-3-3 3 3 0 0 1 3-3z"/></symbol><symbol viewBox="0 0 176 30" id="logo" xmlns="http://www.w3.org/2000/svg"><g fill="none" fill-rule="evenodd"><path d="M2.77 22.768c-.188 2.096 1.233 4.004 3.704 4.004 2.358 0 3.593-1.721 3.593-3.555 0-2.507-2.02-3.217-3.968-3.892C3.967 18.614.75 17.491.75 13.6c0-3.219 2.208-5.763 5.912-5.763 3.368 0 5.689 2.432 5.653 5.576h-2.77c.035-1.834-1.235-3.07-2.957-3.07-1.947 0-3.068 1.31-3.068 3.033 0 2.357 2.096 3.105 4.003 3.704 2.433.786 5.315 1.834 5.315 5.688 0 3.743-2.395 6.512-6.587 6.512-4.266 0-6.25-3.106-6.25-6.512h2.77z" fill="#464D53"/><path d="M38.017 23.667c2.694 0 4.976-2.246 4.976-5.277 0-3.032-2.282-5.24-4.976-5.24-2.695 0-4.978 2.208-4.978 5.24 0 3.031 2.283 5.277 4.978 5.277m0-16.317c7.558 0 11.188 5.95 11.188 11.04 0 5.09-3.63 11.077-11.188 11.077-7.56 0-11.19-5.987-11.19-11.077s3.63-11.04 11.19-11.04" fill="#ff1db0" fill-rule="nonzero"/><path d="M65.963 10.83h-3.18V8.323h3.18v-.86c0-1.423.263-2.622.898-3.668a6.558 6.558 0 0 1 2.32-2.208c1.198-.674 2.507-.936 4.08-.936h.56v2.507h-.56c-.822 0-4.528.075-4.528 4.304v.861h6.661V1.1h2.769v7.223h4.753v2.507h-4.753v17.963h-2.769V10.83h-6.661v17.963h-2.77V10.83zm31.615 17.963h2.77V1.099h-2.77z" fill="#464D53"/><path d="M118.906 18.652c0 4.677 3.816 8.12 8.196 8.12 4.49 0 8.046-3.592 8.046-8.083 0-4.64-3.48-8.345-8.122-8.345-4.453 0-8.12 3.555-8.12 8.308zm18.861 10.141h-2.619v-3.816h-.075c-1.161 1.758-3.517 4.303-7.97 4.303-6.137 0-10.966-4.49-10.966-10.853 0-4.866 3.555-10.591 10.89-10.591 1.759 0 5.575.263 8.046 4.042h.075V8.323h2.62v20.47zm19.19-10.103c0 4.49 3.557 8.082 8.009 8.082 4.453 0 8.195-3.443 8.195-8.12 0-4.753-3.518-8.308-8.12-8.308-4.603 0-8.084 3.667-8.084 8.345zm.15-17.59v10.74h.075c1.834-2.807 4.79-4.004 7.858-4.004 7.523 0 10.89 5.8 10.89 10.816 0 6.062-4.714 10.627-10.964 10.627-3.367 0-6.1-1.31-7.932-4.003h-.077v3.517h-2.619V1.1h2.769z" fill="#464D53" fill-rule="nonzero"/></g></symbol><symbol class="aulogo__circle" viewBox="0 0 65 64" id="logo-circle" xmlns="http://www.w3.org/2000/svg"><path class="aulogo__circle-1" d="M32.895 46.33c-7.946 0-14.411-6.464-14.411-14.41a14.27 14.27 0 0 1 3.031-8.842l.796.618a13.275 13.275 0 0 0-2.818 8.223c0 7.39 6.012 13.404 13.402 13.404s13.403-6.013 13.403-13.404c0-7.39-6.012-13.402-13.403-13.402-.56 0-1.123.034-1.672.103l-.125-1a14.623 14.623 0 0 1 1.797-.111c7.946 0 14.411 6.464 14.411 14.41 0 7.947-6.465 14.412-14.41 14.412m1.052-32.735a16.93 16.93 0 0 0-.735-.027l.013-.75c.256.004.51.013.764.028l-.042.749zm-2.204.006l-.046-.749c.253-.015.508-.026.764-.032l.017.75a19.79 19.79 0 0 0-.735.03zm3.667.135a18.093 18.093 0 0 0-.73-.085l.071-.746c.255.024.509.054.76.088l-.101.743zm-5.129.014l-.105-.743c.252-.035.505-.067.759-.092l.076.746c-.244.025-.487.054-.73.089zm6.576.244c-.238-.053-.479-.1-.721-.143l.132-.74c.251.046.502.095.75.15l-.161.733zm-8.02.02l-.165-.73c.248-.057.498-.108.75-.154l.134.738c-.241.044-.48.094-.718.147zm9.44.353a19.04 19.04 0 0 0-.708-.2l.19-.727c.248.066.493.135.736.21l-.219.717zm-10.86.029l-.223-.716c.243-.076.488-.147.735-.213l.193.724c-.236.064-.472.132-.704.205zm12.248.459c-.228-.09-.457-.176-.69-.258l.25-.707c.24.084.48.174.717.267l-.277.698zm-13.63.035l-.281-.696a18.1 18.1 0 0 1 .715-.271l.252.706c-.23.083-.46.17-.686.261zm14.977.563a16.904 16.904 0 0 0-.667-.312l.305-.686c.233.104.465.213.694.326l-.332.672zm-16.314.04l-.335-.672c.227-.113.457-.223.69-.327l.307.683c-.222.1-.443.206-.662.315zm17.605.665c-.21-.126-.424-.248-.639-.366l.36-.658c.223.122.445.249.664.38l-.385.644zm-18.889.042l-.388-.642c.217-.132.438-.26.661-.382l.363.657c-.215.118-.427.24-.636.367zm20.12.762c-.199-.141-.402-.28-.607-.414l.41-.628c.214.14.424.284.632.432l-.435.61zm-21.344.047l-.438-.61a22.6 22.6 0 0 1 .629-.433l.413.626c-.204.135-.406.274-.604.417zm22.507.854a17.926 17.926 0 0 0-.573-.462l.46-.592c.202.156.4.316.595.48l-.482.574zm-23.665.05l-.484-.573c.194-.164.391-.324.592-.481l.462.59c-.192.15-.383.305-.57.464zm24.75.94a17.012 17.012 0 0 0-.533-.506l.506-.554c.188.171.373.347.555.526l-.528.533zm-25.831.054l-.529-.532c.18-.18.365-.356.552-.528l.509.552c-.181.166-.359.335-.532.508zm26.836 1.019c-.16-.186-.324-.368-.492-.547l.548-.512c.174.186.344.375.51.568l-.566.49zm-27.836.057l-.57-.487c.167-.194.335-.384.51-.571l.548.51c-.165.18-.329.362-.488.548zm28.75 1.09a19.973 19.973 0 0 0-.446-.583l.588-.467c.158.2.312.401.463.607l-.604.444zm-29.661.065l-.607-.441c.15-.207.305-.41.464-.611l.587.466c-.152.192-.3.387-.444.586zm30.484 1.153c-.13-.208-.263-.414-.4-.617l.622-.419c.142.211.28.425.414.64l-.636.396zm-31.3.07l-.64-.391c.132-.218.27-.434.412-.646l.622.417c-.135.204-.267.41-.395.62zm32.02 1.208a19.764 19.764 0 0 0-.348-.646l.653-.369c.124.222.244.446.36.672l-.665.343zm-32.737.077l-.67-.339c.116-.228.236-.454.36-.677l.655.367c-.12.213-.234.43-.345.649zm33.35 1.253c-.093-.226-.192-.45-.295-.67l.681-.316c.108.23.21.464.307.7l-.693.286zm-33.96.085l-.695-.282c.096-.237.198-.472.304-.705l.682.312a20.19 20.19 0 0 0-.292.675zm34.467 1.293a18.46 18.46 0 0 0-.24-.693l.704-.26a22 22 0 0 1 .25.723l-.714.23zm-34.969.094l-.714-.228c.077-.244.159-.486.246-.725l.705.255c-.083.23-.162.463-.237.698zm35.364 1.322a20.604 20.604 0 0 0-.183-.712l.722-.2c.068.244.132.49.19.739l-.73.173zm-35.75.095l-.732-.169c.059-.249.12-.496.187-.742l.724.198c-.065.236-.125.474-.18.713zm36.029 1.348a17.555 17.555 0 0 0-.126-.724l.737-.143c.048.249.091.5.13.753l-.741.114zm-36.3.096l-.744-.11c.038-.253.08-.505.127-.754l.737.139c-.045.24-.084.482-.12.725zM51.2 30.595a19.59 19.59 0 0 0-.067-.73l.745-.084c.029.253.052.507.07.762l-.748.052zm-36.618.099l-.748-.05c.017-.256.038-.51.066-.762l.745.08a17.46 17.46 0 0 0-.063.732zm37.413 1.38l-.75-.011.001-.145c0-.196-.003-.392-.009-.587l.75-.025c.006.204.01.408.01.612l-.002.156zm-38.2.096l-.003-.248c0-.175.002-.345.007-.514l.75.019c-.005.164-.007.327-.007.491l.002.246-.75.006zm38.128 1.43l-.747-.066c.021-.243.038-.488.05-.733l.748.035c-.012.256-.028.51-.05.764zm-38.05.098a21.044 21.044 0 0 1-.055-.762l.749-.039c.013.245.03.49.053.733l-.747.068zm37.857 1.42l-.74-.125c.04-.241.077-.483.108-.727l.744.094c-.033.255-.07.507-.112.758zm-37.655.096a17.78 17.78 0 0 1-.116-.755l.744-.099c.032.243.07.486.11.726l-.738.128zm37.34 1.402l-.727-.186c.06-.236.116-.474.166-.714l.733.153c-.051.25-.11.5-.172.747zm-37.017.093a20.26 20.26 0 0 1-.177-.744l.734-.158c.051.24.107.479.169.715l-.726.187zm36.582 1.373l-.71-.242c.078-.231.153-.465.223-.7l.72.213c-.073.245-.151.488-.233.729zm-36.141.091c-.083-.24-.16-.483-.235-.726l.718-.218c.071.236.146.469.226.7l-.71.244zm35.589 1.338l-.687-.301c.097-.224.19-.45.278-.679l.7.27c-.092.24-.19.476-.291.71zm-35.031.085c-.102-.232-.2-.468-.293-.705l.699-.273c.088.227.182.453.28.676l-.686.302zm.669 1.37a21.61 21.61 0 0 1-.349-.678l.674-.33c.108.22.22.438.336.654l-.661.354zm.778 1.315c-.138-.214-.272-.43-.402-.649l.645-.382c.126.21.253.418.387.624l-.63.407zm.88 1.249a22.7 22.7 0 0 1-.451-.615l.612-.434c.14.2.286.399.435.593l-.596.456zm.977 1.174a21.49 21.49 0 0 1-.5-.576l.576-.481c.158.188.318.373.482.556l-.558.501zm1.07 1.095a19.342 19.342 0 0 1-.546-.537l.536-.524c.171.175.347.347.524.515l-.515.546zm1.151 1.005a18.55 18.55 0 0 1-.586-.491l.493-.565c.185.16.372.318.563.473l-.47.583zm1.229.912c-.21-.144-.417-.291-.623-.443l.446-.603c.198.146.397.288.6.427l-.423.619zm1.3.81c-.222-.126-.44-.256-.658-.391l.396-.637c.209.129.42.255.633.377l-.372.651zm1.36.705a18.305 18.305 0 0 1-.689-.339l.346-.665c.217.113.437.22.66.325l-.318.68zm1.413.593a18.74 18.74 0 0 1-.713-.282l.29-.692c.226.095.454.186.685.271l-.262.703zm12.754.208l-.237-.711c.232-.078.462-.162.69-.249l.267.702c-.237.09-.477.176-.72.258zM27.68 50.3a19.97 19.97 0 0 1-.732-.223l.233-.713c.232.077.467.148.703.215l-.204.721zm9.83.159l-.18-.727c.237-.06.474-.123.709-.192l.209.72c-.244.072-.49.138-.739.199zm-8.342.198c-.252-.05-.5-.104-.747-.163l.174-.73c.238.058.477.11.717.157l-.144.736zm6.843.11l-.121-.74c.242-.04.484-.084.723-.133l.15.735c-.248.05-.499.097-.752.138zm-5.333.126a19.415 19.415 0 0 1-.758-.102l.115-.741c.242.037.485.07.73.099l-.087.744zm3.815.062l-.061-.748c.246-.02.489-.046.73-.075l.093.744c-.252.032-.506.057-.762.079zm-2.29.054c-.256-.01-.51-.024-.764-.043l.056-.748c.244.018.489.032.734.04l-.026.75zm.764.012l-.003-.75c.247-.001.492-.007.735-.017l.032.749c-.252.011-.507.017-.764.018z"/><path class="aulogo__circle-2" d="M32.867 58.307a26.394 26.394 0 0 1-19.861-9.013l2.37-2.075a23.246 23.246 0 0 0 17.49 7.938c12.814 0 23.238-10.424 23.238-23.238 0-12.813-10.424-23.237-23.237-23.237-12.205 0-22.39 9.529-23.187 21.693l-3.144-.205c.906-13.816 12.471-24.638 26.33-24.638 14.55 0 26.388 11.837 26.388 26.387 0 14.551-11.837 26.388-26.387 26.388"/><path class="aulogo__circle-3" d="M32.894 63.84c-17.6 0-31.92-14.32-31.92-31.92C.974 14.319 15.294 0 32.894 0c3.487 0 6.916.559 10.19 1.661l-.367 1.301-.034-.012a30.578 30.578 0 0 0-9.789-1.6c-16.856 0-30.569 13.714-30.569 30.57s13.713 30.57 30.57 30.57c16.856 0 30.57-13.714 30.57-30.57a30.418 30.418 0 0 0-3.152-13.535l1.209-.6a32.034 32.034 0 0 1 1.605 3.864 31.901 31.901 0 0 1 1.688 10.271c0 17.6-14.32 31.92-31.92 31.92"/></symbol><symbol viewBox="0 0 176 30" id="logo-light" xmlns="http://www.w3.org/2000/svg"><g fill="none" fill-rule="evenodd"><path d="M2.77 22.768c-.188 2.096 1.233 4.004 3.704 4.004 2.358 0 3.593-1.721 3.593-3.555 0-2.507-2.02-3.217-3.968-3.892C3.967 18.614.75 17.491.75 13.6c0-3.219 2.208-5.763 5.912-5.763 3.368 0 5.689 2.432 5.653 5.576h-2.77c.035-1.834-1.235-3.07-2.957-3.07-1.947 0-3.068 1.31-3.068 3.033 0 2.357 2.096 3.105 4.003 3.704 2.433.786 5.315 1.834 5.315 5.688 0 3.743-2.395 6.512-6.587 6.512-4.266 0-6.25-3.106-6.25-6.512h2.77z" fill="#FFF"/><path d="M38.017 23.667c2.694 0 4.976-2.246 4.976-5.277 0-3.032-2.282-5.24-4.976-5.24-2.695 0-4.978 2.208-4.978 5.24 0 3.031 2.283 5.277 4.978 5.277m0-16.317c7.558 0 11.188 5.95 11.188 11.04 0 5.09-3.63 11.077-11.188 11.077-7.56 0-11.19-5.987-11.19-11.077s3.63-11.04 11.19-11.04" fill="#FF1DB0"/><path d="M65.963 10.83h-3.18V8.323h3.18v-.86c0-1.423.263-2.622.898-3.668a6.558 6.558 0 0 1 2.32-2.208c1.198-.674 2.507-.936 4.08-.936h.56v2.507h-.56c-.822 0-4.528.075-4.528 4.304v.861h6.661V1.1h2.769v7.223h4.753v2.507h-4.753v17.963h-2.769V10.83h-6.661v17.963h-2.77V10.83zM97.578 28.793h2.77V1.099h-2.77zM118.906 18.652c0 4.677 3.816 8.12 8.196 8.12 4.49 0 8.046-3.592 8.046-8.083 0-4.64-3.48-8.345-8.122-8.345-4.453 0-8.12 3.555-8.12 8.308zm18.861 10.141h-2.619v-3.816h-.075c-1.161 1.758-3.517 4.303-7.97 4.303-6.137 0-10.966-4.49-10.966-10.853 0-4.866 3.555-10.591 10.89-10.591 1.759 0 5.575.263 8.046 4.042h.075V8.323h2.62v20.47zM156.957 18.69c0 4.49 3.557 8.082 8.009 8.082 4.453 0 8.195-3.443 8.195-8.12 0-4.753-3.518-8.308-8.12-8.308-4.603 0-8.084 3.667-8.084 8.345zm.15-17.59v10.74h.075c1.834-2.807 4.79-4.004 7.858-4.004 7.523 0 10.89 5.8 10.89 10.816 0 6.062-4.714 10.627-10.964 10.627-3.367 0-6.1-1.31-7.932-4.003h-.077v3.517h-2.619V1.1h2.769z" fill="#FFF"/></g></symbol><symbol viewBox="0 0 24 24" id="minus" xmlns="http://www.w3.org/2000/svg"><path d="M19 13H5v-2h14v2z"/></symbol><symbol viewBox="0 0 52 52" id="mobile" xmlns="http://www.w3.org/2000/svg"><g stroke-width="2" fill="none" fill-rule="evenodd"><path d="M14 40h24" stroke="#885AFA"/><path d="M38 12h-2.31a1 1 0 0 0-.94.66l-.51 1.43a1 1 0 0 1-.56.6l-1.4.57a1 1 0 0 1-.82-.02l-1.37-.65a1 1 0 0 0-1.13.2l-1.17 1.16a1 1 0 0 0-.2 1.14l.65 1.36a1 1 0 0 1 .03.82l-.59 1.4a1 1 0 0 1-.59.56l-1.42.5a1 1 0 0 0-.67.95v1.64c0 .43.27.8.67.94l1.42.51c.27.1.49.3.6.56l.58 1.4a1 1 0 0 1-.03.82l-.65 1.36a1 1 0 0 0 .2 1.14l1.17 1.16a1 1 0 0 0 1.13.2l1.37-.65a1 1 0 0 1 .81-.02l1.4.58a1 1 0 0 1 .57.59l.74 2.09" stroke="#C888FF" stroke-linecap="round"/><path d="M22.69 5l.72 1.8a1 1 0 0 0 .59.56l1.34.49a1 1 0 0 1 .66.94v1.63a1 1 0 0 1-.66.94l-1.34.49a1 1 0 0 0-.59.56l-.56 1.4a1 1 0 0 0 .02.79l.63 1.37a1 1 0 0 1-.19 1.11l-1.1 1.13a1 1 0 0 1-1.15.2l-1.27-.61a1 1 0 0 0-.83-.02l-1.31.56a1 1 0 0 0-.56.6l-.48 1.39a1 1 0 0 1-.95.67H14m21.54.58a1.7 1.7 0 0 1 2.46-.1v3.04a1.7 1.7 0 0 1-2.56-.22c-.62-.79-.58-1.98.1-2.72z" stroke="#885AFA" stroke-linecap="round"/><path d="M14 7.55a1.64 1.64 0 0 1 2.51.07c.68.8.65 2.07-.06 2.83-.69.73-1.76.73-2.45 0v-2.9z" stroke="#C888FF" stroke-linecap="round"/><path d="M27 44a1 1 0 1 1-2 0 1 1 0 0 1 2 0" stroke="#885AFA"/><path d="M14 7.2C14 5.43 15.41 4 17.16 4h17.68A3.18 3.18 0 0 1 38 7.2v37.6c0 1.77-1.41 3.2-3.16 3.2H17.16A3.18 3.18 0 0 1 14 44.8V7.2z" stroke="#885AFA"/></g></symbol><symbol viewBox="0 0 52 52" id="motion" xmlns="http://www.w3.org/2000/svg"><g stroke-width="2" fill="none" fill-rule="evenodd" stroke-linecap="round" stroke-linejoin="round"><path d="M40 43l-12.376 5.689c-.606.271-1.305.332-1.921.085a3.262 3.262 0 0 1 1.21-6.29L6.261 33.789a3.261 3.261 0 0 0-1.423 6.195l20.897 8.795M14.521 36.819l5.646-2.49" stroke="#C888FF"/><path stroke="#885AFA" d="M49 39.25L40 43l-9-3.75v-28.5L40 7l9 3.75z"/><path stroke="#885AFA" d="M49 10.75l-9 3.75-9-3.75"/><path d="M40 39V18" stroke="#C888FF"/><path stroke="#885AFA" d="M27.938 37.563L20 34.248V16.75l7.875-3.374M27.875 19.5L20 16.75"/></g></symbol><symbol viewBox="0 0 22 31" id="mouse" xmlns="http://www.w3.org/2000/svg"><g transform="translate(1 1)" stroke="inherit" stroke-width="2" fill="none" fill-rule="evenodd" stroke-linecap="round" stroke-linejoin="round"><rect x=".5" y=".88" width="18.67" height="28" rx="9.33"/><path d="M11.7 9.28a1.87 1.87 0 1 1-3.73 0V7.4a1.87 1.87 0 1 1 3.73 0v1.87z"/></g></symbol><symbol viewBox="0 0 11 17" id="ok" xmlns="http://www.w3.org/2000/svg"><path d="M5.52.853A3.901 3.901 0 0 0 1.621 4.75a3.901 3.901 0 0 0 3.897 3.897A3.901 3.901 0 0 0 9.417 4.75 3.901 3.901 0 0 0 5.519.853zm0 5.846A1.95 1.95 0 0 1 3.57 4.75a1.95 1.95 0 0 1 1.95-1.949A1.95 1.95 0 0 1 7.467 4.75a1.95 1.95 0 0 1-1.949 1.949z"/><path d="M10.687 8.54a.973.973 0 0 0-1.377 0 5.367 5.367 0 0 1-7.58 0A.974.974 0 1 0 .352 9.918 7.263 7.263 0 0 0 4.685 12l-2.778 2.78a.973.973 0 1 0 1.378 1.378l2.234-2.234 2.234 2.234a.972.972 0 0 0 1.378 0 .973.973 0 0 0 0-1.378l-2.778-2.778a7.263 7.263 0 0 0 4.333-2.083.975.975 0 0 0 .001-1.379z"/></symbol><symbol viewBox="0 0 83 48" id="pattern-hive" xmlns="http://www.w3.org/2000/svg"><defs><path id="bba" d="M0 0h83v48H0z"/></defs><g fill="none" fill-rule="evenodd"><mask id="bbb" fill="#fff"><use xlink:href="#bba"/></mask><g mask="url(#bbb)" stroke="#FFF" stroke-linecap="round" stroke-linejoin="round"><path d="M13.5 24h-14 14zm70 0h-14 14zm-28-24h-28 28zm0 48h-28 28zm-42-24l14-24-14 24zm56 0l-14-24 14 24zm-56 0l14 24-14-24zm56 0l-14 24 14-24z"/></g></g></symbol><symbol viewBox="0 0 24 24" id="plus" xmlns="http://www.w3.org/2000/svg"><path d="M19 13h-6v6h-2v-6H5v-2h6V5h2v6h6v2z"/></symbol><symbol viewBox="0 0 52 52" id="programming" xmlns="http://www.w3.org/2000/svg"><g stroke-width="2" fill="none" fill-rule="evenodd" stroke-linejoin="round"><path stroke="#885AFA" stroke-linecap="round" d="M18.308 45.241H2.923V31.78"/><path d="M23.115 46.683h1.923M26.962 46.683h1.923" stroke="#885AFA"/><path d="M31.77 46.683h6.73" stroke="#FF1DB0" stroke-linecap="round"/><path d="M40.423 46.683h1.923M44.27 46.683h1.922M23.115 41.876h1.923M26.962 41.876h1.923M31.77 41.876h1.922M35.615 41.876h1.923M40.423 41.876h1.923M44.27 41.876h1.922M27.026 37.549H48.82c1.203 0 2.179 1.005 2.179 2.243v8.975c0 1.238-.976 2.243-2.18 2.243H20.488c-1.203 0-2.18-1.005-2.18-2.243v-8.975c0-1.238.977-2.243 2.18-2.243h4.36" stroke="#885AFA"/><path d="M40.152 38.51V24.774c0-1.518 1.214-2.747 2.712-2.747 1.498 0 2.712 1.23 2.712 2.747v7.692c0 1.518 1.214 2.748 2.712 2.748 1.498 0 2.712-1.23 2.712-2.748V7.741H29.846" stroke="#885AFA"/><path stroke="#FF1DB0" d="M13.906 4.58l1.268-3.57h4.344l1.268 3.57 3.163 1.308 3.42-1.626 3.072 3.071-1.626 3.42 1.308 3.162 3.57 1.269v4.344l-3.57 1.269-1.308 3.161 1.626 3.42-3.072 3.072-3.42-1.626-3.163 1.309-1.268 3.57h-4.344l-1.268-3.57-3.162-1.31-3.42 1.627-3.071-3.071 1.626-3.42-1.309-3.162L1 19.528v-4.344l3.57-1.269 1.309-3.161-1.626-3.421 3.07-3.07 3.421 1.625z"/><path d="M17.346 13.51a3.846 3.846 0 1 1 0 7.693 3.846 3.846 0 0 1 0-7.693z" stroke="#885AFA"/><path d="M35.615 12.068H51" stroke="#885AFA" stroke-linecap="round"/></g></symbol><symbol viewBox="0 0 52 52" id="prototype" xmlns="http://www.w3.org/2000/svg"><g stroke-width="2" fill="none" fill-rule="evenodd" stroke-linecap="round" stroke-linejoin="round"><path stroke="#885AFA" d="M45.596 47V4h-39"/><path stroke="#885AFA" d="M49.596 44V1h-39"/><path stroke="#885AFA" d="M2.596 50h39V7h-39z"/><path stroke="#885AFA" d="M17 17h4v-4h-4zM17 29h4v-4h-4zM17 41h4v-4h-4zM24.999 17h4v-4h-4zM25 29h4v-4h-4zM25 41h4v-4h-4zM32.998 17h4v-4h-4zM33 29h4v-4h-4zM33 41h4v-4h-4z"/><path d="M17 20h4M17 32.06h4M17 44.177h4M24.999 20h4M24.999 32.06h4M24.999 44.177h4M32.998 20h4M32.998 32.06h4M32.998 44.177h4M7 13h4M7 25h3M7 37h4M7 16h4M7 28h2M7 40h3M7 19h3M7 31h1M7 43h4" stroke="#FF1DB0"/></g></symbol><symbol viewBox="0 0 44 44" id="thumbsup" xmlns="http://www.w3.org/2000/svg"><path class="bfst1" d="M37.7 22.9c-.2-.5-.4-.9-.7-1.3-.1-.1-.4-.5-.5-1-.2-.5-.3-1-.3-1.6 0-1.9-1.5-3.4-3.4-3.4h-6.3l.3-1c.4-1.4.7-3.3.7-4.9 0-.8-.1-1.6-.4-2.3-.4-1.2-1.3-2.2-2.4-2.9-.5-.3-1.1-.5-1.7-.5-1.8 0-3.2 1.5-3.1 3.2v.5c0 .5 0 1.7-.5 3.8-.1.3-.3.9-.7 1.5-.8 1.2-1.7 2.3-2.7 3.4l-.2.2-.1.1c-.4.4-.7.8-.9 1.3H8.1c-.6-.1-1.1.4-1.1 1v16.8c0 .7.5 1.2 1.1 1.2h6.7c.6 0 1.1-.5 1.1-1.1v-2.3c.7.8 1.5 1.5 2.4 1.9l2.1 1.1c1.9.9 4.2 1.4 6.2 1.5.7 0 1.3-.1 1.9-.2l3.4-.9h.2l1.1-.6c.3-.2.6-.4.8-.6.7-.8 1.2-1.8 1.5-2.8v-.1c.3-1.1.8-3.1 1.2-4.2l.8-2.5c.5-1.2.5-2.3.2-3.3zM9.2 20.1h4.5v14.6H9.2V20.1zm26.3 5.2l-.8 2.5c-.4 1.2-1 3.1-1.3 4.4v.1c-.2.7-.5 1.3-.9 1.9l-.1.1-1 .5-3.4.8c-.3.1-.8.2-1.4.1-1.6 0-3.8-.5-5.2-1.2l-2.1-1.1c-1-.5-1.8-1.4-2.4-2.3-.6-.9-1-2-1-3.2v-7.1c.1-1 .6-2 1.2-2.7 0 0 .9-.9 1.9-2.1.5-.6 1-1.3 1.4-2 .4-.7.8-1.4 1-2.1.4-1.5.6-3.1.6-4.7 0-.5.4-1 1-1 .1 0 .4 0 .7.3.4.2.9.7 1.3 1.7.1.3.2.9.2 1.5 0 1.3-.3 3-.7 4.4-.2.8-.4 1.5-.7 2.3v.8c0 .1.1.1.1.2s.1.1.1.2.1.1.2.1.1.1.2.1h8.3c.3 0 .6.1.8.3.2.2.3.5.3.8 0 .8.2 1.5.4 2.3.2.7.5 1.4 1 1.9 0 0 .1.1.2.4.3.6.3 1.2.1 1.8z"/></symbol><symbol viewBox="0 0 24 24" id="twitter" xmlns="http://www.w3.org/2000/svg"><path d="M22.46 6c-.77.35-1.6.58-2.46.69.88-.53 1.56-1.37 1.88-2.38-.83.5-1.75.85-2.72 1.05C18.37 4.5 17.26 4 16 4c-2.35 0-4.27 1.92-4.27 4.29 0 .34.04.67.11.98C8.28 9.09 5.11 7.38 3 4.79c-.37.63-.58 1.37-.58 2.15 0 1.49.75 2.81 1.91 3.56-.71 0-1.37-.2-1.95-.5v.03c0 2.08 1.48 3.82 3.44 4.21a4.22 4.22 0 0 1-1.93.07 4.28 4.28 0 0 0 4 2.98 8.521 8.521 0 0 1-5.33 1.84c-.34 0-.68-.02-1.02-.06C3.44 20.29 5.7 21 8.12 21 16 21 20.33 14.46 20.33 8.79c0-.19 0-.37-.01-.56.84-.6 1.56-1.36 2.14-2.23z"/></symbol><symbol viewBox="0 0 52 52" id="tz" xmlns="http://www.w3.org/2000/svg"><g stroke-width="2" fill="none" fill-rule="evenodd" stroke-linecap="round" stroke-linejoin="round"><path stroke="#FF1DB0" d="M29.187 6.483l3.811 1.021 2.855-2.95 3.793 2.19-1.128 3.947 2.79 2.79 3.949-1.127 2.19 3.792-2.951 2.855 1.021 3.812 3.983.997v4.38l-3.983.997-1.021 3.812 2.95 2.855-2.19 3.792-3.947-1.128-2.79 2.79 1.127 3.949-3.793 2.19-2.855-2.95-3.811 1.021"/><path d="M29.187 37.03c6.092-1.196 10.06-7.104 8.863-13.195a11.242 11.242 0 0 0-11.028-9.074c-.346 0-.686.018-1.022.05" stroke="#885AFA"/><path d="M26 29.947a3.88 3.88 0 0 0 1.022.14 4.087 4.087 0 0 0 2.284-7.476M5.565 16.804H2.5M5.565 12.717H2.5" stroke="#FF1DB0"/><path d="M2.5 6.587h8.174" stroke="#885AFA"/><path d="M13.74 16.804h-3.066M13.74 12.717h-3.066" stroke="#FF1DB0"/><path d="M10.674 6.587h8.174M14.76 29.109v2.043M14.76 34.196v2.043" stroke="#885AFA"/><path d="M14.76 39.283v2.043M6.587 29.109v2.043M6.587 34.196v2.043" stroke="#FF1DB0"/><path d="M6.587 39.283v2.043" stroke="#885AFA"/><path d="M21.913 16.804h-3.065M21.913 12.717h-3.065" stroke="#FF1DB0"/><path stroke="#885AFA" d="M2.5 49.5h8.174V20.891H2.5zM10.674 49.5h8.174V20.891h-8.174zM2.5 20.891h8.174V2.5H2.5zM10.674 20.891h8.174V2.5h-8.174zM18.848 49.5H26v-47h-7.152z"/></g></symbol><symbol viewBox="0 0 52 52" id="ux" xmlns="http://www.w3.org/2000/svg"><g fill="none" fill-rule="evenodd"><path d="M3 33V5c0-1.1.9-2 2-2h42a2 2 0 0 1 2 2v12M27 38H5a2 2 0 0 1-2-2v-3h24m-6 5v1l-1 5v1m-3 0h11" stroke="#885AFA" stroke-width="2"/><path d="M30 21c0-1.1.9-2 2-2h15a2 2 0 0 1 2 2v26a2 2 0 0 1-2 2H32a2 2 0 0 1-2-2V21z" stroke="#C888FF" stroke-width="2"/><path d="M40.5 45.5a.5.5 0 1 1-1 0 .5.5 0 0 1 1 0" stroke="#885AFA"/><path d="M35.5 20v1a1 1 0 0 0 1 1h6a1 1 0 0 0 1-1v-1" stroke="#C888FF" stroke-width="2"/></g></symbol><symbol viewBox="0 0 18 11" id="vk" xmlns="http://www.w3.org/2000/svg"><path d="M16.96 9.24a1.252 1.252 0 0 0-.057-.117c-.296-.56-.861-1.248-1.696-2.064l-.017-.018-.01-.01-.008-.009h-.009c-.379-.38-.619-.635-.719-.766-.184-.249-.225-.5-.124-.756.07-.193.337-.6.799-1.223.242-.33.435-.594.577-.793 1.024-1.432 1.467-2.347 1.331-2.745l-.053-.093C16.94.59 16.847.538 16.7.492c-.148-.047-.337-.055-.568-.024l-2.557.019a.316.316 0 0 0-.177.005L13.28.52l-.044.023-.036.028a.404.404 0 0 0-.097.098.65.65 0 0 0-.089.163 15.607 15.607 0 0 1-.95 2.101c-.219.386-.42.72-.604 1.004a4.804 4.804 0 0 1-.461.625 3.284 3.284 0 0 1-.338.322c-.1.081-.177.116-.23.103a6.238 6.238 0 0 1-.152-.037.61.61 0 0 1-.2-.23 1.064 1.064 0 0 1-.101-.363 4.217 4.217 0 0 1-.031-.378 8.307 8.307 0 0 1 .004-.449c.006-.193.009-.323.009-.392 0-.236.004-.493.013-.77l.022-.658c.007-.162.01-.333.01-.514 0-.18-.011-.322-.032-.424a1.507 1.507 0 0 0-.093-.3A.497.497 0 0 0 9.7.25a.998.998 0 0 0-.297-.126C9.088.048 8.689.008 8.203 0c-1.1-.012-1.808.063-2.122.224a1.207 1.207 0 0 0-.337.28C5.638.642 5.623.717 5.7.73c.355.055.606.19.754.4l.054.113c.041.08.082.224.124.43.041.205.068.432.08.68.03.455.03.844 0 1.168-.03.324-.058.576-.085.756a1.574 1.574 0 0 1-.226.644.157.157 0 0 1-.044.047.636.636 0 0 1-.24.047c-.083 0-.184-.044-.302-.131a2.175 2.175 0 0 1-.368-.36 4.81 4.81 0 0 1-.431-.639c-.16-.274-.325-.597-.497-.97l-.142-.272c-.089-.174-.21-.428-.364-.76a15.15 15.15 0 0 1-.408-.967.613.613 0 0 0-.215-.299L3.347.59a.907.907 0 0 0-.346-.14L.568.468C.32.468.151.527.062.645L.027.701A.315.315 0 0 0 0 .851c0 .068.018.152.053.252.355.877.742 1.724 1.159 2.54.417.815.78 1.471 1.087 1.969.308.498.622.968.941 1.41.32.442.532.725.635.85.104.124.185.217.244.28l.222.223c.142.15.35.329.626.537.275.209.58.414.915.617.334.202.723.367 1.167.494.444.128.876.18 1.296.155h1.021c.207-.02.364-.088.47-.206l.036-.047a.637.637 0 0 0 .067-.172.995.995 0 0 0 .03-.257 3.23 3.23 0 0 1 .058-.723 1.97 1.97 0 0 1 .151-.486 1.192 1.192 0 0 1 .342-.41.565.565 0 0 1 .071-.033c.142-.05.31-.002.502.145.192.146.373.326.542.541.168.215.37.456.608.724.236.267.444.466.621.597l.178.112c.118.075.272.143.461.206.19.062.355.077.497.046l2.273-.037c.225 0 .4-.04.524-.117.124-.078.198-.163.222-.257a.76.76 0 0 0 .004-.317 1.22 1.22 0 0 0-.062-.247z"/></symbol><symbol viewBox="0 0 168 81" id="winner" xmlns="http://www.w3.org/2000/svg"><g fill="#464D53" fill-rule="evenodd"><path d="M126.633 66.532c-.534 1.242-1.844 4.153-.3 8.416 1.854-1.678 4.061-3.52 4.515-6.75.53-3.766-.331-3.12.482-7.743-1.367.825-3.657 3.65-4.697 6.077m-1.432 8.782c2.247 3.897 6.48 4.193 7.86 4.24 2.697.093 7.672-.822 9.333-1.914-4.862-1.04-3.61-1.974-6.99-3.32a6.46 6.46 0 0 0-.705-.233c-2.87-.77-6.787.147-9.497 1.228m10.28-12.332c-.2 1.326-.72 4.45 1.357 7.99 1.205-2.127 2.665-4.515 2.422-7.685-.285-3.69-.868-2.829-1.082-7.41-.964 1.18-2.305 4.516-2.698 7.105m12.073 6.022c-.574-.271-1.21-.56-2.514-.759-2.842-.435-6.808 1.13-9.304 2.756 2.684 2.98 6.744 2.567 8.01 2.329 2.482-.462 6.879-2.272 8.222-3.569-2.795.038-3.533-.34-4.414-.757m-4.916-11.993c.028 1.284.045 4.315 2.73 7.252.837-2.226 1.886-4.741 1.097-7.673-.918-3.414-1.353-2.495-2.354-6.757-.759 1.289-1.527 4.672-1.473 7.178m10.163 2.832c-2.76.244-6.136 2.737-8.133 4.853 3.158 2.206 6.864.78 8.004.264 2.231-1.01 5.977-3.738 6.961-5.274-4.32 1.121-3.617-.126-6.833.156m-4.757-10.798c.308 1.272.99 4.285 4.283 6.549.337-2.42.821-5.183-.599-7.909-1.652-3.173-1.881-2.15-3.802-6.15-.469 1.472-.484 5.029.119 7.51m10.56.514c-2.71.878-5.585 4.14-7.163 6.708 3.591 1.472 7.009-.8 8.048-1.577 2.029-1.519 5.228-5.102 5.91-6.861-4.095 2.113-3.64.709-6.795 1.73m-7.132-9.583c.498 1.149 1.628 3.876 5.086 5.428-.078-2.348-.077-5.046-1.853-7.369-2.07-2.706-2.115-1.698-4.57-5.136-.2 1.475.368 4.84 1.337 7.078m9.753-1.471c-2.367 1.456-4.377 5.193-5.31 7.974 3.71.552 6.443-2.38 7.254-3.354 1.586-1.9 3.833-6.014 4.094-7.827-3.406 2.939-3.281 1.513-6.038 3.207m-7.883-7.489c.644.94 2.13 3.179 5.42 3.984-.502-2.076-.997-4.478-2.97-6.25-2.295-2.064-2.15-1.16-4.917-3.81.099 1.345 1.212 4.246 2.467 6.076m8.426-3.25c-1.866 1.77-3.072 5.516-3.473 8.197 3.35-.232 5.316-3.398 5.885-4.431 1.11-2.015 2.466-6.145 2.423-7.825-2.559 3.305-2.664 2.001-4.836 4.06m-9.035-5.083c.713.72 2.373 2.444 5.53 2.443-.723-1.797-1.482-3.895-3.536-5.08-2.388-1.38-2.14-.581-5.043-2.395.261 1.217 1.654 3.634 3.049 5.032m7.059-5.12c-1.485 2.026-1.808 5.73-1.57 8.279 3.379-.93 4.624-4.26 4.956-5.331.647-2.092 1.035-6.18.58-7.713-1.817 3.584-2.24 2.408-3.967 4.765m-9.188-2.443c.71.605 2.357 2.06 5.28 1.81-.788-1.597-1.63-3.466-3.607-4.395-1.047-.49-1.56-.611-2.071-.732-.614-.143-1.226-.287-2.757-1.074.321 1.099 1.771 3.213 3.155 4.391m5.635-5.964c-.964 2.15-.587 5.59.084 7.862 2.865-1.54 3.38-4.831 3.486-5.876.204-2.036-.185-5.84-.866-7.142-.986 3.638-1.58 2.653-2.704 5.156m-7.123-3.255c.632 2.24 3.141 4.416 5.132 5.543 1.245-3.195-.472-5.92-1.063-6.74-1.151-1.602-3.907-4.028-5.28-4.456 1.577 3.315.478 3.049 1.211 5.653m4.235 5.012c1.328 3.037 2.427 6.359 3.298 9.984 5.131 21.336-7.297 46.167-27.618 52.023-.182.052-11.704 3.431-14.273 5.48-1.116.89-.35 2.403.304 1.89 2.345-1.838 5.672-3.177 7.233-3.905 2.613-1.217 6.435-2.155 6.435-2.155 21.13-5.775 34.074-29.34 29.04-53.082a48.488 48.488 0 0 0-3.625-10.752 46.81 46.81 0 0 1-.794.517M41.035 66.532c.535 1.242 1.845 4.153.302 8.415-1.855-1.677-4.062-3.52-4.515-6.75-.53-3.765.33-3.12-.483-7.742 1.367.824 3.657 3.649 4.697 6.076m1.431 8.783c-2.246 3.896-6.478 4.193-7.858 4.24-2.698.093-7.673-.823-9.335-1.914 4.864-1.04 3.611-1.974 6.99-3.321a6.46 6.46 0 0 1 .707-.233c2.869-.768 6.786.148 9.496 1.228M32.188 62.983c.2 1.326.72 4.449-1.359 7.99-1.204-2.127-2.663-4.515-2.421-7.685.284-3.69.869-2.829 1.083-7.41.964 1.18 2.305 4.516 2.697 7.105m-12.073 6.021c.575-.27 1.21-.559 2.515-.758 2.84-.435 6.807 1.13 9.303 2.756-2.684 2.98-6.743 2.567-8.011 2.329-2.48-.462-6.877-2.272-8.221-3.57 2.794.039 3.532-.34 4.414-.757m4.916-11.993c-.029 1.285-.045 4.316-2.73 7.253-.837-2.226-1.885-4.741-1.096-7.674.917-3.413 1.352-2.495 2.353-6.756.76 1.288 1.527 4.672 1.473 7.177m-10.163 2.832c2.761.245 6.136 2.737 8.133 4.854-3.158 2.205-6.863.78-8.005.263-2.23-1.009-5.976-3.737-6.96-5.274 4.32 1.122 3.618-.125 6.833.157m4.757-10.798c-.307 1.272-.989 4.285-4.282 6.548-.338-2.419-.822-5.183.598-7.908 1.652-3.174 1.882-2.151 3.802-6.15.469 1.471.484 5.029-.118 7.51m-10.561.514c2.708.878 5.586 4.14 7.163 6.707-3.592 1.473-7.009-.799-8.047-1.576-2.03-1.519-5.23-5.102-5.91-6.862 4.094 2.114 3.64.71 6.794 1.73m7.132-9.582c-.498 1.148-1.628 3.876-5.086 5.428.078-2.349.076-5.046 1.853-7.369 2.07-2.706 2.116-1.698 4.57-5.136.2 1.475-.37 4.84-1.337 7.077m-9.753-1.47c2.367 1.455 4.377 5.193 5.31 7.974-3.709.552-6.443-2.38-7.253-3.354C2.913 41.225.667 37.111.405 35.299c3.407 2.939 3.282 1.512 6.039 3.207m7.883-7.489c-.643.94-2.13 3.179-5.42 3.983.503-2.075.998-4.477 2.97-6.25 2.294-2.063 2.15-1.16 4.918-3.81-.1 1.346-1.213 4.247-2.468 6.077m-8.426-3.25c1.867 1.77 3.071 5.516 3.474 8.196-3.351-.231-5.317-3.397-5.886-4.43-1.11-2.015-2.466-6.145-2.422-7.825 2.558 3.305 2.663 2 4.834 4.06m9.037-5.083c-.714.72-2.374 2.444-5.53 2.443.722-1.797 1.48-3.895 3.535-5.08 2.388-1.38 2.14-.581 5.042-2.395-.26 1.217-1.653 3.634-3.047 5.032m-7.06-5.12c1.485 2.026 1.808 5.73 1.57 8.279-3.379-.93-4.623-4.261-4.956-5.331-.647-2.092-1.035-6.181-.58-7.713 1.817 3.584 2.241 2.408 3.967 4.765m9.189-2.443c-.71.604-2.358 2.06-5.282 1.81.79-1.597 1.63-3.466 3.609-4.395 1.046-.49 1.56-.611 2.07-.732.614-.143 1.226-.287 2.758-1.074-.322 1.099-1.772 3.213-3.155 4.391m-5.636-5.964c.964 2.15.587 5.59-.084 7.862-2.864-1.541-3.38-4.831-3.485-5.876-.205-2.036.183-5.84.865-7.142.986 3.638 1.58 2.653 2.704 5.156m7.123-3.255c-.631 2.24-3.14 4.415-5.132 5.543-1.244-3.196.472-5.92 1.062-6.74C15.637 3.105 18.394.679 19.765.25c-1.575 3.315-.477 3.049-1.21 5.653m-4.235 5.012c-1.329 3.037-2.427 6.359-3.3 9.984-5.129 21.336 7.299 46.167 27.62 52.022.182.053 11.704 3.432 14.273 5.48 1.116.89.351 2.404-.304 1.891-2.346-1.839-5.672-3.177-7.233-3.905-2.612-1.217-6.434-2.155-6.434-2.155-21.13-5.775-34.076-29.34-29.04-53.083a48.488 48.488 0 0 1 3.624-10.751c.263.176.528.346.794.517"/></g></symbol></svg>