<?xml version="1.0" encoding="utf-8"?><svg xmlns="http://www.w3.org/2000/svg" xmlns:xlink="http://www.w3.org/1999/xlink"><symbol viewBox="0 0 24 24" id="cart" xmlns="http://www.w3.org/2000/svg"><path d="M17 18c-1.11 0-2 .89-2 2a2 2 0 0 0 2 2 2 2 0 0 0 2-2 2 2 0 0 0-2-2M1 2v2h2l3.6 7.59-1.36 2.45c-.15.28-.24.61-.24.96a2 2 0 0 0 2 2h12v-2H7.42a.25.25 0 0 1-.25-.25c0-.05.01-.09.03-.12L8.1 13h7.45c.75 0 1.41-.42 1.75-1.03l3.58-6.47c.07-.16.12-.33.12-.5a1 1 0 0 0-1-1H5.21l-.94-2M7 18c-1.11 0-2 .89-2 2a2 2 0 0 0 2 2 2 2 0 0 0 2-2 2 2 0 0 0-2-2z"/></symbol><symbol viewBox="0 0 24 24" id="check" xmlns="http://www.w3.org/2000/svg"><path d="M21 7L9 19l-5.5-5.5 1.41-1.41L9 16.17 19.59 5.59 21 7z"/></symbol><symbol viewBox="0 0 24 24" id="chevron-down" xmlns="http://www.w3.org/2000/svg"><path d="M7.41 8.58L12 13.17l4.59-4.59L18 10l-6 6-6-6 1.41-1.42z"/></symbol><symbol viewBox="0 0 24 24" id="chevron-left" xmlns="http://www.w3.org/2000/svg"><path d="M15.41 16.58L10.83 12l4.58-4.59L14 6l-6 6 6 6 1.41-1.42z"/></symbol><symbol viewBox="0 0 24 24" id="chevron-right" xmlns="http://www.w3.org/2000/svg"><path d="M8.59 16.58L13.17 12 8.59 7.41 10 6l6 6-6 6-1.41-1.42z"/></symbol><symbol viewBox="0 0 24 24" id="chevron-up" xmlns="http://www.w3.org/2000/svg"><path d="M7.41 15.41L12 10.83l4.59 4.58L18 14l-6-6-6 6 1.41 1.41z"/></symbol><symbol viewBox="0 0 24 24" id="close" xmlns="http://www.w3.org/2000/svg"><path d="M19 6.41L17.59 5 12 10.59 6.41 5 5 6.41 10.59 12 5 17.59 6.41 19 12 13.41 17.59 19 19 17.59 13.41 12 19 6.41z"/></symbol><symbol viewBox="0 0 24 24" id="facebook" xmlns="http://www.w3.org/2000/svg"><path d="M17 2v4h-2c-.69 0-1 .81-1 1.5V10h3v4h-3v8h-4v-8H7v-4h3V6a4 4 0 0 1 4-4h3z"/></symbol><symbol viewBox="0 0 24 24" id="minus" xmlns="http://www.w3.org/2000/svg"><path d="M19 13H5v-2h14v2z"/></symbol><symbol viewBox="0 0 24 24" id="plus" xmlns="http://www.w3.org/2000/svg"><path d="M19 13h-6v6h-2v-6H5v-2h6V5h2v6h6v2z"/></symbol><symbol viewBox="0 0 24 24" id="twitter" xmlns="http://www.w3.org/2000/svg"><path d="M22.46 6c-.77.35-1.6.58-2.46.69.88-.53 1.56-1.37 1.88-2.38-.83.5-1.75.85-2.72 1.05C18.37 4.5 17.26 4 16 4c-2.35 0-4.27 1.92-4.27 4.29 0 .34.04.67.11.98C8.28 9.09 5.11 7.38 3 4.79c-.37.63-.58 1.37-.58 2.15 0 1.49.75 2.81 1.91 3.56-.71 0-1.37-.2-1.95-.5v.03c0 2.08 1.48 3.82 3.44 4.21a4.22 4.22 0 0 1-1.93.07 4.28 4.28 0 0 0 4 2.98 8.521 8.521 0 0 1-5.33 1.84c-.34 0-.68-.02-1.02-.06C3.44 20.29 5.7 21 8.12 21 16 21 20.33 14.46 20.33 8.79c0-.19 0-.37-.01-.56.84-.6 1.56-1.36 2.14-2.23z"/></symbol><symbol viewBox="0 0 24 24" id="vk" xmlns="http://www.w3.org/2000/svg"><path d="M19.54 14.6c1.55 1.44 1.87 2.13 1.92 2.22.64 1.06-.7 1.14-.7 1.14l-2.58.04s-.56.11-1.28-.39c-.97-.66-1.9-2.39-2.59-2.16-.71.23-.69 1.78-.69 1.78s0 .22-.16.39c-.18.19-.53.12-.53.12h-1.15S9.23 18 7 15.67c-2.45-2.54-4.61-7.54-4.61-7.54s-.12-.3.01-.47c.15-.16.57-.16.57-.16h2.76s.27 0 .44.16c.15.11.24.34.24.34s.44 1.11 1.04 2.13c1.15 1.99 1.68 2.42 2.05 2.21.6-.31.43-2.81.43-2.81s.01-.91-.29-1.31c-.23-.31-.67-.41-.86-.43-.16-.02.1-.38.43-.55C9.71 7 10.58 7 11.62 7c.81 0 1.04.06 1.35.13.96.23.63 1.12.63 3.24 0 .69-.1 1.63.37 1.96.21.14.73.02 2.03-2.17.6-1.04 1.06-2.27 1.06-2.27s.1-.21.25-.31c.16-.08.38-.08.38-.08h2.9s.88-.1 1.02.29c.15.41-.33 1.38-1.52 2.95-1.94 2.6-2.16 2.36-.55 3.86z"/></symbol></svg>