<?xml version="1.0" encoding="utf-8"?><svg xmlns="http://www.w3.org/2000/svg" xmlns:xlink="http://www.w3.org/1999/xlink"><symbol viewBox="0 0 24 24" id="check" xmlns="http://www.w3.org/2000/svg"><path d="M21 7L9 19l-5.5-5.5 1.41-1.41L9 16.17 19.59 5.59 21 7z"/></symbol><symbol viewBox="0 0 24 24" id="chevron-down" xmlns="http://www.w3.org/2000/svg"><path d="M7.41 8.58L12 13.17l4.59-4.59L18 10l-6 6-6-6 1.41-1.42z"/></symbol><symbol viewBox="0 0 24 24" id="chevron-left" xmlns="http://www.w3.org/2000/svg"><path d="M15.41 16.58L10.83 12l4.58-4.59L14 6l-6 6 6 6 1.41-1.42z"/></symbol><symbol viewBox="0 0 24 24" id="chevron-right" xmlns="http://www.w3.org/2000/svg"><path d="M8.59 16.58L13.17 12 8.59 7.41 10 6l6 6-6 6-1.41-1.42z"/></symbol><symbol viewBox="0 0 24 24" id="chevron-up" xmlns="http://www.w3.org/2000/svg"><path d="M7.41 15.41L12 10.83l4.59 4.58L18 14l-6-6-6 6 1.41 1.41z"/></symbol><symbol viewBox="0 0 24 24" id="close" xmlns="http://www.w3.org/2000/svg"><path d="M19 6.41L17.59 5 12 10.59 6.41 5 5 6.41 10.59 12 5 17.59 6.41 19 12 13.41 17.59 19 19 17.59 13.41 12 19 6.41z"/></symbol><symbol viewBox="0 0 9 17" id="facebook" xmlns="http://www.w3.org/2000/svg"><path d="M4.762 16.34V8.516h2.766l.437-2.593H4.762v-1.3C4.762 3.946 5 3.3 6.04 3.3h2.08V.71H5.167c-2.482 0-3.16 1.526-3.16 3.642V5.92H.305v2.594h1.704v7.826h2.754z"/></symbol><symbol viewBox="0 0 24 24" id="minus" xmlns="http://www.w3.org/2000/svg"><path d="M19 13H5v-2h14v2z"/></symbol><symbol viewBox="0 0 48 46" id="motion" xmlns="http://www.w3.org/2000/svg"><path d="M44.486 25.817a.726.726 0 0 0-.934 1.109c1.96 1.65 2.997 3.511 2.997 5.386 0 6.011-10.09 10.901-22.49 10.901-12.401 0-22.49-4.89-22.49-10.901 0-.872.23-1.738.667-2.584l1.05.907.813-4.262-4.1 1.426 1.119.965c-.651 1.145-1 2.334-1 3.548 0 6.926 10.515 12.352 23.94 12.353h.002C37.484 44.664 48 39.238 48 32.312c0-2.316-1.215-4.562-3.514-6.495" fill="#C888FF"/><path d="M8.658 17.405l8.684 3.879 5.99 2.675v15.62L8.658 33.023V17.405zm9.277-4.793l-1.512 3.378a.726.726 0 0 0 .367.958l6.972 3.114c.012.006.025.003.037.008a.735.735 0 0 0 .256.055h.007a.74.74 0 0 0 .257-.055c.012-.005.025-.002.036-.008l6.972-3.114a.731.731 0 0 0 .383-.403.717.717 0 0 0-.016-.555l-1.512-3.377 8.223 3.673-14.347 6.408-14.346-6.408 8.223-3.674zm5.397 5.669l-5.288-2.361 5.288-11.81v14.17zm1.453-14.17l5.29 11.809-5.29 2.36V4.11zm14.676 28.912l-14.677 6.556v-15.62l14.677-6.554v15.618zM7.637 34.156l16.125 7.204c.012.005.024.003.036.008a.718.718 0 0 0 .257.055h.006a.718.718 0 0 0 .257-.055c.012-.005.025-.003.036-.008l16.13-7.204a.727.727 0 0 0 .43-.662V16.286a.739.739 0 0 0-.115-.382c-.007-.012-.016-.022-.023-.033a.73.73 0 0 0-.145-.151c-.016-.014-.03-.031-.05-.043-.022-.014-.047-.022-.07-.035-.012-.005-.02-.013-.03-.018l-11.188-4.997L24.721.42c-.014-.036-.04-.06-.06-.091-.019-.03-.036-.06-.059-.086a.636.636 0 0 0-.099-.088c-.03-.023-.057-.048-.09-.067-.037-.021-.076-.033-.115-.046-.03-.011-.057-.03-.089-.036-.009-.002-.019 0-.029 0C24.14-.002 24.1 0 24.06 0c-.042 0-.083-.003-.122.005-.01 0-.02-.002-.03 0-.033.007-.06.026-.09.037-.038.013-.077.025-.112.045-.034.019-.063.044-.093.068a.663.663 0 0 0-.097.086c-.024.027-.04.058-.06.088-.02.03-.045.055-.06.09l-4.57 10.206-11.189 4.998c-.015.006-.026.017-.04.024-.019.01-.04.017-.059.029-.016.01-.028.025-.043.037a.568.568 0 0 0-.139.14.636.636 0 0 0-.043.06.744.744 0 0 0-.055.118c-.007.02-.017.038-.023.059a.747.747 0 0 0-.028.195v17.208c0 .286.168.546.43.662z" fill="#885AFA"/></symbol><symbol viewBox="0 0 11 17" id="ok" xmlns="http://www.w3.org/2000/svg"><path d="M5.52.853A3.901 3.901 0 0 0 1.621 4.75a3.901 3.901 0 0 0 3.897 3.897A3.901 3.901 0 0 0 9.417 4.75 3.901 3.901 0 0 0 5.519.853zm0 5.846A1.95 1.95 0 0 1 3.57 4.75a1.95 1.95 0 0 1 1.95-1.949A1.95 1.95 0 0 1 7.467 4.75a1.95 1.95 0 0 1-1.949 1.949z"/><path d="M10.687 8.54a.973.973 0 0 0-1.377 0 5.367 5.367 0 0 1-7.58 0A.974.974 0 1 0 .352 9.918 7.263 7.263 0 0 0 4.685 12l-2.778 2.78a.973.973 0 1 0 1.378 1.378l2.234-2.234 2.234 2.234a.972.972 0 0 0 1.378 0 .973.973 0 0 0 0-1.378l-2.778-2.778a7.263 7.263 0 0 0 4.333-2.083.975.975 0 0 0 .001-1.379z"/></symbol><symbol viewBox="0 0 24 24" id="plus" xmlns="http://www.w3.org/2000/svg"><path d="M19 13h-6v6h-2v-6H5v-2h6V5h2v6h6v2z"/></symbol><symbol viewBox="0 0 24 24" id="twitter" xmlns="http://www.w3.org/2000/svg"><path d="M22.46 6c-.77.35-1.6.58-2.46.69.88-.53 1.56-1.37 1.88-2.38-.83.5-1.75.85-2.72 1.05C18.37 4.5 17.26 4 16 4c-2.35 0-4.27 1.92-4.27 4.29 0 .34.04.67.11.98C8.28 9.09 5.11 7.38 3 4.79c-.37.63-.58 1.37-.58 2.15 0 1.49.75 2.81 1.91 3.56-.71 0-1.37-.2-1.95-.5v.03c0 2.08 1.48 3.82 3.44 4.21a4.22 4.22 0 0 1-1.93.07 4.28 4.28 0 0 0 4 2.98 8.521 8.521 0 0 1-5.33 1.84c-.34 0-.68-.02-1.02-.06C3.44 20.29 5.7 21 8.12 21 16 21 20.33 14.46 20.33 8.79c0-.19 0-.37-.01-.56.84-.6 1.56-1.36 2.14-2.23z"/></symbol><symbol viewBox="0 0 18 11" id="vk" xmlns="http://www.w3.org/2000/svg"><path d="M16.96 9.24a1.252 1.252 0 0 0-.057-.117c-.296-.56-.861-1.248-1.696-2.064l-.017-.018-.01-.01-.008-.009h-.009c-.379-.38-.619-.635-.719-.766-.184-.249-.225-.5-.124-.756.07-.193.337-.6.799-1.223.242-.33.435-.594.577-.793 1.024-1.432 1.467-2.347 1.331-2.745l-.053-.093C16.94.59 16.847.538 16.7.492c-.148-.047-.337-.055-.568-.024l-2.557.019a.316.316 0 0 0-.177.005L13.28.52l-.044.023-.036.028a.404.404 0 0 0-.097.098.65.65 0 0 0-.089.163 15.607 15.607 0 0 1-.95 2.101c-.219.386-.42.72-.604 1.004a4.804 4.804 0 0 1-.461.625 3.284 3.284 0 0 1-.338.322c-.1.081-.177.116-.23.103a6.238 6.238 0 0 1-.152-.037.61.61 0 0 1-.2-.23 1.064 1.064 0 0 1-.101-.363 4.217 4.217 0 0 1-.031-.378 8.307 8.307 0 0 1 .004-.449c.006-.193.009-.323.009-.392 0-.236.004-.493.013-.77l.022-.658c.007-.162.01-.333.01-.514 0-.18-.011-.322-.032-.424a1.507 1.507 0 0 0-.093-.3A.497.497 0 0 0 9.7.25a.998.998 0 0 0-.297-.126C9.088.048 8.689.008 8.203 0c-1.1-.012-1.808.063-2.122.224a1.207 1.207 0 0 0-.337.28C5.638.642 5.623.717 5.7.73c.355.055.606.19.754.4l.054.113c.041.08.082.224.124.43.041.205.068.432.08.68.03.455.03.844 0 1.168-.03.324-.058.576-.085.756a1.574 1.574 0 0 1-.226.644.157.157 0 0 1-.044.047.636.636 0 0 1-.24.047c-.083 0-.184-.044-.302-.131a2.175 2.175 0 0 1-.368-.36 4.81 4.81 0 0 1-.431-.639c-.16-.274-.325-.597-.497-.97l-.142-.272c-.089-.174-.21-.428-.364-.76a15.15 15.15 0 0 1-.408-.967.613.613 0 0 0-.215-.299L3.347.59a.907.907 0 0 0-.346-.14L.568.468C.32.468.151.527.062.645L.027.701A.315.315 0 0 0 0 .851c0 .068.018.152.053.252.355.877.742 1.724 1.159 2.54.417.815.78 1.471 1.087 1.969.308.498.622.968.941 1.41.32.442.532.725.635.85.104.124.185.217.244.28l.222.223c.142.15.35.329.626.537.275.209.58.414.915.617.334.202.723.367 1.167.494.444.128.876.18 1.296.155h1.021c.207-.02.364-.088.47-.206l.036-.047a.637.637 0 0 0 .067-.172.995.995 0 0 0 .03-.257 3.23 3.23 0 0 1 .058-.723 1.97 1.97 0 0 1 .151-.486 1.192 1.192 0 0 1 .342-.41.565.565 0 0 1 .071-.033c.142-.05.31-.002.502.145.192.146.373.326.542.541.168.215.37.456.608.724.236.267.444.466.621.597l.178.112c.118.075.272.143.461.206.19.062.355.077.497.046l2.273-.037c.225 0 .4-.04.524-.117.124-.078.198-.163.222-.257a.76.76 0 0 0 .004-.317 1.22 1.22 0 0 0-.062-.247z"/></symbol></svg>