<?xml version="1.0" encoding="utf-8"?><svg xmlns="http://www.w3.org/2000/svg" xmlns:xlink="http://www.w3.org/1999/xlink"><symbol viewBox="0 0 92 90" id="1" xmlns="http://www.w3.org/2000/svg"><g fill="none" fill-rule="evenodd"><path d="M1.45 86.39c-.1 1.1.64 2.09 1.93 2.09 1.23 0 1.87-.9 1.87-1.86 0-1.3-1.05-1.68-2.07-2.03C2.07 84.22.4 83.63.4 81.6c0-1.68 1.15-3 3.09-3a2.82 2.82 0 0 1 2.94 2.9H4.98c.02-.95-.65-1.6-1.54-1.6-1.02 0-1.6.69-1.6 1.59 0 1.23 1.09 1.62 2.08 1.93 1.27.41 2.78.96 2.78 2.97 0 1.95-1.25 3.4-3.44 3.4-2.22 0-3.26-1.63-3.26-3.4h1.45z" fill="#FFF"/><path d="M19.83 86.86c1.41 0 2.6-1.18 2.6-2.76 0-1.58-1.19-2.73-2.6-2.73-1.4 0-2.6 1.15-2.6 2.73s1.2 2.76 2.6 2.76m0-8.52c3.95 0 5.84 3.1 5.84 5.76 0 2.66-1.9 5.78-5.84 5.78A5.67 5.67 0 0 1 14 84.1c0-2.65 1.9-5.76 5.83-5.76" fill="#FF3EDA"/><path d="M34.42 80.16h-1.66v-1.3h1.66v-.46c0-.74.13-1.37.46-1.91.3-.47.73-.88 1.21-1.15.63-.36 1.31-.5 2.13-.5h.3v1.32h-.3c-.43 0-2.36.03-2.36 2.24v.45h3.48v-3.77h1.44v3.77h2.48v1.3h-2.48v9.38h-1.44v-9.37h-3.48v9.37h-1.44v-9.37zm16.49 9.37h1.45V75.08H50.9zm11.13-5.29a4.24 4.24 0 0 0 8.47.02 4.24 4.24 0 1 0-8.47-.02zm9.84 5.3H70.5v-2h-.04a4.78 4.78 0 0 1-4.16 2.24 5.55 5.55 0 0 1-5.72-5.66 5.48 5.48 0 0 1 5.68-5.52c.92 0 2.91.13 4.2 2.1h.04v-1.85h1.37v10.68zm10.02-5.28a4.18 4.18 0 0 0 4.17 4.22c2.32 0 4.27-1.8 4.27-4.24a4.2 4.2 0 0 0-4.23-4.33 4.22 4.22 0 0 0-4.22 4.35zm.07-9.18v5.6H82a4.72 4.72 0 0 1 4.1-2.08c3.92 0 5.68 3.02 5.68 5.64a5.51 5.51 0 0 1-5.72 5.54 4.74 4.74 0 0 1-4.14-2.08h-.04v1.83h-1.37V75.08h1.45zM45.9 46.33a14.43 14.43 0 0 1-11.38-23.25l.8.62A13.42 13.42 0 0 0 45.9 45.33a13.42 13.42 0 1 0-1.67-26.7l-.13-1.01a14.43 14.43 0 0 1 16.2 14.3c0 7.95-6.46 14.41-14.4 14.41m1.05-32.73c-.25-.02-.49-.03-.74-.03l.02-.75.76.03-.04.75zm-2.2 0l-.05-.75.76-.03.02.75c-.25 0-.5.02-.74.03zm3.66.14a18.1 18.1 0 0 0-.73-.09l.07-.74.76.08-.1.75zm-5.13.01l-.1-.74.76-.1.07.75a17 17 0 0 0-.73.1zm6.58.24l-.72-.14.13-.74.75.15-.16.73zm-8.02.03l-.17-.74.75-.15.14.74-.72.15zm9.44.35l-.71-.2.2-.73.73.21-.22.72zm-10.86.03l-.23-.72.74-.21.2.72-.71.2zm12.25.46c-.23-.1-.46-.18-.7-.26l.26-.7c.24.08.48.16.71.26l-.27.7zm-13.63.03l-.29-.7.72-.27.25.71-.68.26zm14.97.56l-.66-.3.3-.7.7.33-.34.67zm-16.31.04l-.34-.67.7-.32.3.68-.66.31zm17.6.67c-.2-.13-.42-.25-.63-.37l.35-.66c.23.13.45.25.67.39l-.39.64zm-18.88.04l-.4-.64.67-.38.36.65c-.21.12-.43.24-.63.37zm20.11.76l-.6-.41.4-.63.64.43-.44.61zm-21.34.05l-.44-.6c.21-.16.42-.3.63-.44l.42.62-.6.42zm22.5.85l-.56-.46.46-.59.59.48-.48.57zm-23.66.05l-.48-.57.6-.48.45.59-.57.46zm24.75.94a17.9 17.9 0 0 0-.53-.5l.5-.56.56.53-.53.53zm-25.83.06l-.53-.53.56-.53.5.55a17 17 0 0 0-.53.5zm26.84 1.02l-.5-.55.55-.51c.18.18.35.37.51.57l-.56.49zm-27.84.05l-.57-.48.51-.57.55.5-.49.55zm28.75 1.1l-.44-.59.58-.47.47.61-.6.44zm-29.66.06l-.6-.44.46-.61.58.46-.44.59zm30.48 1.15l-.4-.62.63-.41.41.64-.64.4zm-31.3.07l-.64-.39.42-.64.62.41a17 17 0 0 0-.4.62zm32.02 1.21c-.1-.22-.22-.43-.34-.65l.65-.36.36.67-.67.34zm-32.73.08l-.67-.34c.11-.23.23-.46.36-.68l.65.37-.34.65zm33.35 1.25l-.3-.67.68-.32.31.7-.7.29zm-33.96.09l-.7-.29.3-.7.69.31-.3.68zm34.47 1.29l-.24-.7.7-.25.25.72-.71.23zm-34.97.1l-.72-.24.25-.72.7.25-.23.7zm35.36 1.31l-.18-.7.72-.2.19.73-.73.17zm-35.75.1l-.73-.17.18-.74.73.2c-.07.23-.13.47-.18.7zm36.03 1.35l-.13-.73.74-.14c.05.25.1.5.13.75l-.74.12zm-36.3.1l-.74-.12.12-.75.74.14-.12.72zM64.2 30.6a18.1 18.1 0 0 0-.07-.74l.75-.08.07.76-.75.06zm-36.62.1l-.75-.06.07-.76.75.08-.07.73zM65 32.06h-.75v-.15l-.01-.59.75-.02v.76zm-38.2.1v-.76l.75.02v.73l-.75.01zm38.12 1.43l-.74-.07.05-.73.75.04-.06.76zm-38.05.1l-.05-.76.75-.04.05.73-.75.07zm37.86 1.42l-.74-.13c.04-.24.08-.48.1-.72l.75.09-.1.76zm-37.65.1c-.05-.26-.09-.5-.12-.76l.74-.1.11.73-.73.12zm37.34 1.4l-.73-.19.16-.71.74.15-.17.75zm-37.02.09l-.18-.74.74-.16.16.71-.72.19zm36.58 1.37l-.7-.24.21-.7.72.21-.23.73zm-36.14.1a21.6 21.6 0 0 1-.23-.73l.71-.22.23.7-.71.24zm35.59 1.33l-.69-.3c.1-.22.2-.45.28-.68l.7.27c-.1.24-.19.48-.3.71zm-35.03.09l-.3-.7.7-.28.28.67-.68.3zm.67 1.37l-.35-.68.67-.33.34.65-.66.36zm.77 1.31l-.4-.65.65-.38.38.62-.63.41zm.89 1.25l-.46-.62.62-.43.43.6-.6.45zm.97 1.17l-.5-.57.58-.48.48.55-.56.5zm1.07 1.1l-.54-.54.53-.52.53.51-.52.55zm1.15 1c-.2-.16-.4-.32-.58-.49l.49-.56.56.47-.47.58zm1.23.92l-.62-.45.44-.6.6.43-.42.62zm1.3.8a20.2 20.2 0 0 1-.66-.39l.4-.63.63.38-.37.65zm1.36.71c-.23-.1-.46-.22-.69-.34l.35-.66.66.32-.32.68zm1.41.6l-.7-.29.28-.69.69.27-.27.7zm12.76.2l-.24-.7.7-.26.26.7c-.24.1-.48.18-.72.26zm-11.3.27l-.73-.22.23-.72.7.22-.2.72zm9.83.16l-.18-.73a19 19 0 0 0 .71-.19l.2.72-.73.2zm-8.34.2c-.25-.05-.5-.1-.75-.17l.18-.73.71.16-.14.74zm6.84.1l-.12-.73.72-.14.15.74a19 19 0 0 1-.75.14zm-5.33.13l-.76-.1.12-.74.73.1-.1.74zm3.81.06l-.06-.74.73-.08.1.75-.77.07zM45.2 51a21.4 21.4 0 0 1-.76-.04l.06-.75.73.04-.03.75zm.77.01v-.75c.24 0 .49 0 .73-.02l.03.75-.76.02z" fill="#FFF"/><path d="M45.87 58.3a26.4 26.4 0 0 1-19.86-9l2.37-2.08a23.25 23.25 0 0 0 40.72-15.3A23.26 23.26 0 0 0 45.87 8.68c-12.2 0-22.4 9.53-23.19 21.7l-3.14-.21A26.44 26.44 0 0 1 45.87 5.53a26.42 26.42 0 0 1 26.38 26.39A26.42 26.42 0 0 1 45.87 58.3" fill="#FF3EDA"/><path d="M45.9 63.84a31.96 31.96 0 0 1-31.93-31.92A31.96 31.96 0 0 1 56.08 1.66l-.36 1.3-.04-.01a30.58 30.58 0 1 0-9.79 59.54 30.6 30.6 0 0 0 27.42-44.1l1.21-.6a32.03 32.03 0 0 1 3.3 14.13 31.96 31.96 0 0 1-31.93 31.92" fill="#FFF"/></g></symbol><symbol viewBox="0 0 52 52" id="branding" xmlns="http://www.w3.org/2000/svg"><g fill="none" fill-rule="evenodd"><path d="M26 19V5" stroke="#C888FF" stroke-width="2"/><path d="M15 4h9m-9 0a2 2 0 1 1-4 0 2 2 0 0 1 4 0zm13 0h9m0 0a2 2 0 1 0 4 0 2 2 0 0 0-4 0z" stroke="#885AFA" stroke-width="2"/><path stroke="#C888FF" stroke-width="2" d="M24 5V2h4v3"/><path d="M27.5 19a1.5 1.5 0 1 1-3 0 1.5 1.5 0 0 1 3 0" fill="#885AFA"/><path d="M21 35v6a5 5 0 0 1-5 5m15-11v6a5 5 0 0 0 5 5" stroke="#C888FF" stroke-width="2" stroke-linecap="round" stroke-linejoin="round"/><path d="M19 32h14" stroke="#885AFA" stroke-width="2" stroke-linecap="round"/><path d="M36 32h14M3 32h14" stroke="#885AFA" stroke-width="2" stroke-linecap="round" stroke-dasharray="1,3"/><path d="M24 6h4" stroke="#C888FF" stroke-width="2"/><path d="M44 4h5v10.83h-4A3.83 3.83 0 0 0 41.17 11H30M8 4H3v10.83h4A3.83 3.83 0 0 1 10.83 11H22M6 49h40" stroke="#885AFA" stroke-width="2" stroke-linecap="round"/><path d="M28 5c0 2.08.37 3.63 1.1 5.54l3.1 8.25c1.72 4.6.6 6.92-2.78 10.21M24 5c0 2.08-.34 3.63-1.06 5.54L19.8 18.8c-1.74 4.6-.62 6.92 2.8 10.21" stroke="#C888FF" stroke-width="2" stroke-linecap="round" stroke-linejoin="round"/></g></symbol><symbol viewBox="0 0 24 24" id="check" xmlns="http://www.w3.org/2000/svg"><path d="M21 7L9 19l-5.5-5.5 1.41-1.41L9 16.17 19.59 5.59 21 7z"/></symbol><symbol viewBox="0 0 24 24" id="chevron-down" xmlns="http://www.w3.org/2000/svg"><path d="M7.41 8.58L12 13.17l4.59-4.59L18 10l-6 6-6-6 1.41-1.42z"/></symbol><symbol viewBox="0 0 24 24" id="chevron-left" xmlns="http://www.w3.org/2000/svg"><path d="M15.41 16.58L10.83 12l4.58-4.59L14 6l-6 6 6 6 1.41-1.42z"/></symbol><symbol viewBox="0 0 24 24" id="chevron-right" xmlns="http://www.w3.org/2000/svg"><path d="M8.59 16.58L13.17 12 8.59 7.41 10 6l6 6-6 6-1.41-1.42z"/></symbol><symbol viewBox="0 0 24 24" id="chevron-up" xmlns="http://www.w3.org/2000/svg"><path d="M7.41 15.41L12 10.83l4.59 4.58L18 14l-6-6-6 6 1.41 1.41z"/></symbol><symbol viewBox="0 0 20 20" id="close" xmlns="http://www.w3.org/2000/svg"><g fill-rule="evenodd"><rect width="24" height="2" x="-2" y="9" rx="1" transform="scale(1 -1) rotate(45 34.142 0)"/><rect width="24" height="2" x="-2" y="9" rx="1" transform="rotate(45 10 10)"/></g></symbol><symbol viewBox="0 0 9 17" id="facebook" xmlns="http://www.w3.org/2000/svg"><path d="M4.762 16.34V8.516h2.766l.437-2.593H4.762v-1.3C4.762 3.946 5 3.3 6.04 3.3h2.08V.71H5.167c-2.482 0-3.16 1.526-3.16 3.642V5.92H.305v2.594h1.704v7.826h2.754z"/></symbol><symbol viewBox="0 0 52 52" id="icon-design-mobile-linear" xmlns="http://www.w3.org/2000/svg"><path class="jst0" d="M14 41h24"/><path class="jst1" d="M38 12h-2.3c-.4 0-.8.3-.9.7l-.5 1.4c-.1.3-.3.5-.6.6l-1.4.6c-.3.1-.6.1-.8 0l-1.4-.7c-.4-.2-.8-.1-1.1.2L27.8 16c-.3.3-.4.8-.2 1.1l.7 1.4c.1.3.1.6 0 .8l-.6 1.4c-.1.3-.3.5-.6.6l-1.4.5c-.4.1-.7.5-.7.9v1.6c0 .4.3.8.7.9l1.4.5c.3.1.5.3.6.6l.6 1.4c.1.3.1.6 0 .8l-.7 1.4c-.2.4-.1.8.2 1.1l1.2 1.2c.3.3.8.4 1.1.2l1.4-.7c.3-.1.5-.1.8 0l1.4.6c.3.1.5.3.6.6L35 35"/><path class="jst2" d="M22.7 5l.7 1.8c.1.3.3.5.6.6l1.3.5c.4.1.7.5.7.9v1.6c0 .4-.3.8-.7.9l-1.3.5c-.3.1-.5.3-.6.6l-.6 1.4c-.1.3-.1.5 0 .8l.6 1.4c.2.4.1.8-.2 1.1l-1.1 1.1c-.3.3-.8.4-1.2.2l-1.3-.6c-.3-.1-.6-.1-.8 0l-1.3.6c-.3.1-.5.3-.6.6l-.5 1.4c-.1.4-.5.7-.9.7H14M34.7 21.6c.9-.7 2.3-.8 3.3-.1v3c-1 .7-2.5.6-3.4-.2-.8-.8-.8-2 .1-2.7z"/><path class="jst1" d="M14 7.6c.9-.8 2.4-.7 3.3.1.9.8.9 2.1-.1 2.8-.9.7-2.3.7-3.3 0V7.6z"/><path d="M26.5 44.5c0 .3-.2.5-.5.5s-.5-.2-.5-.5.2-.5.5-.5.5.2.5.5" fill="none" stroke="#c888ff" stroke-width="2" stroke-miterlimit="10"/><path class="jst0" d="M14 7.2C14 5.4 15.4 4 17.2 4h17.7C36.6 4 38 5.4 38 7.2v37.6c0 1.8-1.4 3.2-3.2 3.2H17.2c-1.7 0-3.2-1.4-3.2-3.2V7.2z"/></symbol><symbol class="klogo__circle" viewBox="0 0 65 64" id="logo-circle" xmlns="http://www.w3.org/2000/svg"><path class="klogo__circle-1" d="M32.895 46.33c-7.946 0-14.411-6.464-14.411-14.41a14.27 14.27 0 0 1 3.031-8.842l.796.618a13.275 13.275 0 0 0-2.818 8.223c0 7.39 6.012 13.404 13.402 13.404s13.403-6.013 13.403-13.404c0-7.39-6.012-13.402-13.403-13.402-.56 0-1.123.034-1.672.103l-.125-1a14.623 14.623 0 0 1 1.797-.111c7.946 0 14.411 6.464 14.411 14.41 0 7.947-6.465 14.412-14.41 14.412m1.052-32.735a16.93 16.93 0 0 0-.735-.027l.013-.75c.256.004.51.013.764.028l-.042.749zm-2.204.006l-.046-.749c.253-.015.508-.026.764-.032l.017.75a19.79 19.79 0 0 0-.735.03zm3.667.135a18.093 18.093 0 0 0-.73-.085l.071-.746c.255.024.509.054.76.088l-.101.743zm-5.129.014l-.105-.743c.252-.035.505-.067.759-.092l.076.746c-.244.025-.487.054-.73.089zm6.576.244c-.238-.053-.479-.1-.721-.143l.132-.74c.251.046.502.095.75.15l-.161.733zm-8.02.02l-.165-.73c.248-.057.498-.108.75-.154l.134.738c-.241.044-.48.094-.718.147zm9.44.353a19.04 19.04 0 0 0-.708-.2l.19-.727c.248.066.493.135.736.21l-.219.717zm-10.86.029l-.223-.716c.243-.076.488-.147.735-.213l.193.724c-.236.064-.472.132-.704.205zm12.248.459c-.228-.09-.457-.176-.69-.258l.25-.707c.24.084.48.174.717.267l-.277.698zm-13.63.035l-.281-.696a18.1 18.1 0 0 1 .715-.271l.252.706c-.23.083-.46.17-.686.261zm14.977.563a16.904 16.904 0 0 0-.667-.312l.305-.686c.233.104.465.213.694.326l-.332.672zm-16.314.04l-.335-.672c.227-.113.457-.223.69-.327l.307.683c-.222.1-.443.206-.662.315zm17.605.665c-.21-.126-.424-.248-.639-.366l.36-.658c.223.122.445.249.664.38l-.385.644zm-18.889.042l-.388-.642c.217-.132.438-.26.661-.382l.363.657c-.215.118-.427.24-.636.367zm20.12.762c-.199-.141-.402-.28-.607-.414l.41-.628c.214.14.424.284.632.432l-.435.61zm-21.344.047l-.438-.61a22.6 22.6 0 0 1 .629-.433l.413.626c-.204.135-.406.274-.604.417zm22.507.854a17.926 17.926 0 0 0-.573-.462l.46-.592c.202.156.4.316.595.48l-.482.574zm-23.665.05l-.484-.573c.194-.164.391-.324.592-.481l.462.59c-.192.15-.383.305-.57.464zm24.75.94a17.012 17.012 0 0 0-.533-.506l.506-.554c.188.171.373.347.555.526l-.528.533zm-25.831.054l-.529-.532c.18-.18.365-.356.552-.528l.509.552c-.181.166-.359.335-.532.508zm26.836 1.019c-.16-.186-.324-.368-.492-.547l.548-.512c.174.186.344.375.51.568l-.566.49zm-27.836.057l-.57-.487c.167-.194.335-.384.51-.571l.548.51c-.165.18-.329.362-.488.548zm28.75 1.09a19.973 19.973 0 0 0-.446-.583l.588-.467c.158.2.312.401.463.607l-.604.444zm-29.661.065l-.607-.441c.15-.207.305-.41.464-.611l.587.466c-.152.192-.3.387-.444.586zm30.484 1.153c-.13-.208-.263-.414-.4-.617l.622-.419c.142.211.28.425.414.64l-.636.396zm-31.3.07l-.64-.391c.132-.218.27-.434.412-.646l.622.417c-.135.204-.267.41-.395.62zm32.02 1.208a19.764 19.764 0 0 0-.348-.646l.653-.369c.124.222.244.446.36.672l-.665.343zm-32.737.077l-.67-.339c.116-.228.236-.454.36-.677l.655.367c-.12.213-.234.43-.345.649zm33.35 1.253c-.093-.226-.192-.45-.295-.67l.681-.316c.108.23.21.464.307.7l-.693.286zm-33.96.085l-.695-.282c.096-.237.198-.472.304-.705l.682.312a20.19 20.19 0 0 0-.292.675zm34.467 1.293a18.46 18.46 0 0 0-.24-.693l.704-.26a22 22 0 0 1 .25.723l-.714.23zm-34.969.094l-.714-.228c.077-.244.159-.486.246-.725l.705.255c-.083.23-.162.463-.237.698zm35.364 1.322a20.604 20.604 0 0 0-.183-.712l.722-.2c.068.244.132.49.19.739l-.73.173zm-35.75.095l-.732-.169c.059-.249.12-.496.187-.742l.724.198c-.065.236-.125.474-.18.713zm36.029 1.348a17.555 17.555 0 0 0-.126-.724l.737-.143c.048.249.091.5.13.753l-.741.114zm-36.3.096l-.744-.11c.038-.253.08-.505.127-.754l.737.139c-.045.24-.084.482-.12.725zM51.2 30.595a19.59 19.59 0 0 0-.067-.73l.745-.084c.029.253.052.507.07.762l-.748.052zm-36.618.099l-.748-.05c.017-.256.038-.51.066-.762l.745.08a17.46 17.46 0 0 0-.063.732zm37.413 1.38l-.75-.011.001-.145c0-.196-.003-.392-.009-.587l.75-.025c.006.204.01.408.01.612l-.002.156zm-38.2.096l-.003-.248c0-.175.002-.345.007-.514l.75.019c-.005.164-.007.327-.007.491l.002.246-.75.006zm38.128 1.43l-.747-.066c.021-.243.038-.488.05-.733l.748.035c-.012.256-.028.51-.05.764zm-38.05.098a21.044 21.044 0 0 1-.055-.762l.749-.039c.013.245.03.49.053.733l-.747.068zm37.857 1.42l-.74-.125c.04-.241.077-.483.108-.727l.744.094c-.033.255-.07.507-.112.758zm-37.655.096a17.78 17.78 0 0 1-.116-.755l.744-.099c.032.243.07.486.11.726l-.738.128zm37.34 1.402l-.727-.186c.06-.236.116-.474.166-.714l.733.153c-.051.25-.11.5-.172.747zm-37.017.093a20.26 20.26 0 0 1-.177-.744l.734-.158c.051.24.107.479.169.715l-.726.187zm36.582 1.373l-.71-.242c.078-.231.153-.465.223-.7l.72.213c-.073.245-.151.488-.233.729zm-36.141.091c-.083-.24-.16-.483-.235-.726l.718-.218c.071.236.146.469.226.7l-.71.244zm35.589 1.338l-.687-.301c.097-.224.19-.45.278-.679l.7.27c-.092.24-.19.476-.291.71zm-35.031.085c-.102-.232-.2-.468-.293-.705l.699-.273c.088.227.182.453.28.676l-.686.302zm.669 1.37a21.61 21.61 0 0 1-.349-.678l.674-.33c.108.22.22.438.336.654l-.661.354zm.778 1.315c-.138-.214-.272-.43-.402-.649l.645-.382c.126.21.253.418.387.624l-.63.407zm.88 1.249a22.7 22.7 0 0 1-.451-.615l.612-.434c.14.2.286.399.435.593l-.596.456zm.977 1.174a21.49 21.49 0 0 1-.5-.576l.576-.481c.158.188.318.373.482.556l-.558.501zm1.07 1.095a19.342 19.342 0 0 1-.546-.537l.536-.524c.171.175.347.347.524.515l-.515.546zm1.151 1.005a18.55 18.55 0 0 1-.586-.491l.493-.565c.185.16.372.318.563.473l-.47.583zm1.229.912c-.21-.144-.417-.291-.623-.443l.446-.603c.198.146.397.288.6.427l-.423.619zm1.3.81c-.222-.126-.44-.256-.658-.391l.396-.637c.209.129.42.255.633.377l-.372.651zm1.36.705a18.305 18.305 0 0 1-.689-.339l.346-.665c.217.113.437.22.66.325l-.318.68zm1.413.593a18.74 18.74 0 0 1-.713-.282l.29-.692c.226.095.454.186.685.271l-.262.703zm12.754.208l-.237-.711c.232-.078.462-.162.69-.249l.267.702c-.237.09-.477.176-.72.258zM27.68 50.3a19.97 19.97 0 0 1-.732-.223l.233-.713c.232.077.467.148.703.215l-.204.721zm9.83.159l-.18-.727c.237-.06.474-.123.709-.192l.209.72c-.244.072-.49.138-.739.199zm-8.342.198c-.252-.05-.5-.104-.747-.163l.174-.73c.238.058.477.11.717.157l-.144.736zm6.843.11l-.121-.74c.242-.04.484-.084.723-.133l.15.735c-.248.05-.499.097-.752.138zm-5.333.126a19.415 19.415 0 0 1-.758-.102l.115-.741c.242.037.485.07.73.099l-.087.744zm3.815.062l-.061-.748c.246-.02.489-.046.73-.075l.093.744c-.252.032-.506.057-.762.079zm-2.29.054c-.256-.01-.51-.024-.764-.043l.056-.748c.244.018.489.032.734.04l-.026.75zm.764.012l-.003-.75c.247-.001.492-.007.735-.017l.032.749c-.252.011-.507.017-.764.018z"/><path class="klogo__circle-2" d="M32.867 58.307a26.394 26.394 0 0 1-19.861-9.013l2.37-2.075a23.246 23.246 0 0 0 17.49 7.938c12.814 0 23.238-10.424 23.238-23.238 0-12.813-10.424-23.237-23.237-23.237-12.205 0-22.39 9.529-23.187 21.693l-3.144-.205c.906-13.816 12.471-24.638 26.33-24.638 14.55 0 26.388 11.837 26.388 26.387 0 14.551-11.837 26.388-26.387 26.388"/><path class="klogo__circle-3" d="M32.894 63.84c-17.6 0-31.92-14.32-31.92-31.92C.974 14.319 15.294 0 32.894 0c3.487 0 6.916.559 10.19 1.661l-.367 1.301-.034-.012a30.578 30.578 0 0 0-9.789-1.6c-16.856 0-30.569 13.714-30.569 30.57s13.713 30.57 30.57 30.57c16.856 0 30.57-13.714 30.57-30.57a30.418 30.418 0 0 0-3.152-13.535l1.209-.6a32.034 32.034 0 0 1 1.605 3.864 31.901 31.901 0 0 1 1.688 10.271c0 17.6-14.32 31.92-31.92 31.92"/></symbol><symbol class="llogo__text" viewBox="0 0 264 45" id="logo-text" xmlns="http://www.w3.org/2000/svg"><g fill="none" fill-rule="evenodd"><path class="llogo__text-1" d="M4.155 34.152c-.282 3.144 1.85 6.005 5.557 6.005 3.536 0 5.388-2.58 5.388-5.332 0-3.76-3.03-4.826-5.951-5.837-3.198-1.067-8.026-2.751-8.026-8.588 0-4.828 3.312-8.645 8.87-8.645 5.051 0 8.531 3.649 8.477 8.364h-4.155c.054-2.751-1.852-4.603-4.435-4.603-2.92 0-4.602 1.964-4.602 4.547 0 3.537 3.144 4.658 6.006 5.557 3.648 1.18 7.971 2.751 7.971 8.532 0 5.615-3.592 9.768-9.88 9.768-6.4 0-9.375-4.66-9.375-9.768h4.155z"/><path class="llogo__text-2" d="M57.025 35.5c4.041 0 7.465-3.367 7.465-7.915 0-4.547-3.424-7.86-7.465-7.86-4.043 0-7.467 3.313-7.467 7.86 0 4.548 3.424 7.916 7.467 7.916m0-24.476c11.338 0 16.782 8.927 16.782 16.56 0 7.635-5.444 16.616-16.782 16.616-11.34 0-16.784-8.98-16.784-16.616 0-7.633 5.445-16.56 16.784-16.56"/><path class="llogo__text-3" d="M98.944 16.245h-4.77v-3.76h4.77v-1.292c0-2.132.394-3.93 1.347-5.5a9.837 9.837 0 0 1 3.48-3.313c1.797-1.01 3.761-1.403 6.12-1.403h.841v3.76h-.84c-1.234 0-6.793.112-6.793 6.456v1.292h9.992V1.65h4.153v10.835h7.13v3.76h-7.13V43.19h-4.153V16.245h-9.992V43.19h-4.155V16.245zm47.422 26.945h4.155V1.65h-4.155zm31.993-15.213c0 7.017 5.724 12.181 12.294 12.181 6.734 0 12.069-5.388 12.069-12.125 0-6.96-5.22-12.517-12.183-12.517-6.68 0-12.18 5.333-12.18 12.461zM206.65 43.19h-3.929v-5.725h-.112c-1.742 2.637-5.276 6.456-11.957 6.456-9.205 0-16.447-6.736-16.447-16.28 0-7.299 5.332-15.887 16.333-15.887 2.64 0 8.364.394 12.07 6.063h.113v-5.332h3.929V43.19zm28.786-15.156c0 6.736 5.335 12.124 12.012 12.124 6.68 0 12.293-5.164 12.293-12.18 0-7.129-5.276-12.461-12.18-12.461-6.905 0-12.125 5.5-12.125 12.517zm.224-26.384v16.11h.112c2.752-4.21 7.187-6.007 11.789-6.007 11.283 0 16.335 8.7 16.335 16.224 0 9.092-7.072 15.94-16.448 15.94-5.05 0-9.149-1.964-11.898-6.004h-.114v5.276h-3.929V1.65h4.153z"/></g></symbol><symbol viewBox="0 0 24 24" id="minus" xmlns="http://www.w3.org/2000/svg"><path d="M19 13H5v-2h14v2z"/></symbol><symbol viewBox="0 0 52 52" id="mobile" xmlns="http://www.w3.org/2000/svg"><path class="nst0" d="M14 41h24"/><path class="nst1" d="M38 12h-2.3c-.4 0-.8.3-.9.7l-.5 1.4c-.1.3-.3.5-.6.6l-1.4.6c-.3.1-.6.1-.8 0l-1.4-.7c-.4-.2-.8-.1-1.1.2L27.8 16c-.3.3-.4.8-.2 1.1l.7 1.4c.1.3.1.6 0 .8l-.6 1.4c-.1.3-.3.5-.6.6l-1.4.5c-.4.1-.7.5-.7.9v1.6c0 .4.3.8.7.9l1.4.5c.3.1.5.3.6.6l.6 1.4c.1.3.1.6 0 .8l-.7 1.4c-.2.4-.1.8.2 1.1l1.2 1.2c.3.3.8.4 1.1.2l1.4-.7c.3-.1.5-.1.8 0l1.4.6c.3.1.5.3.6.6L35 35"/><path class="nst2" d="M22.7 5l.7 1.8c.1.3.3.5.6.6l1.3.5c.4.1.7.5.7.9v1.6c0 .4-.3.8-.7.9l-1.3.5c-.3.1-.5.3-.6.6l-.6 1.4c-.1.3-.1.5 0 .8l.6 1.4c.2.4.1.8-.2 1.1l-1.1 1.1c-.3.3-.8.4-1.2.2l-1.3-.6c-.3-.1-.6-.1-.8 0l-1.3.6c-.3.1-.5.3-.6.6l-.5 1.4c-.1.4-.5.7-.9.7H14M34.7 21.6c.9-.7 2.3-.8 3.3-.1v3c-1 .7-2.5.6-3.4-.2-.8-.8-.8-2 .1-2.7z"/><path class="nst1" d="M14 7.6c.9-.8 2.4-.7 3.3.1.9.8.9 2.1-.1 2.8-.9.7-2.3.7-3.3 0V7.6z"/><path d="M26.5 44.5c0 .3-.2.5-.5.5s-.5-.2-.5-.5.2-.5.5-.5.5.2.5.5" fill="none" stroke="#c888ff" stroke-width="2" stroke-miterlimit="10"/><path class="nst0" d="M14 7.2C14 5.4 15.4 4 17.2 4h17.7C36.6 4 38 5.4 38 7.2v37.6c0 1.8-1.4 3.2-3.2 3.2H17.2c-1.7 0-3.2-1.4-3.2-3.2V7.2z"/></symbol><symbol viewBox="0 0 52 52" id="motion" xmlns="http://www.w3.org/2000/svg"><g stroke-width="2" fill="none" fill-rule="evenodd" stroke-linecap="round" stroke-linejoin="round"><path d="M40 43l-12.376 5.689c-.606.271-1.305.332-1.921.085a3.262 3.262 0 0 1 1.21-6.29L6.261 33.789a3.261 3.261 0 0 0-1.423 6.195l20.897 8.795M14.521 36.819l5.646-2.49" stroke="#C888FF"/><path stroke="#885AFA" d="M49 39.25L40 43l-9-3.75v-28.5L40 7l9 3.75z"/><path stroke="#885AFA" d="M49 10.75l-9 3.75-9-3.75"/><path d="M40 39V18" stroke="#C888FF"/><path stroke="#885AFA" d="M27.938 37.563L20 34.248V16.75l7.875-3.374M27.875 19.5L20 16.75"/></g></symbol><symbol viewBox="0 0 11 17" id="ok" xmlns="http://www.w3.org/2000/svg"><path d="M5.52.853A3.901 3.901 0 0 0 1.621 4.75a3.901 3.901 0 0 0 3.897 3.897A3.901 3.901 0 0 0 9.417 4.75 3.901 3.901 0 0 0 5.519.853zm0 5.846A1.95 1.95 0 0 1 3.57 4.75a1.95 1.95 0 0 1 1.95-1.949A1.95 1.95 0 0 1 7.467 4.75a1.95 1.95 0 0 1-1.949 1.949z"/><path d="M10.687 8.54a.973.973 0 0 0-1.377 0 5.367 5.367 0 0 1-7.58 0A.974.974 0 1 0 .352 9.918 7.263 7.263 0 0 0 4.685 12l-2.778 2.78a.973.973 0 1 0 1.378 1.378l2.234-2.234 2.234 2.234a.972.972 0 0 0 1.378 0 .973.973 0 0 0 0-1.378l-2.778-2.778a7.263 7.263 0 0 0 4.333-2.083.975.975 0 0 0 .001-1.379z"/></symbol><symbol viewBox="0 0 24 24" id="plus" xmlns="http://www.w3.org/2000/svg"><path d="M19 13h-6v6h-2v-6H5v-2h6V5h2v6h6v2z"/></symbol><symbol viewBox="0 0 18 27" id="scroll" xmlns="http://www.w3.org/2000/svg"><path d="M8.963 0C4.025 0 .009 4.024.009 8.97v8.985c0 4.946 4.016 8.97 8.954 8.97 4.937 0 8.953-4.024 8.953-8.97V8.97C17.916 4.024 13.9 0 8.963 0zm7.959 17.955c0 4.396-3.57 7.973-7.96 7.973-4.388 0-7.958-3.577-7.958-7.973V8.97c0-4.397 3.57-7.974 7.959-7.974 4.388 0 7.959 3.577 7.959 7.974v8.984z"/><path d="M13.451 15.717a.455.455 0 0 0 0-.656.472.472 0 0 0-.656 0L9.43 18.383V7.421a.46.46 0 0 0-.465-.458.464.464 0 0 0-.471.458v10.962l-3.358-3.322a.48.48 0 0 0-.663 0 .455.455 0 0 0 0 .656l4.16 4.108a.46.46 0 0 0 .657 0l4.16-4.108z"/></symbol><symbol viewBox="0 0 24 24" id="twitter" xmlns="http://www.w3.org/2000/svg"><path d="M22.46 6c-.77.35-1.6.58-2.46.69.88-.53 1.56-1.37 1.88-2.38-.83.5-1.75.85-2.72 1.05C18.37 4.5 17.26 4 16 4c-2.35 0-4.27 1.92-4.27 4.29 0 .34.04.67.11.98C8.28 9.09 5.11 7.38 3 4.79c-.37.63-.58 1.37-.58 2.15 0 1.49.75 2.81 1.91 3.56-.71 0-1.37-.2-1.95-.5v.03c0 2.08 1.48 3.82 3.44 4.21a4.22 4.22 0 0 1-1.93.07 4.28 4.28 0 0 0 4 2.98 8.521 8.521 0 0 1-5.33 1.84c-.34 0-.68-.02-1.02-.06C3.44 20.29 5.7 21 8.12 21 16 21 20.33 14.46 20.33 8.79c0-.19 0-.37-.01-.56.84-.6 1.56-1.36 2.14-2.23z"/></symbol><symbol viewBox="0 0 52 52" id="ux" xmlns="http://www.w3.org/2000/svg"><g fill="none" fill-rule="evenodd"><path d="M3 33V5a2 2 0 0 1 2-2h42a2 2 0 0 1 2 2v12M27 38H5a2 2 0 0 1-2-2v-3h24M21 38v1l-1 5v1M17 45h11" stroke="#885AFA" stroke-width="2"/><path d="M30 21a2 2 0 0 1 2-2h15a2 2 0 0 1 2 2v26a2 2 0 0 1-2 2H32a2 2 0 0 1-2-2V21z" stroke="#C888FF" stroke-width="2"/><path d="M41 45a1 1 0 1 1-2 0 1 1 0 0 1 2 0" fill="#885AFA"/><path d="M35.5 20v1a1 1 0 0 0 1 1h6a1 1 0 0 0 1-1v-1" stroke="#C888FF" stroke-width="2"/></g></symbol><symbol viewBox="0 0 18 11" id="vk" xmlns="http://www.w3.org/2000/svg"><path d="M16.96 9.24a1.252 1.252 0 0 0-.057-.117c-.296-.56-.861-1.248-1.696-2.064l-.017-.018-.01-.01-.008-.009h-.009c-.379-.38-.619-.635-.719-.766-.184-.249-.225-.5-.124-.756.07-.193.337-.6.799-1.223.242-.33.435-.594.577-.793 1.024-1.432 1.467-2.347 1.331-2.745l-.053-.093C16.94.59 16.847.538 16.7.492c-.148-.047-.337-.055-.568-.024l-2.557.019a.316.316 0 0 0-.177.005L13.28.52l-.044.023-.036.028a.404.404 0 0 0-.097.098.65.65 0 0 0-.089.163 15.607 15.607 0 0 1-.95 2.101c-.219.386-.42.72-.604 1.004a4.804 4.804 0 0 1-.461.625 3.284 3.284 0 0 1-.338.322c-.1.081-.177.116-.23.103a6.238 6.238 0 0 1-.152-.037.61.61 0 0 1-.2-.23 1.064 1.064 0 0 1-.101-.363 4.217 4.217 0 0 1-.031-.378 8.307 8.307 0 0 1 .004-.449c.006-.193.009-.323.009-.392 0-.236.004-.493.013-.77l.022-.658c.007-.162.01-.333.01-.514 0-.18-.011-.322-.032-.424a1.507 1.507 0 0 0-.093-.3A.497.497 0 0 0 9.7.25a.998.998 0 0 0-.297-.126C9.088.048 8.689.008 8.203 0c-1.1-.012-1.808.063-2.122.224a1.207 1.207 0 0 0-.337.28C5.638.642 5.623.717 5.7.73c.355.055.606.19.754.4l.054.113c.041.08.082.224.124.43.041.205.068.432.08.68.03.455.03.844 0 1.168-.03.324-.058.576-.085.756a1.574 1.574 0 0 1-.226.644.157.157 0 0 1-.044.047.636.636 0 0 1-.24.047c-.083 0-.184-.044-.302-.131a2.175 2.175 0 0 1-.368-.36 4.81 4.81 0 0 1-.431-.639c-.16-.274-.325-.597-.497-.97l-.142-.272c-.089-.174-.21-.428-.364-.76a15.15 15.15 0 0 1-.408-.967.613.613 0 0 0-.215-.299L3.347.59a.907.907 0 0 0-.346-.14L.568.468C.32.468.151.527.062.645L.027.701A.315.315 0 0 0 0 .851c0 .068.018.152.053.252.355.877.742 1.724 1.159 2.54.417.815.78 1.471 1.087 1.969.308.498.622.968.941 1.41.32.442.532.725.635.85.104.124.185.217.244.28l.222.223c.142.15.35.329.626.537.275.209.58.414.915.617.334.202.723.367 1.167.494.444.128.876.18 1.296.155h1.021c.207-.02.364-.088.47-.206l.036-.047a.637.637 0 0 0 .067-.172.995.995 0 0 0 .03-.257 3.23 3.23 0 0 1 .058-.723 1.97 1.97 0 0 1 .151-.486 1.192 1.192 0 0 1 .342-.41.565.565 0 0 1 .071-.033c.142-.05.31-.002.502.145.192.146.373.326.542.541.168.215.37.456.608.724.236.267.444.466.621.597l.178.112c.118.075.272.143.461.206.19.062.355.077.497.046l2.273-.037c.225 0 .4-.04.524-.117.124-.078.198-.163.222-.257a.76.76 0 0 0 .004-.317 1.22 1.22 0 0 0-.062-.247z"/></symbol></svg>